<svg width="304" height="237" viewBox="0 0 304 237" fill="none" xmlns="http://www.w3.org/2000/svg">
<g clip-path="url(#clip0_174_55)">
<path d="M274.823 132.03C263.102 126.17 249.384 122.791 236.008 116.958C193.22 98.3029 197.098 52.9435 170.011 22.8269C146.062 -3.80197 105.374 -4.59523 72.6517 7.5225C38.4731 20.1805 9.19773 47.5958 1.72331 81.7333C-6.12039 117.56 13.2734 153.831 51.3978 166.503C95.4784 181.157 149.331 169.17 185.206 202.377C206.651 222.236 229.396 239.599 262.036 229.916C294.087 220.41 312.517 186.587 299.9 157.49C294.306 144.585 285.375 137.303 274.823 132.023V132.03Z" fill="#C2E5FF"/>
<path d="M65.9018 229.109C70.6203 232.576 78.5666 231.454 78.4914 235.742C68.0969 236.85 62.8587 234.347 62.8587 234.347L62.8313 235.728L59.2001 235.27C59.2001 235.27 57.7914 231.769 58.7693 228.938L65.895 229.116L65.9018 229.109Z" fill="#1B1B28"/>
<path d="M25.6096 228.609C20.8911 232.077 12.9448 230.955 13.0201 235.243C23.4145 236.351 28.6527 233.848 28.6527 233.848L28.6801 235.229L32.3113 234.771C32.3113 234.771 33.72 231.27 32.7421 228.438L25.6165 228.616L25.6096 228.609Z" fill="#1B1B28"/>
<path d="M52.1289 156.683C55.5002 190.889 58.7827 228.931 58.7827 228.931C61.1556 230.449 63.5354 230.545 65.9083 229.109C71.5842 171.714 67.5632 138.513 67.5632 138.513L52.9632 138.28M52.9632 138.28L36.8176 138.021C28.5704 188.139 25.6162 228.609 25.6162 228.609C28.0165 230.114 30.6083 230.381 32.9539 228.931C38.8349 192.66 51.5339 156.662 52.1357 156.683" fill="#7B95BA"/>
<path d="M30.6494 227.009C30.6494 227.009 30.6289 227.009 30.6152 227.009C30.5127 226.996 30.4511 226.9 30.4648 226.797C34.5542 202.733 40.9208 178.921 49.3868 156.026C49.421 155.93 49.5304 155.883 49.6193 155.917C49.715 155.951 49.7629 156.054 49.7287 156.149C41.2695 179.024 34.9098 202.808 30.8272 226.852C30.8135 226.941 30.7315 227.002 30.6494 227.002V227.009Z" fill="#4F7099"/>
<path d="M52.1222 154.426C52.0811 154.426 52.0401 154.412 52.0128 154.385C51.9717 154.351 51.9444 154.296 51.9444 154.241L51.835 144.538C51.835 144.435 51.917 144.353 52.0128 144.353C52.1153 144.353 52.1974 144.435 52.1974 144.531L52.3 153.988C52.7034 153.831 53.018 153.53 53.2232 153.099C53.4693 152.586 53.5582 151.998 53.6266 151.438C53.9207 149.017 53.9549 146.534 53.9891 144.127C53.9891 144.025 54.0711 143.949 54.1737 143.949C54.2763 143.949 54.3583 144.032 54.3515 144.134C54.3173 146.548 54.2831 149.037 53.9891 151.479C53.9207 152.067 53.8249 152.689 53.5514 153.257C53.2642 153.852 52.765 154.262 52.1564 154.412C52.1427 154.412 52.129 154.412 52.1153 154.412L52.1222 154.426Z" fill="#4F7099"/>
<path d="M60.4034 226.749C60.3077 226.749 60.2256 226.674 60.2188 226.578C58.6528 203.033 56.4987 179.215 53.818 155.78C53.8043 155.677 53.8796 155.588 53.9821 155.575C54.0779 155.568 54.1736 155.636 54.1873 155.739C56.868 179.181 59.0221 203.006 60.5881 226.551C60.5881 226.653 60.5197 226.736 60.4171 226.742C60.4171 226.742 60.4103 226.742 60.4034 226.742V226.749Z" fill="#4F7099"/>
<path d="M79.1067 114.797C75.626 109.415 72.3845 103.424 70.4971 97.5571L57.0391 87.6208C57.0391 87.6208 59.3026 101.045 73.6633 120.398C75.6465 123.071 77.4655 125.26 82.1498 121.868C88.6737 117.142 97.4679 111.09 102.248 107.302L98.5689 102.789C98.5689 102.789 90.6569 109.114 79.0999 114.804" fill="#EFAD9C"/>
<path d="M98.2267 103.001C98.0284 103.144 98.0626 103.37 98.1857 103.514C98.1652 103.548 98.1515 103.582 98.1378 103.623C97.8095 105.162 97.5839 106.981 98.8832 108.143C99.9363 109.087 101.53 109.531 102.87 109.723C105.735 110.133 108.731 109.299 110.946 107.37C111.062 107.268 111.083 107.138 111.062 107.015C111.562 106.693 111.992 106.283 112.239 105.709C112.321 105.517 112.239 105.353 112.102 105.271C112.184 105.182 112.259 105.086 112.321 104.984C112.54 104.608 112.526 104.163 112.328 103.828C112.457 103.507 112.444 103.144 112.177 102.843C111.651 102.248 110.891 102.522 110.269 102.72C109.449 102.98 108.607 103.151 107.753 103.226C106.433 103.349 105.099 103.247 103.807 102.946C104.012 102.891 104.224 102.837 104.429 102.789C105.051 102.631 105.735 102.536 106.33 102.289C106.768 102.112 107.103 101.612 106.836 101.134C106.57 100.669 105.899 100.723 105.462 100.717C102.884 100.669 100.347 101.483 98.2404 103.007L98.2267 103.001Z" fill="#EFAD9C"/>
<path d="M112.184 103.883C112.191 103.944 112.157 104.013 112.095 104.033C109.982 104.915 107.657 105.291 105.373 105.107C105.291 105.1 105.236 105.025 105.236 104.95C105.236 104.867 105.312 104.813 105.394 104.813C107.63 104.991 109.907 104.628 111.979 103.76C112.054 103.725 112.136 103.76 112.171 103.835C112.171 103.849 112.177 103.862 112.184 103.876V103.883Z" fill="#C16B5B"/>
<path d="M111.767 105.401C111.774 105.462 111.74 105.524 111.678 105.551C109.709 106.386 107.548 106.673 105.428 106.399C105.346 106.386 105.291 106.317 105.305 106.235C105.319 106.153 105.387 106.098 105.469 106.112C107.534 106.386 109.647 106.098 111.569 105.285C111.644 105.25 111.726 105.285 111.76 105.36C111.76 105.373 111.767 105.387 111.774 105.401H111.767Z" fill="#C16B5B"/>
<path d="M110.631 107.179C110.631 107.247 110.59 107.309 110.522 107.322C108.86 107.794 107.137 107.958 105.414 107.808C105.332 107.808 105.277 107.733 105.284 107.651C105.291 107.569 105.359 107.514 105.441 107.521C107.13 107.671 108.812 107.507 110.44 107.049C110.515 107.028 110.597 107.069 110.618 107.152C110.618 107.165 110.618 107.172 110.618 107.186L110.631 107.179Z" fill="#C16B5B"/>
<path d="M62.7905 86.1028C68.6237 88.6262 74.874 102.905 74.874 102.905L65.2181 107.582C63.2555 99.4104 62.0177 91.8744 62.7905 86.0959V86.1028Z" fill="#36303A"/>
<path d="M55.6234 83.7642L62.7901 86.1029C62.7901 86.1029 66.4692 116.821 68.2266 140.503C45.6666 145.276 36.0381 140.448 36.0381 140.448C37.3784 112.561 41.4747 86.1029 41.4747 86.1029L48.5935 83.7642H55.6371H55.6234Z" fill="#36303A"/>
<path d="M51.9581 129.24C51.7187 129.274 51.6435 129.493 51.6914 129.677C51.6572 129.698 51.6298 129.718 51.6025 129.753C50.6177 130.983 49.592 132.495 50.2279 134.115C50.7408 135.428 51.9649 136.55 53.0727 137.323C55.4457 138.978 58.4956 139.586 61.3404 138.868C61.4909 138.827 61.5729 138.725 61.6003 138.601C62.1952 138.54 62.7628 138.362 63.2415 137.965C63.3988 137.829 63.3988 137.651 63.3167 137.514C63.433 137.473 63.5424 137.425 63.645 137.357C64.0074 137.118 64.1989 136.714 64.1784 136.331C64.4382 136.099 64.5887 135.77 64.4861 135.381C64.2878 134.615 63.4808 134.519 62.838 134.409C61.9901 134.273 61.1626 134.04 60.3625 133.726C59.1316 133.24 57.9896 132.549 56.9706 131.695C57.1826 131.743 57.3878 131.79 57.5998 131.831C58.2221 131.968 58.8786 132.194 59.5145 132.242C59.9796 132.276 60.513 131.989 60.4856 131.442C60.4582 130.901 59.836 130.655 59.4462 130.45C57.169 129.246 54.5362 128.829 51.9649 129.233L51.9581 129.24Z" fill="#EFAD9C"/>
<path d="M64.0146 136.324C63.9941 136.386 63.9325 136.427 63.8642 136.42C61.5801 136.256 59.3371 135.538 57.3813 134.348C57.3129 134.307 57.2993 134.218 57.3334 134.15C57.3745 134.081 57.4634 134.061 57.5318 134.102C59.4465 135.271 61.6417 135.969 63.8847 136.133C63.9667 136.133 64.0283 136.208 64.0214 136.29C64.0214 136.304 64.0214 136.318 64.0146 136.331V136.324Z" fill="#C16B5B"/>
<path d="M62.9609 137.487C62.9404 137.549 62.8788 137.59 62.8104 137.583C60.6768 137.439 58.6185 136.721 56.8541 135.518C56.7858 135.47 56.7721 135.388 56.8131 135.312C56.861 135.244 56.9499 135.23 57.0183 135.271C58.7416 136.448 60.7521 137.145 62.8309 137.282C62.913 137.282 62.9746 137.357 62.9677 137.439C62.9677 137.453 62.9677 137.467 62.9609 137.48V137.487Z" fill="#C16B5B"/>
<path d="M61.142 138.561C61.1147 138.622 61.0463 138.656 60.9779 138.643C59.282 138.314 57.6749 137.685 56.2047 136.769C56.1363 136.728 56.1158 136.639 56.1568 136.571C56.1978 136.502 56.2867 136.482 56.3551 136.523C57.798 137.419 59.3709 138.034 61.0326 138.355C61.1147 138.369 61.1625 138.444 61.1489 138.526C61.1489 138.54 61.1489 138.547 61.142 138.561Z" fill="#C16B5B"/>
<path d="M31.9966 120.63C34.2533 114.633 37.1459 108.465 40.743 103.459V86.7319C40.743 86.7319 31.2854 96.5314 24.2623 119.584C23.2913 122.771 23.2844 125.738 28.126 127.284C35.7988 129.732 45.8992 133.192 51.7871 134.786L53.23 129.144C53.23 129.144 43.4442 126.539 31.9966 120.63Z" fill="#EFAD9C"/>
<path d="M41.4681 86.1028C35.6349 88.6262 29.8975 102.105 29.8975 102.105L39.0405 107.582C43.5128 101.688 43.3077 94.179 41.4681 86.0959V86.1028Z" fill="#36303A"/>
<path d="M43.0684 67.2767C44.0395 70.142 45.3935 72.8842 47.1168 75.3666C47.7254 76.2419 48.4776 77.3019 49.6675 77.3292C50.9531 77.3566 51.7054 76.2556 52.3003 75.2777C55.0357 70.8054 60.7663 69.4103 63.5632 64.9585C66.326 60.5614 68.0356 53.7092 63.4265 51.7671C59.6995 50.2011 45.0652 54.4478 42.4324 58.6124C40.8049 61.1837 42.1384 64.5482 43.0684 67.2699V67.2767Z" fill="#7B3A4A"/>
<path d="M47.6773 59.5289C50.8572 53.7025 62.038 55.6925 62.9065 60.3221C64.6914 69.8549 63.3373 73.7665 60.6909 76.0164C57.6272 78.6218 55.6236 78.2867 55.6236 83.7643C54.4679 86.6775 50.0161 87.0741 48.58 83.7643C48.6689 76.5156 46.1797 71.0175 46.1797 71.0175C46.1797 71.0175 46.3643 61.9292 47.6773 59.5289Z" fill="#EFAD9C"/>
<path d="M48.8744 60.8212C50.796 63.5908 54.6598 62.948 54.6598 62.948L52.4304 61.0264C52.4304 61.0264 57.9491 64.2951 63.6455 63.16C63.6455 63.16 64.4798 61.0674 61.9222 57.5798C60.281 55.3505 55.5214 54.7965 51.4594 55.5488C47.3973 56.301 45.633 58.0653 45.4962 60.9785C45.3663 63.8917 45.0654 67.5297 45.0654 67.5297L46.6451 68.7333C49.1206 67.0852 48.8744 60.8144 48.8744 60.8144V60.8212Z" fill="#7B3A4A"/>
<path d="M54.5088 68.5144C54.5088 68.9111 54.8302 69.2325 55.2268 69.2325C55.6235 69.2325 55.9449 68.9111 55.9449 68.5144C55.9449 68.1178 55.6235 67.7964 55.2268 67.7964C54.8302 67.7964 54.5088 68.1178 54.5088 68.5144Z" fill="#1B1B28"/>
<path d="M55.2266 68.316C55.2266 68.4596 55.3428 68.5759 55.4864 68.5759C55.63 68.5759 55.7463 68.4596 55.7463 68.316C55.7463 68.1724 55.63 68.0562 55.4864 68.0562C55.3428 68.0562 55.2266 68.1724 55.2266 68.316Z" fill="white"/>
<path d="M60.0557 68.5144C60.0557 68.9111 60.3771 69.2325 60.7737 69.2325C61.1703 69.2325 61.4917 68.9111 61.4917 68.5144C61.4917 68.1178 61.1703 67.7964 60.7737 67.7964C60.3771 67.7964 60.0557 68.1178 60.0557 68.5144Z" fill="#1B1B28"/>
<path d="M60.7734 68.316C60.7734 68.4596 60.8897 68.5759 61.0333 68.5759C61.1769 68.5759 61.2932 68.4596 61.2932 68.316C61.2932 68.1724 61.1769 68.0562 61.0333 68.0562C60.8897 68.0562 60.7734 68.1724 60.7734 68.316Z" fill="white"/>
<path d="M59.5768 65.7038C60.4795 65.0747 61.6488 65.1157 62.4968 65.8474C62.6541 65.9842 62.6814 66.2646 62.5652 66.4424C62.4421 66.627 62.2096 66.6543 62.0455 66.5176C61.6967 66.2167 61.2522 66.0799 60.8214 66.1141C60.6026 66.1278 60.3837 66.1893 60.1854 66.2919C60.0076 66.3808 59.8366 66.5381 59.6315 66.4218C59.5836 66.3945 59.5426 66.3535 59.5084 66.3056C59.399 66.1415 59.4058 65.8337 59.5768 65.7106V65.7038Z" fill="#7B3A4A"/>
<path d="M56.7796 65.7038C55.747 65.0747 54.4067 65.1157 53.4356 65.8474C53.251 65.9842 53.2236 66.2646 53.3604 66.4424C53.504 66.627 53.7707 66.6543 53.9553 66.5176C54.352 66.2167 54.8649 66.0868 55.3572 66.1209C55.6102 66.1346 55.8564 66.1962 56.0889 66.2919C56.2941 66.3808 56.4924 66.5313 56.7249 66.415C56.7796 66.3876 56.8275 66.3466 56.8617 66.2987C56.9916 66.1346 56.9779 65.8269 56.7865 65.7038H56.7796Z" fill="#7B3A4A"/>
<path d="M59.1659 70.4566C59.207 70.4566 59.2412 70.4292 59.2548 70.3882C59.4326 69.7796 59.2275 69.5676 59.0155 69.4992C58.8103 69.4308 58.5573 69.4855 58.2701 69.6633C58.2291 69.6907 58.2154 69.7454 58.2427 69.7932C58.2701 69.8343 58.3316 69.848 58.3727 69.8206C58.6052 69.677 58.8035 69.6291 58.9608 69.677C59.1454 69.7385 59.1865 69.9574 59.077 70.3335C59.0634 70.3814 59.0907 70.4361 59.1386 70.4497C59.1454 70.4497 59.1591 70.4497 59.1659 70.4497V70.4566Z" fill="#C16B5B"/>
<path d="M55.8906 71.106C56.2121 70.6957 56.9232 71.2223 57.8054 71.3796C58.6876 71.53 59.5355 71.2702 59.6997 71.7694C59.9117 72.3985 58.8996 73.691 57.4498 73.438C56.0001 73.1849 55.4803 71.6258 55.8906 71.106Z" fill="#8E4136"/>
<path d="M55.8496 72.0769C56.13 72.0906 56.4309 72.1179 56.7454 72.1726C57.7781 72.3504 58.6192 72.7197 58.9816 73.089C58.585 73.3694 58.0584 73.5403 57.4498 73.4378C56.5745 73.2873 56.0479 72.665 55.8496 72.0769Z" fill="#C16B5B"/>
<path d="M57.7232 71.8788C56.93 71.742 56.294 71.4343 56.123 70.9693C56.4992 70.8872 57.0941 71.2565 57.8121 71.3796C58.5302 71.5027 59.214 71.3591 59.5423 71.5574C59.2209 71.9404 58.5165 72.0156 57.7301 71.872L57.7232 71.8788Z" fill="white"/>
<path d="M43.7319 71.2295C44.6893 72.3715 46.2006 72.6792 47.1101 71.9202C48.0196 71.1611 47.9786 69.6156 47.0144 68.4736C46.057 67.3316 44.5457 67.0238 43.6362 67.7829C42.7267 68.542 42.7677 70.0875 43.7319 71.2295Z" fill="#EFAD9C"/>
<path d="M44.265 68.3437C44.6753 68.1248 45.2155 68.1385 45.7147 68.371C45.9678 68.4873 46.1456 68.6309 46.2687 68.8018C46.4328 69.0343 46.4807 69.3216 46.3849 69.5609C46.3029 69.7729 46.1319 69.9097 45.9883 70.0328C45.8789 70.1217 45.7763 70.2037 45.7216 70.2995C45.6327 70.4499 45.6532 70.6619 45.7763 70.7987C45.8926 70.9286 46.1045 70.9696 46.2618 70.8944C46.3576 70.8534 46.467 70.8944 46.508 70.9833C46.549 71.079 46.508 71.1885 46.4191 71.2295C46.3165 71.2774 46.2071 71.2979 46.0909 71.2979C45.8652 71.2979 45.6464 71.209 45.4959 71.038C45.2702 70.785 45.2292 70.3952 45.4002 70.1011C45.4891 69.9439 45.6327 69.8276 45.7558 69.7319C45.8789 69.6293 45.9951 69.5336 46.043 69.4173C46.0909 69.3011 46.0567 69.1369 45.9678 69.0138C45.9336 68.9591 45.8789 68.9181 45.8242 68.8702C45.6395 68.8702 45.407 68.9249 45.2908 69.0549C45.1608 69.1985 45.0924 69.4105 45.1266 69.6019C45.1403 69.7045 45.0719 69.8003 44.9694 69.8139C44.9625 69.8139 44.9488 69.8139 44.942 69.8139C44.8531 69.8139 44.771 69.7455 44.7574 69.6566C44.7095 69.3489 44.8052 69.0275 45.0104 68.795C45.0925 68.7061 45.1882 68.6514 45.2908 68.6035C44.983 68.5215 44.6753 68.5351 44.436 68.6651C44.1419 68.8224 43.9231 69.219 44.0735 69.5472C44.1146 69.643 44.0735 69.7524 43.9846 69.7934C43.8889 69.8344 43.7795 69.7934 43.7384 69.7045C43.5196 69.2327 43.759 68.6035 44.265 68.3368V68.3437Z" fill="#C16B5B"/>
<path d="M106.085 25.9861C93.495 25.9861 83.2852 32.804 83.2852 41.2221C83.2852 46.6519 87.5318 51.4114 93.9258 54.1058C91.7306 58.3798 88.243 61.9837 84.0237 64.2814C90.151 63.748 95.9636 60.616 99.8821 55.8838C101.852 56.253 103.93 56.4582 106.085 56.4582C118.674 56.4582 128.884 49.6403 128.884 41.2221C128.884 32.804 118.674 25.9861 106.085 25.9861Z" fill="#60B1ED"/>
<path d="M233.184 57.6549C237.799 53.9895 240.843 47.7254 240.843 40.6135C240.843 29.3232 233.184 20.1665 223.74 20.1665C214.296 20.1665 206.637 29.3232 206.637 40.6135C206.637 51.9037 214.296 61.0604 223.74 61.0604C225.996 61.0604 228.144 60.5338 230.113 59.5833C232.575 62.0657 236.049 63.4333 239.55 63.0572C236.958 61.9289 234.729 60.0141 233.184 57.648V57.6549Z" fill="#C2E5FF"/>
<path d="M249.766 56.8958C246.005 58.6054 243.393 62.5923 243.331 66.7227C243.297 69.205 244.077 71.8173 243.092 74.0945C242.613 75.2024 241.758 76.0982 241.081 77.0966C240.404 78.095 239.892 79.3328 240.213 80.4953C240.534 81.6578 241.642 82.5263 241.813 83.7162C241.964 84.7693 241.341 85.7883 240.603 86.561C239.864 87.3338 238.989 87.9834 238.414 88.8861C236.972 91.1633 238.052 94.3568 240.117 96.0938C242.182 97.8308 244.938 98.4462 247.592 98.9112C255.374 100.279 263.758 100.764 270.842 97.2563C273.229 96.0801 275.492 94.3432 276.491 91.8745C277.489 89.4058 276.785 86.137 274.432 84.8924C273.714 84.5095 272.894 84.3385 272.169 83.9692C271.444 83.6 270.774 82.9366 270.76 82.1229C270.74 80.7894 272.374 80.0029 272.689 78.7105C272.921 77.7463 272.347 76.7615 271.622 76.0845C270.897 75.4075 270.001 74.922 269.311 74.2176C267.745 72.6311 267.423 70.2103 267.368 67.981C267.314 65.7516 267.437 63.4197 266.493 61.3955C265.85 60.021 264.496 59.0089 263.019 58.5918C262.199 58.3593 260.913 58.7764 260.913 58.7764C260.913 58.7764 260.564 57.7301 259.388 57.1762C256.393 55.7607 252.789 55.5076 249.753 56.8822L249.766 56.8958Z" fill="#3C495E"/>
<path d="M238.928 139.374H257.173L254.588 160.97C251.216 195.176 247.941 229.984 247.941 229.984C245.568 231.502 243.188 231.474 240.815 230.038C234.49 164.417 238.921 139.367 238.921 139.367L238.928 139.374Z" fill="#FFB681"/>
<path d="M247.407 236.316C247.407 236.316 238.496 237.746 228.115 236.453C228.115 233.266 232.499 233.136 236.711 231.892C238.168 231.468 239.604 230.907 240.821 230.032L247.947 229.984C248.063 230.339 248.145 230.709 248.186 231.078C248.521 233.656 247.407 236.309 247.407 236.309V236.316Z" fill="#7B95BA"/>
<path d="M248.187 231.092C245.431 232.063 242.436 233.006 239.516 233.259C238.791 233.328 238.018 233.341 237.403 232.959C237.04 232.74 236.767 232.323 236.705 231.905C238.162 231.481 239.598 230.921 240.815 230.045C243.202 229.635 245.575 229.594 247.941 229.997C248.057 230.353 248.139 230.722 248.18 231.092H248.187Z" fill="#FFB681"/>
<path d="M272.197 181.752C279.835 148.346 270.898 138.704 270.898 138.704H252.201C252.201 138.704 254.636 155.787 258.424 182.115C258.759 184.446 259.525 186.696 260.681 188.755C266.815 199.689 274.488 211.759 283.446 225.354C285.969 226.264 288.992 226.209 290.394 223.761C290.394 223.761 281.627 204.606 272.204 181.752H272.197Z" fill="#FFB681"/>
<path d="M291.228 230.052C291.228 230.052 282.837 233.376 272.422 234.374C271.731 231.263 275.985 230.189 279.828 228.062C281.155 227.33 282.433 226.469 283.439 225.354L290.387 223.761C290.578 224.082 290.735 224.424 290.858 224.78C291.747 227.221 291.228 230.059 291.228 230.059V230.052Z" fill="#7B95BA"/>
<path d="M290.859 224.773C288.376 226.318 285.661 227.891 282.864 228.766C282.174 228.985 281.415 229.17 280.738 228.931C280.334 228.794 279.979 228.445 279.828 228.055C281.155 227.324 282.434 226.462 283.439 225.347C285.675 224.431 287.986 223.877 290.387 223.754C290.578 224.075 290.735 224.417 290.859 224.773Z" fill="#FFB681"/>
<path d="M271.977 129.561C275.424 139.75 278.453 152.244 277.379 167.938C271.758 172.336 263.197 175.351 256.057 175.303C255.674 169.703 255.223 164.56 254.84 158.96C254.505 164.499 254.095 169.887 253.759 175.427C246.88 175.638 240.035 173.519 234.085 168.848C233.162 159.178 234.844 140.824 241.457 130.074C251.927 128.583 261.453 128.467 271.97 129.568L271.977 129.561Z" fill="#033AB7"/>
<path d="M257.172 173.443C263.443 172.814 270.753 169.751 275.937 166.174L257.172 173.443Z" fill="#033AB7"/>
<path d="M257.172 173.443C263.443 172.814 270.753 169.751 275.937 166.174" stroke="#4A6D6C" stroke-width="0.341922" stroke-linecap="round" stroke-linejoin="round"/>
<path d="M235.439 166.4C240.992 171.453 247.297 172.267 251.947 173.306L235.439 166.4Z" fill="#033AB7"/>
<path d="M235.439 166.4C240.992 171.453 247.297 172.267 251.947 173.306" stroke="#4A6D6C" stroke-width="0.341922" stroke-linecap="round" stroke-linejoin="round"/>
<path d="M240.986 133.767C251.155 136.269 261.905 136.393 272.129 134.129L240.986 133.767Z" fill="#033AB7"/>
<path d="M240.986 133.767C251.155 136.269 261.905 136.393 272.129 134.129" stroke="#4A6D6C" stroke-width="0.341922" stroke-linecap="round" stroke-linejoin="round"/>
<path d="M254.764 158.364C254.545 153.694 255.12 140.598 255.756 135.962L254.764 158.364Z" fill="#033AB7"/>
<path d="M254.764 158.364C254.545 153.694 255.12 140.598 255.756 135.962" stroke="#4A6D6C" stroke-width="0.341922" stroke-linecap="round" stroke-linejoin="round"/>
<path d="M254.532 136.994C251.701 140.338 249.506 145.597 249.123 149.96L254.532 136.994Z" fill="#033AB7"/>
<path d="M254.532 136.994C251.701 140.338 249.506 145.597 249.123 149.96" stroke="white" stroke-width="0.341922" stroke-linecap="round" stroke-linejoin="round"/>
<path d="M256.521 136.994C256.836 141.05 258.135 145.871 259.448 149.721L256.521 136.994Z" fill="#033AB7"/>
<path d="M256.521 136.994C256.836 141.05 258.135 145.871 259.448 149.721" stroke="white" stroke-width="0.341922" stroke-linecap="round" stroke-linejoin="round"/>
<path d="M225.441 117.758C222.651 108.786 221.345 100.211 220.34 95.4032L226.105 94.945C226.105 94.945 226.693 102.098 231.924 113.874C235.405 108.492 238.646 102.501 240.534 96.6341L251.68 93.8235C251.68 93.8235 249.232 101.941 237.217 119.659C234.092 124.275 228.361 127.154 225.441 117.758Z" fill="#FFB681"/>
<path d="M218.46 92.8387C217.372 91.7582 216.422 90.5478 215.635 89.228C215.54 89.0639 215.444 88.8997 215.41 88.7083C215.376 88.5236 215.417 88.3116 215.56 88.1885C215.82 87.956 216.23 88.1338 216.524 88.3185C217.325 88.8245 218.166 89.3511 218.877 89.9734C218.111 88.7561 217.352 87.5321 216.641 86.2806C216.524 86.0755 216.408 85.8703 216.374 85.6378C216.34 85.4053 216.408 85.1454 216.6 85.0155C216.784 84.8856 217.037 84.8993 217.242 84.995C217.448 85.0907 217.605 85.248 217.769 85.4121C218.72 86.3627 219.65 87.3337 220.6 88.2843C219.862 86.7456 219.123 85.2001 218.631 83.5658C218.576 83.3743 218.514 83.176 218.535 82.9776C218.549 82.7793 218.651 82.5742 218.836 82.4853C219.007 82.4032 219.219 82.4511 219.383 82.5537C219.547 82.6562 219.663 82.8135 219.786 82.964C220.901 84.4137 221.872 85.966 222.679 87.6073C222.255 86.1097 221.975 84.571 221.858 83.0187C221.838 82.7178 221.845 82.3485 222.105 82.1844C222.317 82.0545 222.604 82.1228 222.788 82.2938C222.973 82.4579 223.076 82.6973 223.171 82.9229C224.238 85.5147 225.025 88.2296 225.503 90.9923C226.208 90.0623 227.008 89.1391 228.081 88.6878C228.417 88.5441 228.882 88.5031 229.066 88.8177C229.196 89.0365 229.1 89.3169 229.005 89.5562C228.594 90.5615 228.184 91.5667 227.767 92.5788C227.377 93.5362 226.98 94.5004 226.42 95.3689C225.859 96.2374 225.107 97.0101 224.163 97.441C223.048 97.9538 221.674 97.9196 220.628 97.2768C219.923 96.846 219.39 96.169 219.041 95.4168C218.685 94.6714 218.61 93.6593 218.494 92.8387H218.46Z" fill="#FFB681"/>
<path d="M246.136 88.8313C246.136 88.8313 240.473 90.3563 235.529 106.146L245.062 111.405C245.062 111.405 246.231 94.9517 246.143 88.8313H246.136Z" fill="#5F8DCF"/>
<path d="M241.464 130.074C243.372 131.045 257.473 135.032 271.978 129.568C268.237 112.971 271.861 104.806 271.868 104.806C271.588 95.7041 271.26 90.6984 271.369 90.6574C268.34 87.9151 261.323 87.2176 261.323 87.2176C258.718 86.7526 254.218 87.0672 252.42 87.3202C252.338 87.327 252.276 87.3339 252.208 87.3475C251.517 87.4364 250.833 87.539 250.149 87.669L248.077 88.1613C246.484 88.6058 245.226 89.1597 244.815 89.6726C244.036 90.7941 243.461 94.3364 242.791 100.32C240.965 102.734 239.885 105.613 239.885 108.656C239.885 110.626 240.329 112.657 241.321 114.688C241.321 114.688 241.328 114.688 241.328 114.694C241.649 115.351 242.463 116.151 242.948 116.787C244.077 121.164 243.366 126.224 241.458 130.081L241.464 130.074Z" fill="#5F8DCF"/>
<path d="M239.734 107.74C239.748 105.148 240.808 102.584 242.634 100.744C242.798 99.821 243.031 98.891 243.195 97.9678" fill="#5F8DCF"/>
<path d="M239.734 107.74C239.748 105.148 240.808 102.584 242.634 100.744C242.798 99.821 243.031 98.891 243.195 97.9678" stroke="#C94339" stroke-width="0.341922" stroke-linecap="round" stroke-linejoin="round"/>
<path d="M270.282 103.726C269.024 102.789 267.827 101.23 266.932 99.9441L270.282 103.726Z" fill="#5F8DCF"/>
<path d="M270.282 103.726C269.024 102.789 267.827 101.23 266.932 99.9441" stroke="#C94339" stroke-width="0.341922" stroke-linecap="round" stroke-linejoin="round"/>
<path d="M284.997 118.237C281.174 113.087 276.695 107.959 271.86 104.136L269.07 89.6794C269.07 89.6794 279.041 94.8698 292.143 115.105C293.955 117.902 294.783 120.753 290.55 123.571C283.848 128.029 280.511 130.696 275.286 133.849L266.93 132.262C266.93 132.262 275.621 127.065 285.004 118.237" fill="#FFB681"/>
<path d="M271.977 129.561C271.977 129.561 265.303 128.802 263.915 129.089C262.526 129.37 256.673 132.406 256.953 133.09C257.329 133.999 262.684 131.325 262.684 131.325C262.684 131.325 257.213 135.1 257.726 135.784C258.246 136.475 263.347 133.001 263.347 133.001C263.347 133.001 259.832 136.331 260.365 136.919C260.885 137.501 265.111 133.979 265.111 133.979C265.111 133.979 262.219 137.166 262.759 137.822C263.197 138.355 266.971 134.642 266.971 134.642C266.971 134.642 269.871 137.979 275.287 133.856L271.977 129.575V129.561Z" fill="#FFB681"/>
<path d="M271.375 90.6504C271.375 90.6504 279.021 96.2648 283.616 102.782L276.832 109.401L270.787 104.471L268.236 89.5494L268.359 89.187L271.375 90.6504Z" fill="#5F8DCF"/>
<path d="M261.584 62.9752C258.404 57.1488 247.223 59.1388 246.355 63.7684C244.57 73.3012 245.924 77.2128 248.571 79.4627C251.634 82.0681 253.638 81.733 253.638 87.2106C254.794 90.1238 259.245 90.5204 260.682 87.2106C260.593 79.9619 263.082 74.4638 263.082 74.4638C263.082 74.4638 262.897 65.3755 261.584 62.9752Z" fill="#FFB681"/>
<path d="M245.622 66.6133C245.622 66.6133 244.788 64.5208 247.346 61.0332C248.987 58.8038 253.746 58.2499 257.808 59.0021C261.87 59.7544 263.635 61.5187 263.771 64.4319C263.901 67.345 264.202 70.9831 264.202 70.9831L262.623 72.1867C260.147 70.5386 260.393 66.0321 260.393 66.0321C258.841 66.1893 257.077 66.2441 255.531 66.0321C253.986 65.8201 252.44 65.2115 251.401 64.0421C250.341 65.9021 247.763 66.6065 245.622 66.6065V66.6133Z" fill="#3C495E"/>
<path d="M254.751 71.961C254.751 72.3576 254.429 72.679 254.033 72.679C253.636 72.679 253.314 72.3576 253.314 71.961C253.314 71.5643 253.636 71.2429 254.033 71.2429C254.429 71.2429 254.751 71.5643 254.751 71.961Z" fill="#1B1B28"/>
<path d="M254.039 71.7628C254.039 71.9064 253.923 72.0227 253.779 72.0227C253.636 72.0227 253.52 71.9064 253.52 71.7628C253.52 71.6192 253.636 71.5029 253.779 71.5029C253.923 71.5029 254.039 71.6192 254.039 71.7628Z" fill="white"/>
<path d="M249.206 71.961C249.206 72.3576 248.884 72.679 248.488 72.679C248.091 72.679 247.77 72.3576 247.77 71.961C247.77 71.5643 248.091 71.2429 248.488 71.2429C248.884 71.2429 249.206 71.5643 249.206 71.961Z" fill="#1B1B28"/>
<path d="M248.494 71.7628C248.494 71.9064 248.378 72.0227 248.234 72.0227C248.091 72.0227 247.975 71.9064 247.975 71.7628C247.975 71.6192 248.091 71.5029 248.234 71.5029C248.378 71.5029 248.494 71.6192 248.494 71.7628Z" fill="white"/>
<path d="M249.691 69.1503C248.788 68.5212 247.619 68.5622 246.771 69.2939C246.613 69.4307 246.586 69.7111 246.702 69.8889C246.825 70.0735 247.058 70.1009 247.222 69.9641C247.571 69.6632 248.015 69.5265 248.446 69.5606C248.665 69.5743 248.884 69.6359 249.082 69.7384C249.26 69.8273 249.431 69.9846 249.636 69.8684C249.684 69.841 249.725 69.8 249.759 69.7521C249.869 69.588 249.862 69.2803 249.691 69.1572V69.1503Z" fill="#3C495E"/>
<path d="M252.482 69.1503C253.514 68.5212 254.855 68.5622 255.826 69.2939C256.01 69.4307 256.038 69.7111 255.901 69.8889C255.757 70.0735 255.491 70.1009 255.306 69.9641C254.909 69.6632 254.397 69.5333 253.904 69.5675C253.651 69.5812 253.405 69.6427 253.172 69.7384C252.967 69.8273 252.769 69.9778 252.536 69.8615C252.482 69.8342 252.434 69.7931 252.4 69.7453C252.27 69.5812 252.283 69.2734 252.475 69.1503H252.482Z" fill="#3C495E"/>
<path d="M250.102 73.9031C250.061 73.9031 250.027 73.8758 250.013 73.8347C249.835 73.2261 250.04 73.0141 250.246 72.9457C250.451 72.8773 250.704 72.9321 250.991 73.1099C251.032 73.1372 251.046 73.1919 251.018 73.2398C250.991 73.2808 250.929 73.2945 250.888 73.2671C250.656 73.1235 250.458 73.0757 250.3 73.1235C250.116 73.1851 250.075 73.4039 250.184 73.78C250.198 73.8279 250.17 73.8826 250.123 73.8963C250.116 73.8963 250.102 73.8963 250.095 73.8963L250.102 73.9031Z" fill="#C16B5B"/>
<path d="M253.185 74.6829C252.863 74.2726 252.152 74.7992 251.27 74.9565C250.388 75.1069 249.54 74.8471 249.376 75.3463C249.164 75.9754 250.176 77.2679 251.626 77.0149C253.075 76.7618 253.595 75.2027 253.185 74.6829Z" fill="#8E4136"/>
<path d="M253.226 75.647C252.945 75.6606 252.644 75.688 252.33 75.7427C251.297 75.9205 250.456 76.2898 250.094 76.6591C250.49 76.9394 251.017 77.1104 251.626 77.0078C252.494 76.8574 253.027 76.2351 253.226 75.647Z" fill="#C16B5B"/>
<path d="M251.352 75.4486C252.145 75.3119 252.781 75.0041 252.952 74.5391C252.576 74.4571 251.981 74.8263 251.263 74.9494C250.545 75.0725 249.861 74.9289 249.533 75.1272C249.855 75.5102 250.559 75.5854 251.345 75.4418L251.352 75.4486Z" fill="white"/>
<path d="M265.536 74.6758C264.578 75.8178 263.067 76.1255 262.158 75.3665C261.248 74.6074 261.289 73.0619 262.253 71.9199C263.211 70.7779 264.722 70.4701 265.632 71.2292C266.541 71.9883 266.5 73.5338 265.536 74.6758Z" fill="#FFB681"/>
<path d="M265.003 71.79C264.593 71.5711 264.053 71.5848 263.553 71.8173C263.3 71.9336 263.123 72.0772 262.999 72.2481C262.835 72.4806 262.787 72.7679 262.883 73.0072C262.965 73.2192 263.136 73.356 263.28 73.4791C263.389 73.568 263.492 73.65 263.547 73.7457C263.635 73.8962 263.615 74.1082 263.492 74.245C263.376 74.3749 263.164 74.4159 263.006 74.3407C262.911 74.2997 262.801 74.3407 262.76 74.4296C262.719 74.5253 262.76 74.6347 262.849 74.6758C262.952 74.7236 263.061 74.7442 263.177 74.7442C263.403 74.7442 263.622 74.6553 263.772 74.4843C263.998 74.2313 264.039 73.8415 263.868 73.5474C263.779 73.3902 263.635 73.2739 263.512 73.1782C263.389 73.0756 263.273 72.9798 263.225 72.8636C263.177 72.7473 263.211 72.5832 263.3 72.4601C263.335 72.4054 263.389 72.3644 263.444 72.3165C263.629 72.3165 263.861 72.3712 263.977 72.5012C264.107 72.6448 264.176 72.8568 264.141 73.0482C264.128 73.1508 264.196 73.2465 264.299 73.2602C264.306 73.2602 264.319 73.2602 264.326 73.2602C264.415 73.2602 264.497 73.1918 264.511 73.1029C264.559 72.7952 264.463 72.4738 264.258 72.2413C264.176 72.1524 264.08 72.0977 263.977 72.0498C264.285 71.9678 264.593 71.9814 264.832 72.1114C265.126 72.2686 265.345 72.6653 265.195 72.9935C265.154 73.0893 265.195 73.1987 265.283 73.2397C265.379 73.2807 265.489 73.2397 265.53 73.1508C265.749 72.679 265.509 72.0498 265.003 71.7831V71.79Z" fill="#C16B5B"/>
<path d="M145.802 229.095C150.438 232.671 158.412 231.741 158.234 236.029C147.813 236.89 142.643 234.264 142.643 234.264L142.588 235.646L138.97 235.099C138.97 235.099 137.651 231.57 138.69 228.753L145.809 229.095H145.802Z" fill="#1B1B28"/>
<path d="M148.08 181.294C142.841 205.447 138.684 228.753 138.684 228.753C140.489 230.92 143.484 230.442 145.802 229.095C152.217 214.125 157.052 197.597 161.155 185.753C161.927 183.523 162.283 181.171 162.201 178.818C161.285 152.237 158.946 138.978 158.946 138.978L142.609 140.448C142.609 140.448 140.954 150.788 148.08 181.294Z" fill="#9E6C52"/>
<path d="M160.156 138.868L142.616 140.448C142.616 140.448 140.961 150.788 148.087 181.294C145.201 194.595 142.643 207.629 140.934 216.662C143.895 217.579 146.958 218.139 150.042 218.461C154.433 206.678 158.009 194.841 161.162 185.753C161.934 183.523 162.29 181.171 162.208 178.818C161.292 152.237 160.163 138.868 160.163 138.868H160.156Z" fill="#6F5E68"/>
<path d="M139.908 219.206C140.148 217.784 140.339 216.355 140.469 214.918C144.196 215.397 147.841 215.924 151.568 216.402C150.891 217.838 150.316 219.35 149.858 220.875C146.48 220.991 142.938 220.697 139.908 219.206Z" fill="#5B4553"/>
<path d="M144.503 142.958C144.804 144.749 144.736 146.582 144.797 148.401C144.907 151.54 145.399 154.651 145.885 157.756C146.233 159.965 146.582 162.174 146.931 164.382C147.82 170.01 148.723 175.673 150.63 181.041C148.613 191.859 146.199 202.609 143.676 213.325" stroke="#5B4553" stroke-width="0.341922" stroke-linecap="round" stroke-linejoin="round"/>
<path d="M173.175 229.32C177.955 232.705 185.881 231.447 185.881 235.735C175.507 237.02 170.228 234.613 170.228 234.613V235.995L166.59 235.598C166.59 235.598 165.126 232.124 166.05 229.272L173.175 229.32Z" fill="#1B1B28"/>
<path d="M169.75 183.899C167.821 208.538 166.05 229.266 166.05 229.266C168.129 231.167 171.022 230.797 173.176 229.313C177.511 213.619 180.842 198.841 183.304 186.546C183.769 184.234 183.803 181.855 183.406 179.536C178.906 153.318 174.803 140.496 174.803 140.496L159.629 139.689V153.708C162.159 162.344 167.329 175.467 169.75 183.892" fill="#9E6C52"/>
<path d="M183.406 179.543C178.906 153.325 174.803 140.502 174.803 140.502L159.629 139.696V153.714C162.159 162.351 167.329 175.474 169.75 183.899C168.738 196.783 167.774 208.586 167.083 216.929C170.153 217.093 173.224 217.38 176.294 217.524C179.153 206.254 181.464 195.716 183.304 186.553C183.769 184.241 183.803 181.861 183.406 179.543Z" fill="#6F5E68"/>
<path d="M166.352 219.247C166.434 217.811 166.461 216.368 166.44 214.925C170.195 214.994 173.874 215.117 177.635 215.185C177.122 216.69 176.712 218.256 176.431 219.815C173.087 220.3 169.531 220.403 166.358 219.247H166.352Z" fill="#5B4553"/>
<path d="M160.012 144.25C160.114 148.688 160.436 153.12 160.969 157.523C161.502 157.633 161.974 157.188 162.241 156.71C162.508 156.231 162.556 155.663 162.59 155.123C162.829 151.444 162.768 147.738 162.405 144.065" stroke="#5B4553" stroke-width="0.341922" stroke-linecap="round" stroke-linejoin="round"/>
<path d="M162.967 159.062C165.75 167.166 171.658 183.346 171.658 183.346C171.658 183.346 170.14 203.526 169.498 213.476" stroke="#5B4553" stroke-width="0.341922" stroke-linecap="round" stroke-linejoin="round"/>
<path d="M146.862 88.5919L141.624 90.2741C138.075 95.3141 133.192 100.067 128.261 104.163C126.784 91.3683 128.357 84.3657 128.357 84.3657L122.722 83.0801C122.244 87.9696 120.938 96.545 120.924 105.941C120.91 115.775 127.236 114.735 131.599 111.268C137.363 106.68 142.294 102.139 146.281 98.1588C146.472 94.9721 146.766 91.7854 146.869 88.5987L146.862 88.5919Z" fill="#9E6C52"/>
<path d="M126.251 77.0896C125.998 76.7271 125.677 76.139 125.137 76.1801C124.59 76.2143 124.364 76.775 124.46 77.24C124.59 77.8692 124.891 78.4915 125.103 79.0932C125.171 79.2984 125.246 79.4967 125.315 79.7019C124.343 78.7992 123.516 77.7461 122.887 76.5835C122.477 75.8313 122.148 75.0312 121.909 74.2106C121.724 73.5814 121.533 72.795 120.746 72.6856C120.35 72.6309 120.035 72.8224 119.844 73.1028C119.454 73.1233 119.078 73.3626 118.886 73.7524C118.832 73.8618 118.797 73.9781 118.77 74.0943C118.627 74.0328 118.442 74.0465 118.332 74.2243C117.991 74.7508 117.888 75.3321 117.902 75.927C117.785 75.9749 117.69 76.0638 117.669 76.2211C117.3 79.1274 118.271 82.0816 120.199 84.2426C121.102 85.2547 122.36 86.3283 123.728 86.6839C125.417 87.1147 126.798 85.918 127.893 84.7897C127.92 84.7555 127.94 84.7213 127.954 84.6871C128.146 84.7076 128.351 84.605 128.358 84.3657C128.447 81.7671 127.722 79.2095 126.245 77.0896H126.251Z" fill="#9E6C52"/>
<path d="M119.865 73.2465C119.811 73.2738 119.776 73.3422 119.79 73.4037C120.228 75.6536 121.213 77.7872 122.628 79.5857C122.676 79.6472 122.772 79.6541 122.833 79.6131C122.895 79.5652 122.908 79.4695 122.854 79.4079C121.466 77.6504 120.501 75.551 120.071 73.349C120.057 73.267 119.982 73.2191 119.9 73.2328C119.886 73.2328 119.872 73.2396 119.859 73.2465H119.865Z" fill="#87553E"/>
<path d="M118.84 74.4364C118.785 74.4638 118.751 74.5253 118.765 74.5937C119.168 76.6931 120.126 78.6489 121.534 80.2559C121.589 80.3175 121.678 80.3243 121.739 80.2696C121.801 80.2149 121.808 80.126 121.753 80.0645C120.379 78.4985 119.449 76.5837 119.052 74.539C119.038 74.4638 118.963 74.4091 118.881 74.4228C118.867 74.4228 118.854 74.4296 118.84 74.4364Z" fill="#87553E"/>
<path d="M117.998 76.3715C117.943 76.4057 117.916 76.4741 117.936 76.5424C118.47 78.1905 119.291 79.7086 120.371 81.0558C120.419 81.1174 120.508 81.131 120.576 81.0763C120.638 81.0285 120.651 80.9327 120.597 80.8712C119.537 79.5514 118.737 78.0606 118.21 76.4467C118.183 76.3715 118.101 76.3305 118.025 76.351C118.012 76.351 118.005 76.3578 117.998 76.3646V76.3715Z" fill="#87553E"/>
<path d="M148.046 86.1028C143.895 87.108 140.38 90.2059 137.535 93.3926C134.69 96.5793 132.14 100.094 128.761 102.7C128.255 99.1505 127.934 95.5809 128.194 92.0044C128.228 91.512 127.448 91.3479 126.977 91.2043C125.096 90.6367 122.956 90.4452 121.253 91.4231C120.473 96.4493 120.111 101.626 120.295 106.707C120.336 107.917 120.412 109.142 120.754 110.311C121.096 111.473 121.725 112.588 122.709 113.306C124.166 114.373 126.163 114.407 127.913 113.969C128.85 113.737 129.76 113.388 130.608 112.93C132.324 112.007 133.774 110.66 135.203 109.333C139.094 105.709 142.992 102.084 146.883 98.4598C146.794 97.0238 146.911 95.5056 147.068 94.0832C147.362 91.4915 147.759 88.6946 148.053 86.1028H148.046Z" fill="#F3DEC1"/>
<path d="M190.875 115.474C193.665 106.502 194.971 97.9263 195.976 93.1189L190.123 93.3651C190.123 93.3651 189.624 99.8137 184.392 111.59C180.911 106.208 177.67 100.217 175.783 94.3498L161.682 84.4136C161.682 84.4136 167.084 99.6565 179.092 117.375C182.218 121.991 187.948 124.87 190.868 115.474H190.875Z" fill="#9E6C52"/>
<path d="M190.136 93.3036C190.075 93.5361 190.239 93.6934 190.423 93.7276C190.423 93.7618 190.437 93.8028 190.458 93.8439C191.169 95.2457 192.133 96.8049 193.87 96.8938C195.279 96.969 196.804 96.3125 197.966 95.6219C200.455 94.1379 202.261 91.6077 202.774 88.7219C202.801 88.5714 202.733 88.4483 202.637 88.3731C202.828 87.8055 202.897 87.2174 202.733 86.6156C202.678 86.4173 202.507 86.3421 202.35 86.3626C202.357 86.2395 202.357 86.1233 202.343 86.0002C202.274 85.5693 201.987 85.2274 201.625 85.0907C201.522 84.7556 201.283 84.4889 200.886 84.4205C200.107 84.2906 199.683 84.9812 199.32 85.5283C198.848 86.2464 198.294 86.9028 197.679 87.5046C196.728 88.4278 195.627 89.1869 194.431 89.7613C194.561 89.5903 194.691 89.4194 194.814 89.2484C195.197 88.7355 195.669 88.2295 195.983 87.6687C196.209 87.2584 196.161 86.6567 195.648 86.4583C195.149 86.26 194.663 86.725 194.314 86.9986C192.277 88.5783 190.813 90.8076 190.129 93.3105L190.136 93.3036Z" fill="#9E6C52"/>
<path d="M201.557 85.2342C201.605 85.2821 201.619 85.3505 201.584 85.4052C200.497 87.4225 198.917 89.1663 197.03 90.4588C196.962 90.5067 196.873 90.4793 196.825 90.4178C196.777 90.3494 196.798 90.2605 196.866 90.2126C198.719 88.9475 200.258 87.231 201.331 85.2616C201.372 85.1932 201.461 85.1658 201.53 85.2C201.543 85.2 201.55 85.2137 201.564 85.2205L201.557 85.2342Z" fill="#87553E"/>
<path d="M202.179 86.6702C202.227 86.7113 202.24 86.7865 202.206 86.8412C201.194 88.7218 199.697 90.3083 197.878 91.423C197.809 91.464 197.72 91.4435 197.679 91.3751C197.638 91.3067 197.659 91.2178 197.727 91.1768C199.505 90.0895 200.969 88.544 201.953 86.7044C201.994 86.6361 202.076 86.6087 202.152 86.6429C202.165 86.6429 202.172 86.6566 202.186 86.6634L202.179 86.6702Z" fill="#87553E"/>
<path d="M202.412 88.7698C202.453 88.8177 202.46 88.8929 202.419 88.9476C201.421 90.3563 200.183 91.5667 198.747 92.5309C198.678 92.5788 198.59 92.5651 198.542 92.4899C198.494 92.4215 198.514 92.3326 198.583 92.2848C199.991 91.3411 201.202 90.158 202.18 88.7766C202.228 88.7083 202.317 88.6946 202.385 88.7425C202.392 88.7425 202.405 88.7561 202.412 88.763V88.7698Z" fill="#87553E"/>
<path d="M169.368 86.1028C170.879 86.8071 172.589 87.4363 173.799 88.7493C175.222 90.3016 175.81 92.4215 176.466 94.4252C178.333 100.156 181.103 105.572 184.406 110.612C185.876 107.705 186.929 104.751 187.928 101.653C188.311 101.359 188.858 101.277 189.336 101.264C191.333 101.188 193.33 102.317 194.301 104.067C193.61 108.67 192.263 113.245 190.478 117.546C190.02 118.654 189.507 119.768 188.68 120.637C186.97 122.429 183.961 122.777 181.889 121.423C180.699 120.644 179.865 119.433 179.079 118.243C175.824 113.333 172.739 108.314 169.655 103.295C166.708 98.5009 169.341 91.7308 169.368 86.1028Z" fill="#F3DEC1"/>
<path d="M171.33 86.7455L163.938 84.3316C164.04 84.1196 164.156 83.9076 164.293 83.7093C164.567 83.299 164.902 82.916 165.059 82.451C165.216 81.986 165.141 81.391 164.731 81.1243C164.45 80.9465 164.088 80.9602 163.76 81.0217C162.891 81.1927 162.112 81.6646 161.257 81.9176C159.328 82.4852 157.27 81.8697 155.389 81.1585C154.863 80.9602 154.323 80.7482 153.755 80.755C153.187 80.755 152.586 81.0354 152.367 81.5551C152.134 82.1091 152.394 82.7382 152.647 83.2853C152.825 83.6682 153.003 84.0443 153.181 84.4273L146.014 86.7797C146.014 86.7797 143.949 112.574 142.602 140.462C142.602 140.462 152.23 145.283 174.79 140.516C172.342 131.059 171.316 86.7592 171.316 86.7592L171.33 86.7455Z" fill="#407BFF"/>
<path d="M155.881 87.3198C155.97 89.7748 156.052 92.223 156.141 94.678C156.278 98.5075 156.408 102.392 155.607 106.139" fill="#407BFF"/>
<path d="M155.881 87.3198C155.97 89.7748 156.052 92.223 156.141 94.678C156.278 98.5075 156.408 102.392 155.607 106.139" stroke="#6F5E68" stroke-width="0.683845" stroke-linecap="round" stroke-linejoin="round"/>
<path d="M162.426 87.1353C162.467 93.1394 163.048 100.204 163.992 106.132L162.426 87.1353Z" fill="#407BFF"/>
<path d="M162.426 87.1353C162.467 93.1394 163.048 100.204 163.992 106.132" stroke="#6F5E68" stroke-width="0.683845" stroke-linecap="round" stroke-linejoin="round"/>
<path d="M170.55 137.856C170.618 135.955 170.55 133.979 170.44 132.084C167.965 131.366 166.07 129.178 165.14 126.778C161.872 126.114 158.459 126.183 155.211 126.956C154.869 128.111 154.363 129.076 153.672 130.067C152.982 131.059 151.915 131.859 150.711 131.941C150.486 134.04 150.424 136.235 150.527 138.348C157.092 139.06 164.135 139.477 170.543 137.856H170.55Z" fill="#407BFF" stroke="#EAC598" stroke-width="0.341922" stroke-linecap="round" stroke-linejoin="round"/>
<path d="M170.141 64.9583C167.338 69.4101 161.614 70.8051 158.878 75.2775C158.283 76.2554 157.531 77.3495 156.246 77.329C155.062 77.3085 154.303 76.2485 153.695 75.3664C151.972 72.8772 150.618 70.135 149.646 67.2765C148.86 66.7636 148.429 65.7789 148.368 64.842C148.306 63.9051 148.696 62.9478 149.407 62.3255C149.045 61.3886 148.71 60.4312 148.675 59.426C148.641 58.4207 149.004 57.3471 149.838 56.7795C149.407 55.7469 149.797 54.4612 150.659 53.75C151.52 53.0388 152.854 52.9705 153.784 53.5859C155.076 52.1772 156.847 51.0078 158.707 50.5702C159.398 50.406 160.137 50.324 160.793 50.5838C161.45 50.8369 161.99 51.5207 161.874 52.2182C162.988 51.8558 164.185 51.5412 165.361 51.4592C166.537 51.3771 167.768 51.6164 168.692 52.355C169.608 53.0936 170.121 54.386 169.724 55.4938C170.504 55.7742 171.153 56.4581 171.454 57.224C171.755 57.9899 171.803 58.8378 171.762 59.6585C171.666 61.5117 171.14 63.3854 170.155 64.9514L170.141 64.9583Z" fill="#36303A"/>
<path d="M154.255 59.5284C157.435 53.702 168.616 55.692 169.485 60.3217C171.269 69.8545 169.915 73.766 167.269 76.0159C164.205 78.6213 162.202 78.2863 162.202 83.7638C161.046 86.677 156.594 87.0737 155.158 83.7638C155.247 76.5151 152.758 71.017 152.758 71.017C152.758 71.017 152.942 61.9287 154.255 59.5284Z" fill="#9E6C52"/>
<path d="M155.453 60.821C156.164 61.8467 157.142 62.4007 158.085 62.7015C159.091 63.0161 159.802 61.7168 159.002 61.033C159.002 61.033 164.52 64.3017 170.217 63.1666C170.217 63.1666 171.051 61.074 168.493 57.5864C166.852 55.3571 162.093 54.8031 158.031 55.5554C153.969 56.3076 152.204 58.0719 152.068 60.9851C151.938 63.8983 151.637 67.5363 151.637 67.5363L153.216 68.7399C155.692 67.0918 155.446 60.821 155.446 60.821H155.453Z" fill="#36303A"/>
<path d="M161.086 68.5142C161.086 68.9108 161.407 69.2322 161.804 69.2322C162.201 69.2322 162.522 68.9108 162.522 68.5142C162.522 68.1176 162.201 67.7961 161.804 67.7961C161.407 67.7961 161.086 68.1176 161.086 68.5142Z" fill="#1B1B28"/>
<path d="M161.805 68.3158C161.805 68.4594 161.921 68.5756 162.065 68.5756C162.208 68.5756 162.324 68.4594 162.324 68.3158C162.324 68.1722 162.208 68.0559 162.065 68.0559C161.921 68.0559 161.805 68.1722 161.805 68.3158Z" fill="white"/>
<path d="M166.633 68.5142C166.633 68.9108 166.954 69.2322 167.351 69.2322C167.747 69.2322 168.069 68.9108 168.069 68.5142C168.069 68.1176 167.747 67.7961 167.351 67.7961C166.954 67.7961 166.633 68.1176 166.633 68.5142Z" fill="#1B1B28"/>
<path d="M167.352 68.3158C167.352 68.4594 167.468 68.5756 167.611 68.5756C167.755 68.5756 167.871 68.4594 167.871 68.3158C167.871 68.1722 167.755 68.0559 167.611 68.0559C167.468 68.0559 167.352 68.1722 167.352 68.3158Z" fill="white"/>
<path d="M166.153 65.7036C167.056 65.0744 168.225 65.1155 169.073 65.8472C169.23 65.9839 169.258 66.2643 169.141 66.4421C169.018 66.6268 168.786 66.6541 168.622 66.5173C168.273 66.2164 167.828 66.0797 167.398 66.1139C167.179 66.1275 166.96 66.1891 166.762 66.2917C166.584 66.3806 166.413 66.5378 166.208 66.4216C166.16 66.3942 166.119 66.3532 166.085 66.3053C165.975 66.1412 165.982 65.8335 166.153 65.7104V65.7036Z" fill="#36303A"/>
<path d="M163.357 65.7036C162.324 65.0744 160.984 65.1155 160.013 65.8472C159.828 65.9839 159.801 66.2643 159.938 66.4421C160.081 66.6268 160.348 66.6541 160.532 66.5173C160.929 66.2164 161.442 66.0865 161.934 66.1207C162.187 66.1344 162.434 66.1959 162.666 66.2917C162.871 66.3806 163.07 66.531 163.302 66.4148C163.357 66.3874 163.405 66.3464 163.439 66.2985C163.569 66.1344 163.555 65.8267 163.364 65.7036H163.357Z" fill="#36303A"/>
<path d="M165.744 70.4563C165.785 70.4563 165.819 70.429 165.833 70.388C166.011 69.7793 165.806 69.5673 165.594 69.499C165.388 69.4306 165.135 69.4853 164.848 69.6631C164.807 69.6904 164.794 69.7451 164.821 69.793C164.848 69.834 164.91 69.8477 164.951 69.8204C165.183 69.6768 165.382 69.6289 165.539 69.6768C165.724 69.7383 165.765 69.9571 165.655 70.3332C165.641 70.3811 165.669 70.4358 165.717 70.4495C165.724 70.4495 165.737 70.4495 165.744 70.4495V70.4563Z" fill="#87553E"/>
<path d="M162.611 72.8633C162.611 73.9301 163.295 74.7985 164.136 74.7985C164.977 74.7985 165.661 73.9301 165.661 72.8633C165.661 71.7965 164.977 70.928 164.136 70.928C163.295 70.928 162.611 71.7965 162.611 72.8633Z" fill="#8E4136"/>
<path d="M162.666 73.3828C162.892 73.3213 163.138 73.2803 163.405 73.2803C164.355 73.2803 165.128 73.7384 165.128 74.3129C165.128 74.3197 165.128 74.3266 165.128 74.3334C164.861 74.6206 164.519 74.7916 164.143 74.7916C163.446 74.7916 162.851 74.1898 162.673 73.376L162.666 73.3828Z" fill="#C16B5B"/>
<path d="M164.137 70.928C164.493 70.928 164.821 71.0853 165.081 71.3451C164.91 71.5776 164.547 71.7349 164.123 71.7349C163.699 71.7349 163.351 71.5776 163.18 71.3588C163.44 71.0921 163.775 70.928 164.137 70.928Z" fill="white"/>
<path d="M150.31 71.229C151.267 72.371 152.779 72.6787 153.688 71.9197C154.598 71.1606 154.557 69.6151 153.593 68.4731C152.635 67.3311 151.124 67.0234 150.214 67.7824C149.305 68.5415 149.346 70.087 150.31 71.229Z" fill="#9E6C52"/>
<path d="M150.844 68.3432C151.254 68.1243 151.795 68.138 152.294 68.3705C152.547 68.4868 152.725 68.6304 152.848 68.8014C153.012 69.0339 153.06 69.3211 152.964 69.5604C152.882 69.7724 152.711 69.9092 152.567 70.0323C152.458 70.1212 152.355 70.2032 152.301 70.299C152.212 70.4494 152.232 70.6614 152.355 70.7982C152.472 70.9281 152.684 70.9691 152.841 70.8939C152.937 70.8529 153.046 70.8939 153.087 70.9828C153.128 71.0786 153.087 71.188 152.998 71.229C152.896 71.2769 152.786 71.2974 152.67 71.2974C152.444 71.2974 152.225 71.2085 152.075 71.0375C151.849 70.7845 151.808 70.3947 151.979 70.1007C152.068 69.9434 152.212 69.8271 152.335 69.7314C152.458 69.6288 152.574 69.5331 152.622 69.4168C152.67 69.3006 152.636 69.1364 152.547 69.0133C152.513 68.9586 152.458 68.9176 152.403 68.8697C152.219 68.8697 151.986 68.9244 151.87 69.0544C151.74 69.198 151.672 69.41 151.706 69.6015C151.719 69.704 151.651 69.7998 151.548 69.8134C151.542 69.8134 151.528 69.8134 151.521 69.8134C151.432 69.8134 151.35 69.7451 151.336 69.6562C151.289 69.3484 151.384 69.027 151.589 68.7945C151.672 68.7056 151.767 68.6509 151.87 68.603C151.562 68.521 151.254 68.5347 151.015 68.6646C150.721 68.8219 150.502 69.2185 150.653 69.5467C150.694 69.6425 150.653 69.7519 150.564 69.7929C150.468 69.834 150.359 69.7929 150.318 69.704C150.099 69.2322 150.338 68.603 150.844 68.3363V68.3432Z" fill="#87553E"/>
<path d="M196.797 25.9861C187.306 25.9861 179.605 33.6793 179.605 43.1779C179.605 49.5924 183.12 55.1794 188.324 58.1336C186.793 61.3408 184.276 64.0694 181.171 65.8064C185.452 65.273 189.289 63.0436 191.819 59.6312C193.392 60.1099 195.06 60.3629 196.79 60.3629C206.282 60.3629 213.982 52.6697 213.982 43.1711C213.982 33.6725 206.289 25.9792 196.79 25.9792L196.797 25.9861Z" fill="#4F7099"/>
<path d="M120.959 214.221C119.427 215.958 117.444 217.223 115.639 218.673C110.168 223.05 106.154 229.095 104.41 235.872H102.481C102.29 226.825 102.297 217.422 107.159 209.783C108.383 207.868 109.881 206.084 111.789 204.853C113.703 203.622 116.069 202.986 118.292 203.471C119.01 203.622 119.701 203.902 120.323 204.292C120.439 204.353 120.542 204.429 120.644 204.49C121.814 205.311 122.71 206.494 123.024 207.868C123.537 210.125 122.491 212.491 120.959 214.228V214.221Z" fill="#E37792"/>
<path d="M120.645 204.483C115.858 207.889 111.83 212.327 108.91 217.435C105.696 223.057 103.877 229.41 103.604 235.872H103.248C103.522 229.348 105.361 222.927 108.603 217.265C111.523 212.149 115.537 207.704 120.317 204.285C120.433 204.347 120.536 204.422 120.638 204.483H120.645Z" fill="#AA546A"/>
<path d="M103.651 235.954H100.799C98.7405 227.857 93.8305 220.123 87.3477 214.857C84.455 212.518 81.2067 210.569 78.7654 207.779C76.3104 204.982 74.7581 200.996 76.0847 197.529C76.7617 195.744 78.1294 194.39 79.8117 193.521C79.9279 193.46 80.0442 193.398 80.1604 193.343C82.2462 192.366 84.749 192.119 86.9921 192.687C91.2182 193.747 94.5417 197.057 96.9283 200.695C103.623 210.884 103.657 223.768 103.651 235.961V235.954Z" fill="#AA546A"/>
<path d="M102.331 235.954H101.968C100.395 219.719 92.2507 204.046 79.8115 193.514C79.9278 193.453 80.044 193.391 80.1603 193.337C92.6131 203.943 100.765 219.665 102.331 235.954Z" fill="#E37792"/>
<path d="M230.928 209.722C230.093 210.966 228.555 211.527 227.084 211.821C225.799 212.081 224.458 212.204 223.248 212.676C223.077 212.744 222.906 212.819 222.742 212.908C222.687 212.936 222.633 212.963 222.578 213.004C220.479 214.146 219.261 216.717 219.713 219.063C219.931 220.205 220.499 221.272 220.574 222.427C220.581 222.468 220.588 222.516 220.588 222.557C220.588 222.639 220.595 222.708 220.581 222.79C220.547 225.142 218.352 226.989 216.109 227.789C213.784 228.596 211.247 228.691 208.963 229.601C206.672 230.51 203.991 232.856 204.388 235.29H201.003C202.295 233.396 202.856 231.208 202.712 228.931C202.521 225.696 199.409 223.111 199.478 219.877C199.512 218.249 200.394 216.738 201.611 215.657C201.714 215.562 201.81 215.48 201.919 215.391C201.933 215.377 201.946 215.37 201.96 215.356C203.355 214.269 205.072 213.654 206.802 213.236C207.636 213.038 208.491 212.86 209.305 212.559C209.414 212.518 209.53 212.471 209.633 212.43C209.763 212.375 209.899 212.306 210.029 212.245C211.035 211.725 211.917 210.823 212.074 209.708C212.354 207.738 210.399 206.179 209.893 204.251C209.407 202.357 210.467 200.298 212.074 199.19C213.264 198.363 214.707 197.987 216.163 197.864C216.287 197.857 216.403 197.843 216.519 197.836C216.902 197.823 217.285 197.816 217.675 197.829C219.993 197.898 222.291 198.472 224.397 199.464C224.506 199.519 224.623 199.573 224.725 199.628C226.325 200.421 227.803 201.468 229.074 202.726C229.341 202.993 229.601 203.259 229.84 203.546C229.936 203.656 230.018 203.758 230.114 203.875C230.606 204.504 231.017 205.194 231.283 205.947C231.707 207.191 231.673 208.641 230.941 209.742L230.928 209.722Z" fill="#6B8383"/>
<path d="M221.374 203.963C219.473 206.521 217.647 209.133 215.883 211.793C218.325 212.265 220.78 212.566 223.255 212.676C223.084 212.744 222.913 212.819 222.749 212.908C222.694 212.935 222.64 212.963 222.585 213.004C220.267 212.874 217.962 212.573 215.671 212.122C213.51 215.39 211.459 218.734 209.517 222.14C213.182 222.468 216.888 222.571 220.574 222.427C220.581 222.468 220.588 222.516 220.588 222.557C220.588 222.639 220.595 222.708 220.581 222.79C219.48 222.831 218.366 222.851 217.251 222.851C214.598 222.851 211.951 222.728 209.311 222.489C206.945 226.66 204.737 230.927 202.712 235.29H202.309C203.663 232.37 205.099 229.505 206.603 226.667C204.935 224.869 203.601 222.489 202.637 219.582C202.213 218.297 201.885 216.984 201.598 215.657C201.7 215.561 201.796 215.479 201.905 215.39C202.193 216.765 202.535 218.14 202.972 219.473C203.902 222.277 205.181 224.581 206.788 226.325C208.395 223.316 210.084 220.362 211.855 217.449C210.857 215.903 209.995 214.255 209.291 212.559C209.4 212.518 209.517 212.47 209.619 212.429C210.31 214.05 211.117 215.616 212.067 217.107C214.078 213.838 216.177 210.638 218.386 207.506C216.916 204.497 216.157 201.194 216.15 197.864C216.273 197.857 216.389 197.843 216.505 197.836C216.505 201.057 217.23 204.237 218.619 207.164C220.472 204.545 222.393 201.98 224.377 199.464C224.486 199.518 224.602 199.573 224.705 199.628C223.658 200.948 222.633 202.281 221.621 203.635C224.356 203.84 227.098 203.813 229.827 203.539C229.922 203.649 230.005 203.751 230.1 203.868C228.466 204.039 226.818 204.128 225.177 204.128C223.905 204.128 222.64 204.08 221.368 203.977L221.374 203.963Z" fill="#4A6D6C"/>
</g>
<defs>
<clipPath id="clip0_174_55">
<rect width="303.907" height="237" fill="white"/>
</clipPath>
</defs>
</svg>
