<svg width="20" height="15" viewBox="0 0 20 15" fill="none" xmlns="http://www.w3.org/2000/svg">
<path d="M16.1503 0.282227C16.9435 0.282227 17.7042 0.580547 18.2651 1.11156C18.826 1.64257 19.1411 2.36278 19.1411 3.11375V12.1746C19.1411 12.9256 18.826 13.6458 18.2651 14.1768C17.7042 14.7078 16.9435 15.0062 16.1503 15.0062H2.9908C2.19759 15.0062 1.43687 14.7078 0.875984 14.1768C0.315101 13.6458 0 12.9256 0 12.1746V3.11375C0 2.36278 0.315101 1.64257 0.875984 1.11156C1.43687 0.580547 2.19759 0.282227 2.9908 0.282227H16.1503ZM17.9448 4.76849L9.87442 9.26495C9.79812 9.30737 9.71283 9.33322 9.62471 9.34067C9.53658 9.34811 9.44781 9.33695 9.36479 9.30799L9.26669 9.26495L1.19632 4.77076V12.1746C1.19632 12.6252 1.38538 13.0573 1.72191 13.3759C2.05844 13.6946 2.51487 13.8735 2.9908 13.8735H16.1503C16.6262 13.8735 17.0827 13.6946 17.4192 13.3759C17.7557 13.0573 17.9448 12.6252 17.9448 12.1746V4.76849ZM16.1503 1.41484H2.9908C2.51487 1.41484 2.05844 1.59383 1.72191 1.91244C1.38538 2.23104 1.19632 2.66317 1.19632 3.11375V3.4558L9.57055 8.11989L17.9448 3.45353V3.11375C17.9448 2.66317 17.7557 2.23104 17.4192 1.91244C17.0827 1.59383 16.6262 1.41484 16.1503 1.41484Z" fill="#2A4566"/>
</svg>
