<svg width="15" height="16" viewBox="0 0 15 16" fill="none" xmlns="http://www.w3.org/2000/svg">
<path d="M13.0256 15.1963H12.9294C1.80558 14.5564 0.22617 5.16708 0.00539197 2.30158C-0.0123975 2.07878 0.0139336 1.85466 0.0828764 1.64206C0.151819 1.42947 0.262018 1.23257 0.40716 1.06264C0.552302 0.892724 0.729534 0.753123 0.928701 0.65184C1.12787 0.550557 1.34505 0.489583 1.56782 0.472413H4.68701C4.91376 0.472193 5.13536 0.540092 5.32309 0.667313C5.51083 0.794535 5.65605 0.975217 5.73995 1.18596L6.60041 3.30394C6.68326 3.50981 6.70382 3.73551 6.65954 3.95297C6.61526 4.17044 6.50808 4.3701 6.35133 4.52716L5.14555 5.74471C5.3339 6.81545 5.84648 7.80247 6.61394 8.57225C7.38141 9.34202 8.36671 9.85739 9.43656 10.0486L10.665 8.83107C10.8243 8.67599 11.0258 8.57128 11.2443 8.52999C11.4627 8.4887 11.6885 8.51266 11.8934 8.59889L14.0276 9.45401C14.2351 9.54059 14.4121 9.687 14.5361 9.87459C14.6601 10.0622 14.7255 10.2824 14.7239 10.5073V13.4974C14.7239 13.948 14.545 14.3801 14.2265 14.6987C13.908 15.0173 13.476 15.1963 13.0256 15.1963ZM1.70368 1.60502C1.55354 1.60502 1.40955 1.66469 1.30339 1.77089C1.19723 1.87709 1.13758 2.02113 1.13758 2.17133V2.21663C1.39799 5.56916 3.06797 13.4974 12.9916 14.0637C13.066 14.0683 13.1406 14.0582 13.211 14.0339C13.2815 14.0096 13.3464 13.9717 13.4022 13.9222C13.4579 13.8727 13.5034 13.8128 13.5359 13.7457C13.5684 13.6786 13.5874 13.6058 13.5917 13.5314V10.5073L11.4575 9.65221L9.83283 11.2662L9.5611 11.2322C4.63606 10.6149 3.96807 5.68808 3.96807 5.63711L3.9341 5.36529L5.54181 3.73999L4.69267 1.60502H1.70368Z" fill="#2A4566"/>
</svg>
