<svg width="14" height="13" viewBox="0 0 14 13" fill="none" xmlns="http://www.w3.org/2000/svg">
<path d="M12.3434 12.9448C12.5852 12.9451 12.8172 12.8489 12.9881 12.678C13.1593 12.5068 13.2552 12.275 13.2552 12.0331L13.2549 1.39478C13.2549 1.33468 13.2489 1.27431 13.2369 1.21525C13.2317 1.18964 13.2223 1.16612 13.215 1.14156C13.2014 1.07727 13.1765 1.01586 13.1407 0.960725C13.1277 0.936683 13.117 0.911334 13.1013 0.888338C13.0346 0.788773 12.9489 0.70254 12.8491 0.63564C12.8258 0.620222 12.801 0.609507 12.7767 0.596179C12.7216 0.560377 12.6602 0.535552 12.5961 0.522227C12.5713 0.515171 12.5478 0.505243 12.5225 0.500277C12.4634 0.488256 12.4028 0.48251 12.3424 0.482241L1.70439 0.482242C1.4624 0.482242 1.23009 0.578148 1.05918 0.749055C0.888015 0.920223 0.791589 1.15201 0.791589 1.394C0.791589 1.63599 0.887754 1.86804 1.05918 2.03895C1.23035 2.21011 1.46214 2.30602 1.70439 2.30576L10.142 2.30576L2.38903 10.0587C2.03285 10.4149 2.03311 10.9921 2.38903 11.3481C2.74522 11.7042 3.32248 11.7045 3.67867 11.3483L11.4316 3.59539L11.4316 12.033C11.4316 12.2749 11.5275 12.5067 11.6984 12.6776C11.8696 12.8488 12.1015 12.9448 12.3434 12.9448Z" fill="white"/>
</svg>
