<svg width="146" height="50" viewBox="0 0 146 50" fill="none" xmlns="http://www.w3.org/2000/svg">
<path d="M0 39.5362V17.8479C0 17.1642 0.568676 16.6118 1.24859 16.6835C7.44999 17.3369 10.0426 21.1269 10.0426 25.7936V40.5933C10.1704 42.4157 9.57925 43.6053 15.5958 47.7715C15.9234 47.9984 15.7685 48.5217 15.37 48.5217H8.56266C0 47.676 0.211424 42.1437 0 39.5362Z" fill="#2A4566"/>
<circle cx="6.02533" cy="5.91987" r="5.91987" fill="#E37792"/>
<path d="M33.4053 39.5362V17.8479C33.4053 17.1642 32.8366 16.6118 32.1567 16.6835C25.9553 17.3369 23.3626 21.1269 23.3626 25.7936V40.5933C23.2349 42.4157 23.826 43.6053 17.8095 47.7715C17.4819 47.9984 17.6368 48.5217 18.0353 48.5217H24.8426C33.4053 47.676 33.1938 42.1437 33.4053 39.5362Z" fill="#2A4566"/>
<circle cx="5.91987" cy="5.91987" r="5.91987" transform="matrix(-1 0 0 1 33.2998 0)" fill="#E37792"/>
<path d="M44.7509 33.7378C44.8024 26.4231 44.8539 20.9114 44.8539 17.254C44.8539 16.0692 45.2145 15.142 45.9871 14.4724C46.7083 13.8542 47.7386 13.4936 49.0263 13.4936C50.6747 13.4936 51.808 13.8542 52.4776 14.5239C53.1473 15.245 53.5079 16.3783 53.5079 17.9237C53.4564 20.1902 53.4564 25.3414 53.4564 33.4803C53.4564 35.9013 53.9715 37.7557 55.1048 38.992C56.1865 40.2798 57.7319 40.898 59.7923 40.898C61.6983 40.898 63.1406 40.2283 64.1193 38.786C65.0465 37.3952 65.5617 35.5922 65.6647 33.4287C65.7677 33.0682 65.8192 30.338 65.7677 25.2384C65.6647 20.1902 65.6647 17.6146 65.6647 17.5116C65.6647 14.833 67.107 13.4421 70.0947 13.4421C71.5886 13.4421 72.6703 13.8542 73.3915 14.6269C74.0611 15.3996 74.4217 16.6359 74.4217 18.3358L74.5247 32.6561C74.4732 37.4467 73.1339 41.3616 70.5068 44.3493C67.8797 47.337 64.2739 48.8308 59.6378 48.8308C55.1048 48.8308 51.4989 47.543 48.8203 44.8644C46.0902 42.1858 44.7509 38.4769 44.7509 33.7378ZM80.4587 31.5743L80.4071 28.7927C80.3041 25.908 81.7465 24.4657 84.6311 24.4657C86.7946 24.4657 88.0824 25.3414 88.3915 27.0928L88.546 28.02C88.9581 26.9898 89.8338 26.1141 91.1216 25.3929C92.3579 24.7232 93.6972 24.3627 95.0365 24.3627C97.9727 24.3627 100.239 25.2899 101.888 27.0413C103.484 28.8442 104.309 31.4198 104.309 34.7681C104.309 35.5922 104.257 36.6225 104.257 37.8588C104.257 39.0951 104.257 40.1768 104.257 41.0525V45.1219C104.257 47.4915 102.712 48.6763 99.7241 48.6763C98.5393 48.6763 97.5606 48.4187 96.8394 47.8006C96.0668 47.2339 95.7062 46.3582 95.7062 45.1735C95.7062 44.4523 95.7062 43.1645 95.7577 41.2586C95.7577 39.3526 95.8092 37.9618 95.8092 37.0346C95.8092 35.2832 95.6032 33.9439 95.1911 32.9651C94.779 32.0379 94.0063 31.5228 92.8215 31.4713C91.1731 31.4713 90.0399 31.9864 89.5248 33.0166C88.9581 34.0984 88.7006 35.8498 88.7006 38.3224L88.7521 45.3795C88.7521 46.5643 88.34 47.44 87.5158 47.9551C86.6916 48.4702 85.7644 48.7278 84.6826 48.7278C83.2403 48.7278 82.1586 48.5217 81.4374 48.0066C80.6647 47.4915 80.3041 46.5643 80.3041 45.225C80.3041 44.1432 80.3041 42.0312 80.4071 38.889C80.4587 35.7983 80.4587 33.3257 80.4587 31.5743ZM109.887 27.917C109.887 26.7322 110.35 25.8565 111.175 25.2899C111.999 24.7232 112.926 24.4142 114.008 24.4142C116.892 24.4142 118.335 25.5474 118.386 27.8139V33.5318V39.1981L118.438 45.1219C118.438 46.3582 118.077 47.2339 117.253 47.8521C116.429 48.4702 115.399 48.7793 114.162 48.7793C112.926 48.7793 111.947 48.5217 111.123 48.0066C110.299 47.4915 109.887 46.6673 109.887 45.6371V27.917ZM113.905 20.2417C112.359 20.2417 111.175 19.7266 110.299 18.6448C109.423 17.6146 109.114 16.3268 109.423 14.7814C109.629 13.6482 110.196 12.721 111.226 12.0513C112.256 11.4332 113.287 11.0726 114.368 11.0726C115.862 11.0726 117.047 11.5362 117.871 12.4119C118.695 13.3391 119.159 14.4209 119.159 15.7087C119.159 17.2025 118.644 18.3358 117.665 19.1084C116.635 19.8811 115.399 20.2417 113.905 20.2417ZM133.495 24.3111C136.482 24.3111 138.8 24.6717 140.5 25.3929C141.84 26.011 142.509 26.8867 142.509 28.123C142.509 30.4926 141.427 31.6773 139.367 31.6773C138.8 31.6773 137.873 31.5228 136.585 31.1622C135.246 30.8532 134.319 30.6471 133.752 30.6471C131.898 30.6471 130.97 31.1622 130.97 32.0894C130.97 32.244 130.97 32.3985 131.022 32.5015C131.074 32.6046 131.177 32.7076 131.331 32.8106C131.434 32.9136 131.589 32.9651 131.692 33.0166C131.795 33.0682 131.949 33.1197 132.207 33.1712C132.413 33.2227 132.619 33.2742 132.773 33.2742C132.928 33.2742 133.186 33.3257 133.495 33.3257C133.804 33.3772 134.061 33.4287 134.267 33.4287C137.203 33.8408 139.47 34.6135 141.015 35.7468C142.561 36.88 143.333 38.5799 143.333 40.7949C143.333 43.3705 142.406 45.431 140.603 46.8733C138.749 48.3157 136.122 49.0368 132.722 49.0368C130.043 49.0368 127.828 48.6763 126.025 47.9036C124.171 47.1824 123.295 46.2037 123.295 45.0704C123.295 42.4948 124.325 41.207 126.489 41.207C127.313 41.207 128.446 41.4131 129.837 41.8252C131.177 42.2373 132.464 42.3918 133.598 42.3918C134.988 42.3918 135.71 41.9282 135.71 41.001C135.71 40.5374 135.452 40.2283 134.937 40.0223C134.422 39.8162 133.392 39.6102 131.898 39.3526C126.231 38.5284 123.398 36.2619 123.398 32.553C123.398 30.1835 124.377 28.1745 126.386 26.6292C128.343 25.0838 130.713 24.3111 133.495 24.3111Z" fill="#2A4566"/>
</svg>
