<svg width="47" height="47" viewBox="0 0 47 47" fill="none" xmlns="http://www.w3.org/2000/svg">
<rect width="47" height="47" rx="10" fill="white"/>
<path d="M13 34.1836V19.7248C13 19.269 13.3791 18.9007 13.8324 18.9485C17.9667 19.3841 19.6951 21.9108 19.6951 25.0219V34.8884C19.7803 36.1033 19.3862 36.8964 23.3972 39.6739C23.6156 39.8251 23.5123 40.174 23.2467 40.174H18.7084C13 39.6102 13.1409 35.922 13 34.1836Z" fill="#2A4566"/>
<circle cx="17.0169" cy="11.7726" r="3.94658" fill="#E37792"/>
<path d="M35.2695 34.1836V19.7248C35.2695 19.269 34.8904 18.9007 34.4371 18.9485C30.3029 19.3841 28.5744 21.9108 28.5744 25.0219V34.8884C28.4893 36.1033 28.8834 36.8964 24.8723 39.6739C24.6539 39.8251 24.7572 40.174 25.0229 40.174H29.5611C35.2695 39.6102 35.1286 35.922 35.2695 34.1836Z" fill="#2A4566"/>
<circle cx="3.94658" cy="3.94658" r="3.94658" transform="matrix(-1 0 0 1 35.1992 7.82605)" fill="#E37792"/>
</svg>
