<svg width="212" height="199" viewBox="0 0 212 199" fill="none" xmlns="http://www.w3.org/2000/svg">
<path d="M112.907 185.036C107.798 183.498 99.1984 180.908 92.9388 173.028C81.559 158.702 85.3039 136.191 93.2143 121.856C100.009 109.545 112.614 101.528 137.826 85.4928C161.569 70.3913 169.683 68.6419 171.691 59.4494C174.554 46.3441 160.959 36.64 166.597 21.8511C167.274 20.0763 169.598 13.9815 175.171 11.6756C184.712 7.72875 197.08 17.6574 202.874 24.9891C208.464 32.0615 214.497 45.0159 210.017 55.5119C206.771 63.1168 200.764 62.9713 199.51 69.9617C198.248 76.9954 203.949 79.2641 206.617 90.8267C207.683 95.4462 209.822 104.718 205.744 112.712C200.471 123.049 189.577 121.891 187.616 130.48C186.2 136.686 191.424 139.319 191.328 146.5C191.201 155.955 181.991 162.91 174.25 168.596C165.134 175.292 140.541 193.356 112.907 185.035L112.907 185.036Z" fill="url(#paint0_linear_266_615)"/>
<g style="mix-blend-mode:screen" opacity="0.16">
<path d="M178.836 15.6812C173.767 19.4462 189.276 34.9858 185.726 56.2658C181.907 79.1619 158.353 94.7356 147.468 101.933C128.896 114.212 120.75 111.997 108.979 125.54C104.321 130.9 94.6153 142.067 96.225 157.077C96.3748 158.472 98.274 173.995 110.55 180.976C124.475 188.895 141.162 179.801 155.54 171.967C164.229 167.233 181.585 157.776 179.994 148.047C179.021 142.1 171.191 137.42 164.838 136.199C155.769 134.455 148.464 139.515 147.601 137.98C146.823 136.599 152.002 131.164 159.211 127.029C173.63 118.758 181.431 124.144 192.091 116.537C193.384 115.615 203.515 108.161 203.368 97.2953C203.283 91.0279 199.776 83.4632 194.66 82.3486C188.875 81.0885 183.53 88.623 182.157 87.4372C180.845 86.3032 184.935 78.7261 190.074 71.8255C197.625 61.6864 201.149 61.458 203.862 55.1055C208.002 45.4129 204.238 35.547 203.677 34.1367C198.416 20.9199 183.17 12.4643 178.835 15.6836L178.836 15.6812Z" fill="white"/>
</g>
<path d="M93.9819 188.095C98.2546 186.451 105.447 183.685 110.297 176.541C119.113 163.554 114.46 144.529 106.768 132.77C100.162 122.669 88.8586 116.616 66.2534 104.508C44.9637 93.1052 37.9078 92.1276 35.5972 84.3903C32.304 73.3595 43.3129 64.1848 37.5368 51.8907C36.8437 50.4153 34.4625 45.3485 29.5448 43.7323C21.1268 40.9658 11.1828 50.2528 6.69513 56.8979C2.36734 63.3078 -1.96199 74.7791 2.54741 83.4746C5.8142 89.7746 10.9453 89.2652 12.4681 95.1673C14.0002 101.105 9.26805 103.412 7.72973 113.476C7.11502 117.498 5.88095 125.569 9.88509 132.148C15.0627 140.655 24.3105 138.968 26.5412 146.192C28.1524 151.412 23.8518 154 24.3959 160.139C25.1131 168.221 33.4411 173.583 40.431 177.954C48.6621 183.101 70.8699 196.985 93.9819 188.096V188.095Z" fill="url(#paint1_linear_266_615)"/>
<g style="mix-blend-mode:screen" opacity="0.16">
<path d="M26.6653 47.3936C31.2461 50.2908 18.9737 64.5811 23.3814 82.5637C28.1229 101.912 49.2814 113.731 59.0585 119.194C75.7409 128.513 82.5687 126.097 93.5123 136.932C97.844 141.22 106.867 150.154 106.456 163.103C106.418 164.305 105.791 177.711 95.7352 184.471C84.329 192.138 69.4642 185.424 56.6563 179.641C48.9166 176.145 33.4558 169.163 34.1915 160.736C34.6409 155.585 41.0395 151.079 46.398 149.627C54.0461 147.554 60.6224 151.417 61.2627 150.049C61.8394 148.817 57.0583 144.497 50.6233 141.42C37.7517 135.265 31.423 140.374 21.8113 134.547C20.6463 133.841 11.4963 128.111 10.9235 118.803C10.5929 113.435 13.1076 106.736 17.4128 105.455C22.2824 104.006 27.3413 110.112 28.4395 109.01C29.4897 107.955 25.5018 101.733 20.6602 96.1566C13.5461 87.9642 10.516 87.9943 7.78554 82.7309C3.61997 74.7017 6.20531 66.0185 6.59493 64.7754C10.2459 53.1292 22.7496 44.9174 26.666 47.3943L26.6653 47.3936Z" fill="white"/>
</g>
<path d="M133.674 185.678C131.525 184.099 127.906 181.441 126.281 176.681C123.325 168.028 128.873 158.043 135.01 152.609C140.282 147.942 147.57 146.271 162.147 142.928C175.875 139.779 179.993 140.311 182.485 136.314C186.036 130.616 181.26 123.769 186.403 117.742C187.02 117.019 189.139 114.534 192.154 114.38C197.314 114.114 201.474 120.861 202.973 125.285C204.419 129.552 205.086 136.667 201.21 140.865C198.402 143.907 195.595 142.834 193.83 145.919C192.053 149.023 194.358 151.046 193.673 156.941C193.399 159.296 192.849 164.023 189.583 167.11C185.361 171.1 180.421 168.733 178.054 172.454C176.343 175.142 178.363 177.256 177.111 180.624C175.462 185.059 169.952 186.798 165.349 188.184C159.928 189.816 145.3 194.219 133.674 185.678H133.674Z" fill="url(#paint2_linear_266_615)"/>
<g style="mix-blend-mode:screen" opacity="0.16">
<path d="M193.209 116.879C190.187 117.807 194.885 127.723 189.636 137.159C183.987 147.312 170.269 150.714 163.93 152.287C153.113 154.971 149.646 152.565 141.823 156.98C138.727 158.728 132.275 162.368 130.512 169.712C130.348 170.394 128.634 178.029 133.247 183.37C138.479 189.43 147.872 187.933 155.966 186.644C160.856 185.864 170.625 184.308 171.51 179.457C172.051 176.491 169.148 172.977 166.358 171.339C162.377 169.002 158.084 170.166 157.935 169.298C157.8 168.517 161.155 166.821 165.247 166.077C173.433 164.589 176.205 168.431 182.507 166.628C183.271 166.41 189.299 164.59 191.056 159.444C192.069 156.476 191.688 152.324 189.464 150.944C186.949 149.383 183.164 152.041 182.716 151.252C182.289 150.498 185.489 147.611 189.071 145.218C194.334 141.701 196.033 142.183 198.38 139.642C201.959 135.765 201.843 130.486 201.816 129.728C201.557 122.62 195.792 116.085 193.208 116.878L193.209 116.879Z" fill="white"/>
</g>
<path d="M103.847 22.4289C103.847 22.4289 90.0433 32.8862 91.8153 45.339C93.5872 57.791 111.892 64.0096 129.714 52.6389C147.536 41.2691 133.63 33.3305 133.63 33.3305C133.63 33.3305 109.647 48.2826 103.848 22.4289H103.847Z" fill="url(#paint3_linear_266_615)"/>
<path d="M148.89 194.08C148.89 194.08 140.211 197.09 139.27 197.805C138.329 198.519 147.348 198.413 150.272 198.413C153.196 198.413 152.308 194.681 152.308 194.681C152.308 194.681 152.099 193.6 148.89 194.08Z" fill="url(#paint4_linear_266_615)"/>
<path d="M148.59 190.773L149.114 193.927C149.213 194.524 149.731 194.962 150.339 194.962C150.954 194.962 151.476 194.513 151.566 193.905L151.958 191.261L148.59 190.774V190.773Z" fill="url(#paint5_linear_266_615)"/>
<path d="M106.078 189.822C106.078 189.822 94.5744 195.633 94.5977 196.001C94.621 196.368 105.924 195.639 107.451 194.518C108.977 193.396 109.075 189.076 106.078 189.822Z" fill="url(#paint6_linear_266_615)"/>
<path d="M109.324 187.077L107.223 191.352C107.029 191.744 106.623 191.986 106.186 191.969C105.505 191.944 105.009 191.318 105.14 190.651L106.076 185.924L109.324 187.077Z" fill="url(#paint7_linear_266_615)"/>
<path d="M128.87 104.534C123.596 115.624 118.183 128.91 113.612 144.238C109.04 159.566 106.286 173.666 104.621 185.889C104.466 187.022 105.26 188.064 106.396 188.222C107.046 188.314 107.696 188.404 108.346 188.496C109.035 188.592 109.726 188.343 110.188 187.824C113.447 184.164 117.342 178.71 119.417 171.392C121.36 164.544 119.923 162.358 121.751 156.028C124.249 147.375 128.408 146.338 135.571 135.509C140.841 127.543 148.705 115.656 144.685 109.156C144.011 108.065 140.984 103.863 128.871 104.534L128.87 104.534Z" fill="url(#paint8_linear_266_615)"/>
<path d="M141.943 114.958C144.564 127.623 146.743 142.271 147.678 158.592C148.314 169.683 148.253 180.588 147.815 190.119C147.757 191.372 148.671 192.457 149.918 192.616C150.224 192.656 150.528 192.695 150.837 192.732C151.803 192.845 152.748 192.376 153.223 191.53C155.572 187.347 158.256 180.922 158.617 173.949C158.839 169.646 158.12 167.959 158.086 162.934C158.035 155.593 159.519 151.752 161.551 142.995C165.217 127.196 167.049 119.296 164.139 115.805C163.069 114.522 158.579 110.116 141.943 114.958Z" fill="url(#paint9_linear_266_615)"/>
<path style="mix-blend-mode:multiply" opacity="0.3" d="M144.687 109.156C144.195 108.362 142.451 105.918 136.86 104.908C137.722 116.907 134.862 124.61 131.722 129.63C126.763 137.557 121.121 138.797 117.359 148.309C114.339 155.942 116.229 159.548 114.909 170.901C114.452 174.831 113.58 179.94 111.777 185.947C114.637 182.386 117.672 177.553 119.419 171.393C121.362 164.544 119.925 162.359 121.753 156.028C124.251 147.376 128.41 146.339 135.573 135.51C140.843 127.544 148.707 115.657 144.687 109.156H144.687Z" fill="url(#paint10_linear_266_615)"/>
<path d="M130.895 34.3105C134.002 32.4018 138.12 32.812 146.354 33.6317C157.498 34.7417 169.18 35.799 175.672 43.6633C186.387 56.6416 178.423 80.287 176.663 85.5141C173.41 95.1718 169.954 97.7517 169.56 106.82C169.103 117.33 173.357 122.801 169.866 126.818C167.383 129.676 164.45 127.805 152.362 129.949C141.947 131.798 141.988 133.567 136.521 133.173C134.143 133.002 129.484 131.224 120.167 127.666C115.812 126.003 114.219 125.284 113.583 123.642C112.277 120.272 116.231 116.254 118.468 113.051C123.252 106.202 122.528 99.717 122.681 84.6913C122.991 54.2769 123.301 38.9749 130.895 34.3105Z" fill="url(#paint11_linear_266_615)"/>
<path style="mix-blend-mode:multiply" opacity="0.3" d="M176.665 85.5146C178.425 80.2868 186.388 56.6421 175.674 43.6638C171.223 38.2726 164.745 36.1718 156.722 34.9078C171.444 43.7838 174.875 49.6943 174.117 53.7426C172.639 61.6301 155.692 60.1687 148.63 73.6532C145.111 80.3735 145.739 87.5705 146.931 101.19C148.117 114.753 150.71 116.823 149.904 124.278C149.695 126.21 149.27 128.376 148.477 130.736C149.59 130.48 150.866 130.216 152.364 129.95C164.451 127.805 167.384 129.677 169.868 126.819C173.359 122.802 169.105 117.33 169.561 106.821C169.956 97.7522 173.412 95.1723 176.665 85.5146Z" fill="url(#paint12_linear_266_615)"/>
<path d="M153.717 23.6015C153.404 26.2193 153.497 28.3356 153.645 29.7954C153.815 31.4681 154.02 31.9201 154.304 32.301C154.731 32.8745 155.417 33.3955 159.463 34.8329C161.67 35.617 161.963 35.6386 161.991 35.8476C162.126 36.8694 155.589 39.4903 149.336 37.895C145.522 36.922 142.231 34.4869 142.562 33.4605C142.896 32.4279 146.69 33.4667 148.053 31.6879C149.002 30.4502 148.312 28.447 147.423 26.7503C148.644 25.1217 152.491 25.2317 153.716 23.6L153.717 23.6015Z" fill="url(#paint13_linear_266_615)"/>
<path d="M146.917 22.8266C146.542 21.3009 147.307 19.2257 148.795 18.3286C150.076 17.5561 151.456 17.94 152.284 18.1692C154.684 18.8348 157.179 21.03 157.308 23.6602C157.385 25.2199 155.01 27.412 154.613 27.8184C154.164 28.2781 153.674 28.2959 153.123 28.556C152.361 28.9167 151.162 29.4949 149.192 30.4756C149.268 29.9756 149.331 29.3448 149.32 28.6272C149.316 28.3509 149.288 27.2688 148.996 26.2594C148.412 24.2392 147.273 24.274 146.917 22.8266H146.917Z" fill="url(#paint14_linear_266_615)"/>
<path d="M151.642 29.981C151.642 29.981 149.106 31.9486 146.194 30.4957C143.591 29.1969 145.709 22.7282 147.949 22.0982C148.697 21.8876 149.914 22.1756 150.735 22.8335C151.22 23.2228 151.311 23.5394 152.117 24.1587C152.861 24.7307 153.135 24.7315 153.298 25.0581C153.503 25.4668 153.463 26.2439 152.203 27.8741C152.932 27.5428 153.631 27.5884 153.981 27.9855C154.037 28.049 154.169 28.2572 154.193 28.5003C154.283 29.3788 153.287 30.0406 151.642 29.9802V29.981Z" fill="url(#paint15_linear_266_615)"/>
<path d="M153.57 24.7314C153.4 24.7794 153.595 25.4497 153.34 26.1796C152.844 27.5969 150.836 28.7115 149.41 28.2835C148.568 28.0311 148.55 27.4258 147.272 26.7222C146.482 26.2872 145.75 26.1115 145.278 26.031C144.253 27.3817 144.042 29.0668 144.73 30.176C145.472 31.3719 146.99 31.4671 147.625 31.5073C148.05 31.5337 149.411 31.6227 150.497 30.7287C151.628 29.7967 151.275 28.8052 152.348 28.3028C152.889 28.0489 153.456 28.0776 154.256 27.4831C154.473 27.3213 154.637 27.1673 154.741 27.0605C154.354 26.0024 153.816 24.661 153.57 24.7298V24.7314Z" fill="url(#paint16_linear_266_615)"/>
<path d="M146.026 27.0018C146.026 27.0018 146.478 27.5599 147.501 27.916C147.551 27.933 147.599 27.9702 147.594 27.9996C147.577 28.1087 146.759 28.2891 146.237 27.8688C145.868 27.57 145.707 27.0173 145.806 26.9345C145.848 26.8997 145.94 26.9453 146.026 27.0011V27.0018Z" fill="url(#paint17_linear_266_615)"/>
<path d="M70.5109 35.5457C70.9402 32.3334 71.1777 30.3487 69.9335 28.7751C67.1495 25.2556 58.5009 25.7509 53.4668 29.9277C49.7452 33.0153 51.0716 35.5658 47.6341 38.206C42.6916 42.0019 38.1659 37.8298 30.933 40.5878C25.2174 42.7667 18.777 48.3707 17.9325 56.0012C17.487 60.0309 18.4262 66.2147 22.7004 69.3325C28.6845 73.6981 37.2927 69.1986 38.5982 71.9047C39.9751 74.7593 30.333 79.6373 31.3366 85.3769C32.0499 89.4545 37.7631 91.8378 41.0446 92.5909C48.9139 94.3968 58.4031 90.4043 63.2889 83.5153C68.6032 76.0233 63.0025 72.8188 67.7665 54.272C68.2749 52.2928 69.02 46.7104 70.5109 35.5449V35.5457Z" fill="url(#paint18_linear_266_615)"/>
<path d="M79.0849 189.377C79.0849 189.377 78.398 190.903 78.2451 192.263C78.1217 193.36 78.9126 194.35 80.0124 194.475C82.7056 194.783 87.5666 195.28 90.5028 195.231C94.229 195.169 85.7147 190.662 83.6541 189.599C83.3692 189.452 83.0541 189.376 82.7336 189.376H79.0864L79.0849 189.377Z" fill="url(#paint19_linear_266_615)"/>
<path d="M80.1885 184.409C79.7934 184.575 79.6211 189.903 79.6211 189.903C79.6211 189.903 81.3589 190.929 82.5076 190.265L84.7925 183.621L80.1885 184.41V184.409Z" fill="url(#paint20_linear_266_615)"/>
<path d="M31.4212 183.097C30.3105 183.727 29.8184 185.064 30.2616 186.259C30.95 188.116 32.0568 190.741 33.249 192.122C34.5327 193.61 36.8022 193.621 38.2256 193.449C38.8256 193.377 39.1306 192.692 38.7876 192.195C38.0952 191.195 37.0839 189.684 36.6081 188.732C35.8475 187.208 34.0593 181.599 34.0593 181.599L31.4204 183.097H31.4212Z" fill="url(#paint21_linear_266_615)"/>
<path d="M35.9573 177.766L33.1337 182.223C32.8729 182.634 32.9427 183.172 33.299 183.504C33.694 183.873 34.3095 183.867 34.6984 183.493L39.1022 179.25L35.9565 177.766H35.9573Z" fill="url(#paint22_linear_266_615)"/>
<path d="M87.3473 92.3457C97.3999 97.1904 95.6443 119.823 94.061 140.236C93.0613 153.12 90.8074 168.879 85.9215 186.627C83.3548 186.721 80.7881 186.817 78.2214 186.911C77.3575 182.274 76.3974 175.371 76.5108 167.003C76.6869 153.909 79.367 146.354 80.3604 139.415C81.7435 129.756 80.6693 115.627 69.2383 96.6114C79.1427 90.2767 84.4981 90.9725 87.3473 92.3449V92.3457Z" fill="url(#paint23_linear_266_615)"/>
<path style="mix-blend-mode:multiply" opacity="0.3" d="M80.7873 163.021C83.4146 152.908 87.5553 149.636 87.917 138.705C88.2841 127.601 84.2551 123.59 85.3503 113.677C86.1132 106.775 88.9097 101.085 91.8156 96.7825C90.6847 94.7723 89.2209 93.2498 87.3473 92.3465C84.4981 90.9733 79.1427 90.2782 69.2383 96.613C80.6686 115.628 81.7428 129.757 80.3604 139.416C79.367 146.356 76.6869 153.91 76.5108 167.003C76.3982 175.372 77.3575 182.275 78.2222 186.912C78.8113 186.89 79.4003 186.868 79.9894 186.847C78.3293 176.746 79.2676 168.875 80.7881 163.022L80.7873 163.021Z" fill="url(#paint24_linear_266_615)"/>
<path d="M59.9692 93.057C59.5299 98.5048 58.9618 105.293 58.2578 113.108C56.6419 131.057 56.1428 134.076 54.5502 138.136C51.4836 145.953 48.5094 147.053 43.0004 156.48C37.8204 165.345 35.1621 173.422 33.7324 178.806C35.3484 180.134 36.9643 181.46 38.5802 182.788C46.375 176.001 56.6093 165.494 65.4139 150.547C78.2172 128.813 81.7929 108.227 82.9261 96.185C75.274 95.1423 67.6212 94.0989 59.9692 93.0563V93.057Z" fill="url(#paint25_linear_266_615)"/>
<path d="M60.2121 48.7306C56.79 51.4784 56.7893 56.6506 56.7885 61.9079C56.7877 67.5491 57.9574 70.307 58.6939 74.4543C59.0905 76.6897 61.0464 88.8143 56.0667 98.9295C51.305 108.602 44.3081 108.096 41.1104 118.218C39.562 123.12 39.2166 129.528 41.6218 130.765C44.3189 132.152 47.6696 125.6 56.5153 122.607C64.3047 119.971 64.9473 123.956 73.5447 121.689C82.5177 119.324 83.0602 114.656 95.6446 110.309C98.1819 109.433 99.1676 109.275 99.9779 108.148C103.215 103.651 94.3469 96.6724 90.2062 82.8263C86.1819 69.3704 90.7146 63.1154 84.0894 55.4245C80.7365 51.5326 76.7269 49.8274 75.2786 49.2298C72.9408 48.2654 64.914 44.9548 60.2136 48.7298L60.2121 48.7306Z" fill="url(#paint26_linear_266_615)"/>
<g style="mix-blend-mode:multiply" opacity="0.3">
<path d="M90.2064 82.8273C86.1821 69.3714 90.7148 63.1164 84.0896 55.4255C80.7367 51.5336 76.7271 49.8284 75.2788 49.2309C73.5015 48.4978 68.4371 46.4118 64.0449 47.1108C65.8301 49.4244 67.7363 52.1002 69.6456 55.1368C75.1213 63.8471 77.8587 68.2026 78.312 73.576C79.2636 84.8476 70.7268 88.7162 73.1118 98.3531C74.7681 105.046 79.4987 105.658 80.3339 110.742C80.7545 113.302 80.1026 116.489 77.1439 120.451C82.965 117.903 84.9861 113.991 95.6457 110.309C98.1829 109.433 99.1686 109.274 99.9789 108.148C103.216 103.651 94.3479 96.6718 90.2072 82.8258L90.2064 82.8273Z" fill="url(#paint27_linear_266_615)"/>
</g>
<path d="M67.3821 38.4227C67.3821 38.4227 66.5501 45.0578 64.0943 46.578C61.6386 48.0975 62.986 49.5999 62.549 50.1394C62.1121 50.6773 69.7998 53.9918 77.555 50.0891L80.7892 47.8219C78.2365 47.832 74.9604 47.6501 73.6634 46.9124C72.7802 46.4108 71.3575 45.4317 70.052 43.5817L70.0808 39.9081L67.3821 38.4227Z" fill="url(#paint28_linear_266_615)"/>
<path d="M66.6136 41.3177C66.6136 41.3177 69.5661 43.9471 72.8593 41.8797C75.8078 40.0282 72.1173 32.1964 69.3759 31.8017C68.4616 31.6701 66.9373 32.143 66.0369 33.013C65.4044 33.6253 63.9755 36.4622 65.6799 38.9314C64.8215 38.8718 64.1556 39.2363 64.064 39.6744C63.9468 40.2294 64.7804 40.772 64.9697 40.8951C65.624 41.3216 66.3055 41.3332 66.6152 41.3185L66.6136 41.3177Z" fill="url(#paint29_linear_266_615)"/>
<path d="M89.4988 13.1909C89.4988 13.1909 88.9214 12.2249 87.1875 10.0158C85.4543 7.80669 83.6242 8.48088 85.1656 11.3131C86.7063 14.1453 88.7498 13.372 89.4988 13.1909Z" fill="url(#paint30_linear_266_615)"/>
<path d="M126.293 6.4536C126.293 6.4536 127.787 2.62364 128.725 0.895209C129.664 -0.833224 131.204 5.77012 126.293 6.4536Z" fill="url(#paint31_linear_266_615)"/>
<path d="M129.562 18.4796C129.562 18.4796 128.048 16.8727 129.369 16.5879C130.691 16.3022 133.325 17.9618 133.617 18.4796C133.909 18.9974 129.562 18.4796 129.562 18.4796Z" fill="url(#paint32_linear_266_615)"/>
<path d="M129.059 20.0922L129.426 18.3638C129.502 18.0108 129.908 17.8413 130.213 18.0364L130.278 18.0782C130.426 18.1734 130.515 18.3367 130.515 18.5124V20.4599L129.059 20.0922Z" fill="url(#paint33_linear_266_615)"/>
<path d="M135.876 24.354C135.876 24.354 134.363 22.7471 135.684 22.4622C137.005 22.1766 139.64 23.8362 139.931 24.354C140.223 24.8718 135.875 24.354 135.875 24.354H135.876Z" fill="url(#paint34_linear_266_615)"/>
<path d="M135.371 25.9662L135.739 24.2378C135.814 23.8848 136.22 23.7153 136.525 23.9104L136.59 23.9522C136.739 24.0474 136.828 24.2107 136.828 24.3864V26.3339L135.371 25.9662Z" fill="url(#paint35_linear_266_615)"/>
<path d="M116.032 27.7138C116.032 27.7138 119.336 27.5412 121.214 27.9878C123.091 28.4344 125.255 28.0768 126.751 25.6324C128.248 23.1879 128.521 19.5948 128.521 19.5948L130.795 19.8394C130.795 19.8394 131.421 23.777 131.229 26.1301C131.036 28.4832 129.768 34.0532 122.698 34.5811C115.628 35.109 116.032 27.7145 116.032 27.7145V27.7138Z" fill="url(#paint36_linear_266_615)"/>
<path d="M117.7 30.7811C117.7 30.7811 120.493 30.5837 122.997 31.285C125.501 31.9871 129.693 32.4608 131.502 30.857C133.312 29.2532 135.005 25.3814 135.005 25.3814L137.248 25.6322C137.248 25.6322 137.685 31.4112 135.373 35.5407C133.06 39.6702 126.042 43.9282 118.043 39.2066C110.044 34.4849 117.7 30.7819 117.7 30.7819L117.7 30.7811Z" fill="url(#paint37_linear_266_615)"/>
<path d="M88.5706 12.3472C87.914 12.9161 87.6936 13.7405 87.6074 14.3164C88.507 15.4294 90.3961 17.4543 93.4813 18.7818C97.5025 20.5118 101.126 20.0125 102.533 19.7424C102.356 22.1798 102.398 26.5315 104.652 31.0744C106.697 35.1953 111.633 41.6346 115.871 40.4859C118.022 39.9031 119.979 37.3681 120.156 35.0119C120.336 32.6124 118.584 31.531 119.241 29.4419C119.897 27.3574 122.158 26.7885 121.889 25.8883C121.649 25.0833 119.87 25.6375 117.508 24.3998C116.881 24.0716 115.196 23.0646 114.089 21.0869C113.748 20.4785 113.546 19.9274 113.425 19.5303C114.793 19.4699 118.81 19.1162 122.515 16.0928C126.996 12.4362 127.837 7.47539 128.003 6.2973C127.589 5.89712 127.174 5.49771 126.759 5.09753C125.342 6.97149 122.823 9.82383 118.895 12.1885C116.946 13.3612 111.638 16.5564 104.94 16.1895C96.6146 15.7329 91.2235 10.0491 88.5698 12.348L88.5706 12.3472Z" fill="url(#paint38_linear_266_615)"/>
<path d="M108.312 11.4261L109.509 15.2762L111.297 15.5254C111.297 15.5254 106.802 18.5983 103.85 16.0966L105.615 15.4201L105.567 12.3952L108.312 11.4261Z" fill="url(#paint39_linear_266_615)"/>
<path d="M99.3534 9.43996C98.8349 8.64889 98.1915 8.8842 97.7281 8.14422C97.1468 7.21614 97.4417 5.6998 98.2039 4.7903C98.9498 3.89938 99.5947 4.2446 101.662 3.37458C103.884 2.43954 103.979 1.68717 105.902 1.20262C106.405 1.07645 107.345 0.848108 108.546 0.991305C109.505 1.10509 111.405 1.33188 112.26 2.84823C113.194 4.50545 112.169 6.44752 112.069 6.6302C113.493 8.41436 113.595 9.37649 113.319 9.93148C113.319 9.93148 113.025 10.5205 110.668 11.4525C110.668 11.4525 110.344 12.5439 110.071 12.9758C109.761 13.4673 108.971 13.9689 106.776 13.8504C106.582 13.4704 106.285 12.9363 105.868 12.3341C105.084 11.2032 104.692 10.6374 104.298 10.6614C103.306 10.7218 103.393 14.2313 102.124 14.4898C101.308 14.6562 100.119 13.4402 99.7345 12.2242C99.3495 11.0082 99.9409 10.3386 99.3526 9.43919L99.3534 9.43996Z" fill="url(#paint40_linear_266_615)"/>
<path d="M108.109 12.8029C108.109 12.8029 107.107 15.6978 103.955 16.1738C101.132 16.5996 99.3599 10.4637 100.848 8.75544C101.345 8.18574 102.492 7.74377 103.517 7.80337C104.122 7.8382 104.368 8.03248 105.358 8.07119C106.272 8.10602 106.495 7.9574 106.804 8.11995C107.19 8.32275 107.577 8.94198 107.43 10.881C107.844 10.2292 108.436 9.88399 108.934 9.99855C109.014 10.0163 109.233 10.1046 109.384 10.278C109.929 10.9042 109.477 11.9538 108.109 12.8044V12.8029Z" fill="url(#paint41_linear_266_615)"/>
<path d="M109.852 30.2724C109.895 30.0711 110.236 27.8999 109.873 26.2001C109.51 24.5011 109.027 22.0017 110.038 23.8277C111.05 25.6537 111.787 26.8194 113.441 25.2279C115.095 23.6365 114.805 21.8523 115.287 21.9762C115.769 22.1 117.117 25.1389 115.287 27.0764C113.458 29.0146 111.333 31.0309 111.333 31.0309L109.852 30.2716V30.2724Z" fill="url(#paint42_linear_266_615)"/>
<path d="M60.9794 51.3919C60.6651 55.1622 64.9284 58.2561 65.7589 58.8583C73.7237 64.6381 90.7857 60.538 101.424 50.816C108.679 44.1871 111.753 36.0349 113.125 30.5044C111.799 30.0585 110.474 29.6119 109.149 29.1661C103.545 38.6341 97.5824 42.0531 93.3354 43.4696C82.0471 47.233 69.7631 41.2187 63.29 47.2593C62.68 47.8282 61.1548 49.2919 60.9794 51.3927V51.3919Z" fill="url(#paint43_linear_266_615)"/>
<path d="M113.055 28.0057L111.6 21.7484C111.6 21.7484 108.49 16.9377 106.441 13.0489C104.391 9.16016 105.434 19.0733 106.808 21.7484C108.182 24.4235 110.638 28.6366 110.638 28.6366L113.055 28.005V28.0057Z" fill="url(#paint44_linear_266_615)"/>
<path d="M105.945 29.6188C107 28.9786 108.055 28.3385 109.111 27.6984C115.625 41.7697 122.201 45.5222 127.063 46.2978C131.968 47.0804 139.231 44.1645 153.556 38.302C162.882 34.4859 165.243 33.0067 168.546 34.1299C175.099 36.3591 179.455 46.8288 177.295 55.0089C174.134 66.9856 157.961 70.4301 153.356 71.4108C150.262 72.0695 128.931 76.6131 114.868 61.253C103.205 48.5131 105.573 31.9448 105.945 29.6188Z" fill="url(#paint45_linear_266_615)"/>
<defs>
<linearGradient id="paint0_linear_266_615" x1="213.576" y1="96.6058" x2="83.781" y2="101.833" gradientUnits="userSpaceOnUse">
<stop stop-color="#FFC444"/>
<stop offset="1" stop-color="#F36F56"/>
</linearGradient>
<linearGradient id="paint1_linear_266_615" x1="63.7344" y1="147.219" x2="15.6194" y2="-4.52418" gradientUnits="userSpaceOnUse">
<stop stop-color="#E38DDD"/>
<stop offset="1" stop-color="#9571F6"/>
</linearGradient>
<linearGradient id="paint2_linear_266_615" x1="204.108" y1="152.575" x2="125.462" y2="152.575" gradientUnits="userSpaceOnUse">
<stop stop-color="#FF9085"/>
<stop offset="1" stop-color="#FB6FBB"/>
</linearGradient>
<linearGradient id="paint3_linear_266_615" x1="121.367" y1="25.0374" x2="110.012" y2="55.0783" gradientUnits="userSpaceOnUse">
<stop stop-color="#AA80F9"/>
<stop offset="1" stop-color="#6165D7"/>
</linearGradient>
<linearGradient id="paint4_linear_266_615" x1="139.201" y1="196.189" x2="152.435" y2="196.189" gradientUnits="userSpaceOnUse">
<stop stop-color="#311944"/>
<stop offset="1" stop-color="#6B3976"/>
</linearGradient>
<linearGradient id="paint5_linear_266_615" x1="152.591" y1="168.37" x2="149.422" y2="199.509" gradientUnits="userSpaceOnUse">
<stop stop-color="#FFC444"/>
<stop offset="1" stop-color="#F36F56"/>
</linearGradient>
<linearGradient id="paint6_linear_266_615" x1="94.5977" y1="192.917" x2="108.495" y2="192.917" gradientUnits="userSpaceOnUse">
<stop stop-color="#311944"/>
<stop offset="1" stop-color="#6B3976"/>
</linearGradient>
<linearGradient id="paint7_linear_266_615" x1="109.773" y1="164.013" x2="106.604" y2="195.152" gradientUnits="userSpaceOnUse">
<stop stop-color="#FFC444"/>
<stop offset="1" stop-color="#F36F56"/>
</linearGradient>
<linearGradient id="paint8_linear_266_615" x1="133.387" y1="114.172" x2="125.463" y2="146.272" gradientUnits="userSpaceOnUse">
<stop stop-color="#311944"/>
<stop offset="1" stop-color="#6B3976"/>
</linearGradient>
<linearGradient id="paint9_linear_266_615" x1="156.685" y1="119.921" x2="148.761" y2="152.022" gradientUnits="userSpaceOnUse">
<stop stop-color="#311944"/>
<stop offset="1" stop-color="#6B3976"/>
</linearGradient>
<linearGradient id="paint10_linear_266_615" x1="135.652" y1="114.73" x2="127.727" y2="146.83" gradientUnits="userSpaceOnUse">
<stop stop-color="#311944"/>
<stop offset="1" stop-color="#6B3976"/>
</linearGradient>
<linearGradient id="paint11_linear_266_615" x1="127.776" y1="61.9268" x2="160.013" y2="103.919" gradientUnits="userSpaceOnUse">
<stop stop-color="#AA80F9"/>
<stop offset="1" stop-color="#6165D7"/>
</linearGradient>
<linearGradient id="paint12_linear_266_615" x1="134.528" y1="51.5025" x2="168.501" y2="95.7561" gradientUnits="userSpaceOnUse">
<stop stop-color="#AA80F9"/>
<stop offset="1" stop-color="#6165D7"/>
</linearGradient>
<linearGradient id="paint13_linear_266_615" x1="155.861" y1="44.9514" x2="146.909" y2="19.4511" gradientUnits="userSpaceOnUse">
<stop stop-color="#FFC444"/>
<stop offset="1" stop-color="#F36F56"/>
</linearGradient>
<linearGradient id="paint14_linear_266_615" x1="151.908" y1="40.0785" x2="152.074" y2="19.2031" gradientUnits="userSpaceOnUse">
<stop stop-color="#311944"/>
<stop offset="1" stop-color="#6B3976"/>
</linearGradient>
<linearGradient id="paint15_linear_266_615" x1="150.981" y1="24.5413" x2="139.144" y2="50.2885" gradientUnits="userSpaceOnUse">
<stop stop-color="#FFC444"/>
<stop offset="1" stop-color="#F36F56"/>
</linearGradient>
<linearGradient id="paint16_linear_266_615" x1="149.417" y1="40.099" x2="149.584" y2="19.1354" gradientUnits="userSpaceOnUse">
<stop stop-color="#311944"/>
<stop offset="1" stop-color="#6B3976"/>
</linearGradient>
<linearGradient id="paint17_linear_266_615" x1="146.977" y1="26.3835" x2="146.008" y2="29.8732" gradientUnits="userSpaceOnUse">
<stop stop-color="#FFC444"/>
<stop offset="1" stop-color="#F36F56"/>
</linearGradient>
<linearGradient id="paint18_linear_266_615" x1="86.2954" y1="36.5418" x2="31.7857" y2="72.9802" gradientUnits="userSpaceOnUse">
<stop stop-color="#311944"/>
<stop offset="1" stop-color="#6B3976"/>
</linearGradient>
<linearGradient id="paint19_linear_266_615" x1="78.2319" y1="192.306" x2="91.4341" y2="192.306" gradientUnits="userSpaceOnUse">
<stop stop-color="#444B8C"/>
<stop offset="1" stop-color="#26264F"/>
</linearGradient>
<linearGradient id="paint20_linear_266_615" x1="87.6651" y1="168.148" x2="81.9582" y2="185.661" gradientUnits="userSpaceOnUse">
<stop stop-color="#311944"/>
<stop offset="1" stop-color="#A03976"/>
</linearGradient>
<linearGradient id="paint21_linear_266_615" x1="30.0994" y1="187.561" x2="38.9311" y2="187.561" gradientUnits="userSpaceOnUse">
<stop stop-color="#444B8C"/>
<stop offset="1" stop-color="#26264F"/>
</linearGradient>
<linearGradient id="paint22_linear_266_615" x1="44.8022" y1="154.181" x2="39.0953" y2="171.694" gradientUnits="userSpaceOnUse">
<stop stop-color="#311944"/>
<stop offset="1" stop-color="#A03976"/>
</linearGradient>
<linearGradient id="paint23_linear_266_615" x1="90.5753" y1="188.256" x2="83.4838" y2="119.141" gradientUnits="userSpaceOnUse">
<stop stop-color="#444B8C"/>
<stop offset="1" stop-color="#26264F"/>
</linearGradient>
<linearGradient id="paint24_linear_266_615" x1="89.6455" y1="188.352" x2="82.554" y2="119.237" gradientUnits="userSpaceOnUse">
<stop stop-color="#444B8C"/>
<stop offset="1" stop-color="#26264F"/>
</linearGradient>
<linearGradient id="paint25_linear_266_615" x1="63.8484" y1="190.998" x2="56.7569" y2="121.883" gradientUnits="userSpaceOnUse">
<stop stop-color="#444B8C"/>
<stop offset="1" stop-color="#26264F"/>
</linearGradient>
<linearGradient id="paint26_linear_266_615" x1="104.486" y1="39.583" x2="47.2187" y2="130.478" gradientUnits="userSpaceOnUse">
<stop stop-color="#FFC444"/>
<stop offset="1" stop-color="#F36F56"/>
</linearGradient>
<linearGradient id="paint27_linear_266_615" x1="105.652" y1="40.317" x2="48.3847" y2="131.212" gradientUnits="userSpaceOnUse">
<stop stop-color="#FFC444"/>
<stop offset="1" stop-color="#F36F56"/>
</linearGradient>
<linearGradient id="paint28_linear_266_615" x1="65.8663" y1="69.1274" x2="75.9865" y2="32.423" gradientUnits="userSpaceOnUse">
<stop stop-color="#311944"/>
<stop offset="1" stop-color="#A03976"/>
</linearGradient>
<linearGradient id="paint29_linear_266_615" x1="16.0516" y1="9.65176" x2="69.8407" y2="37.8577" gradientUnits="userSpaceOnUse">
<stop stop-color="#311944"/>
<stop offset="1" stop-color="#A03976"/>
</linearGradient>
<linearGradient id="paint30_linear_266_615" x1="89.1721" y1="22.7782" x2="87.448" y2="13.5577" gradientUnits="userSpaceOnUse">
<stop stop-color="#311944"/>
<stop offset="1" stop-color="#A03976"/>
</linearGradient>
<linearGradient id="paint31_linear_266_615" x1="130.171" y1="15.7467" x2="128.447" y2="6.52544" gradientUnits="userSpaceOnUse">
<stop stop-color="#311944"/>
<stop offset="1" stop-color="#A03976"/>
</linearGradient>
<linearGradient id="paint32_linear_266_615" x1="128.828" y1="17.6328" x2="133.632" y2="17.6328" gradientUnits="userSpaceOnUse">
<stop stop-color="#311944"/>
<stop offset="1" stop-color="#6B3976"/>
</linearGradient>
<linearGradient id="paint33_linear_266_615" x1="132.117" y1="14.8357" x2="130.464" y2="18.3688" gradientUnits="userSpaceOnUse">
<stop stop-color="#311944"/>
<stop offset="1" stop-color="#A03976"/>
</linearGradient>
<linearGradient id="paint34_linear_266_615" x1="135.143" y1="23.5064" x2="139.946" y2="23.5064" gradientUnits="userSpaceOnUse">
<stop stop-color="#311944"/>
<stop offset="1" stop-color="#6B3976"/>
</linearGradient>
<linearGradient id="paint35_linear_266_615" x1="139.555" y1="18.3179" x2="137.902" y2="21.8502" gradientUnits="userSpaceOnUse">
<stop stop-color="#311944"/>
<stop offset="1" stop-color="#A03976"/>
</linearGradient>
<linearGradient id="paint36_linear_266_615" x1="124.919" y1="15.0412" x2="123.387" y2="29.2558" gradientUnits="userSpaceOnUse">
<stop stop-color="#444B8C"/>
<stop offset="1" stop-color="#26264F"/>
</linearGradient>
<linearGradient id="paint37_linear_266_615" x1="126.067" y1="29.4296" x2="123.385" y2="53.0566" gradientUnits="userSpaceOnUse">
<stop stop-color="#444B8C"/>
<stop offset="1" stop-color="#26264F"/>
</linearGradient>
<linearGradient id="paint38_linear_266_615" x1="122.844" y1="57.9189" x2="110.771" y2="19.4852" gradientUnits="userSpaceOnUse">
<stop stop-color="#FF9085"/>
<stop offset="1" stop-color="#FB6FBB"/>
</linearGradient>
<linearGradient id="paint39_linear_266_615" x1="103.85" y1="14.2521" x2="111.297" y2="14.2521" gradientUnits="userSpaceOnUse">
<stop stop-color="#311944"/>
<stop offset="1" stop-color="#A03976"/>
</linearGradient>
<linearGradient id="paint40_linear_266_615" x1="115.496" y1="21.9259" x2="103.074" y2="3.18638" gradientUnits="userSpaceOnUse">
<stop stop-color="#311944"/>
<stop offset="1" stop-color="#6B3976"/>
</linearGradient>
<linearGradient id="paint41_linear_266_615" x1="112.551" y1="0.781692" x2="107.087" y2="7.75117" gradientUnits="userSpaceOnUse">
<stop stop-color="#311944"/>
<stop offset="1" stop-color="#A03976"/>
</linearGradient>
<linearGradient id="paint42_linear_266_615" x1="114.101" y1="42.9643" x2="112.378" y2="17.61" gradientUnits="userSpaceOnUse">
<stop stop-color="#311944"/>
<stop offset="1" stop-color="#A03976"/>
</linearGradient>
<linearGradient id="paint43_linear_266_615" x1="93.3648" y1="32.575" x2="36.0986" y2="123.469" gradientUnits="userSpaceOnUse">
<stop stop-color="#FFC444"/>
<stop offset="1" stop-color="#F36F56"/>
</linearGradient>
<linearGradient id="paint44_linear_266_615" x1="109.91" y1="8.8103" x2="107.83" y2="42.5329" gradientUnits="userSpaceOnUse">
<stop stop-color="#FFC444"/>
<stop offset="1" stop-color="#F36F56"/>
</linearGradient>
<linearGradient id="paint45_linear_266_615" x1="149.509" y1="21.6763" x2="133.203" y2="64.8136" gradientUnits="userSpaceOnUse">
<stop stop-color="#AA80F9"/>
<stop offset="1" stop-color="#6165D7"/>
</linearGradient>
</defs>
</svg>
