<svg width="208" height="205" viewBox="0 0 208 205" fill="none" xmlns="http://www.w3.org/2000/svg">
<path d="M97.427 124.543C98.6552 123.963 100.815 121.616 101.126 120.771C103.195 115.154 107.753 104.89 105.456 98.9932C105.064 97.9858 100.171 98.5173 99.2239 97.7836C96.0223 97.3649 94.8857 97.4183 92.0372 95.5238C83.6283 89.9308 92.6847 71.3836 75.224 71.5482C62.4349 71.6692 53.9209 78.8485 49.3371 60.4027C44.754 41.9562 19.8294 13.7098 4.86187 32.4586C-3.72804 43.2184 12.3227 54.969 10.3599 68.1059C8.49464 80.5888 15.9119 87.9672 29.4139 90.7239C42.9159 93.4813 38.4215 100.417 38.4079 111.711C38.3914 125.276 57.9638 121.342 66.8451 118.754C73.9973 116.67 93.6132 116.192 97.427 124.543Z" fill="url(#paint0_linear_266_460)"/>
<mask id="mask0_266_460" style="mask-type:luminance" maskUnits="userSpaceOnUse" x="2" y="26" width="107" height="101">
<path d="M107.854 96.5005C107.843 105.843 108.217 115.351 108.258 124.76C103.338 126.805 97.5015 129.091 94.3743 123.237C90.0264 115.099 73.9569 116.622 66.822 118.743C57.991 121.367 38.3773 125.264 38.4036 111.708C38.4254 100.423 42.9108 93.4785 29.4103 90.7233C15.9099 87.9681 8.49482 80.5882 10.357 68.1046C12.3169 54.9677 -3.72785 43.2231 4.85905 32.458C19.8221 13.6995 44.7625 41.9737 49.3297 60.3961C53.8977 78.8185 62.4816 71.7348 75.2084 71.5303C92.5827 71.2507 83.8433 90.2159 91.936 95.3744C98.2798 99.4181 101.547 97.247 107.854 96.5005Z" fill="white"/>
</mask>
<g mask="url(#mask0_266_460)">
<g style="mix-blend-mode:soft-light" opacity="0.8">
<path d="M103.298 110.434C91.9662 108.83 81.0491 105.505 70.8509 100.551C61.0516 95.792 51.8998 89.5262 43.6502 81.9267C27.6362 67.1751 15.2783 47.6348 7.91211 25.419L8.15174 25.3393C23.6985 72.2291 59.2803 103.946 103.334 110.183L103.299 110.433L103.298 110.434Z" fill="#FCFDFE"/>
<path d="M37.7425 117.333L37.5938 117.129C47.4637 109.928 65.898 103.849 78.6886 103.578L78.6938 103.831C65.9476 104.1 47.5764 110.158 37.7425 117.333Z" fill="#FCFDFE"/>
<path d="M94.6732 109.112C88.554 106.367 84.0611 100.646 81.3185 92.1056C79.3173 85.8736 78.2769 78.3094 78.2266 69.6214L78.479 69.6199C78.5293 78.2816 79.5652 85.821 81.5589 92.0282C84.2782 100.497 88.7252 106.167 94.7761 108.881L94.6732 109.112Z" fill="#FCFDFE"/>
<path d="M41.454 79.7419C30.3979 74.0828 17.4338 75.8088 8.50436 78.2527L8.4375 78.0092C17.409 75.5532 30.44 73.8219 41.5682 79.5172L41.4532 79.7419H41.454Z" fill="#FCFDFE"/>
<path d="M23.2397 57.6595C17.91 44.5091 21.8094 30.1543 24.6076 22.7684L24.8435 22.8578C22.0581 30.2092 18.1766 44.494 23.4733 57.564L23.2397 57.6587V57.6595Z" fill="#FCFDFE"/>
</g>
</g>
<mask id="mask1_266_460" style="mask-type:luminance" maskUnits="userSpaceOnUse" x="32" y="0" width="70" height="131">
<path d="M79.871 130.866C86.9818 130 94.0859 128.998 101.177 127.862C101.293 127.948 103.623 115.145 96.2809 108.431C81.7618 95.4242 91.5416 83.7503 94.3315 76.8327C98.7959 67.0787 96.5077 55.2228 83.5376 57.4435C70.901 59.3559 68.9847 37.8084 71.1654 21.2082C73.0269 13.1291 63.8233 3.3263 54.6392 1.08607C45.2635 -1.39621 35.9066 3.68413 33.0393 19.7889C28.6982 38.4354 45.1275 49.6794 51.2107 59.0282C57.197 68.2056 43.2713 75.6306 54.4799 83.7616C63.9074 90.9867 75.789 96.1805 71.4426 105.256C66.9768 114.229 68.0465 121.565 79.871 130.866Z" fill="white"/>
</mask>
<g mask="url(#mask1_266_460)">
<path d="M79.8718 130.865C86.9826 129.999 94.0866 128.998 101.178 127.861C101.294 127.948 103.624 115.145 96.2816 108.431C81.7625 95.424 91.5423 83.75 94.3323 76.8324C98.7523 67.0852 96.4273 56.5306 84.4503 56.375C71.1662 55.9863 68.7579 37.7751 71.1654 21.2087C73.0269 13.1296 63.8233 3.32679 54.6392 1.08656C45.2635 -1.39572 35.9066 3.68462 33.0393 19.7894C28.6982 38.4359 45.1275 49.6798 51.2107 59.0286C57.197 68.206 43.2713 75.6311 54.4799 83.762C63.9074 90.9871 75.789 96.181 71.4426 105.257C66.9768 114.23 68.0465 121.565 79.871 130.866L79.8718 130.865Z" fill="url(#paint1_linear_266_460)"/>
<g style="mix-blend-mode:soft-light" opacity="0.8">
<path d="M89.3988 131.625C89.3109 130.796 82.1415 103.576 70.9051 78.4392C69.2833 74.1865 67.5263 69.906 65.8263 65.7676C61.2703 54.6733 56.5588 43.2008 54.3203 31.7681C51.8143 18.9733 52.7082 7.44743 57.0531 -3.46802L57.3025 -3.39961C47.6542 20.8399 56.6024 42.6294 66.0757 65.6977C67.7757 69.8376 69.5342 74.1189 71.1545 78.3693C82.8762 104.591 89.6647 131.509 89.6624 131.623L89.3995 131.619L89.531 131.62L89.3995 131.625H89.3988Z" fill="#FCFDFE"/>
<path d="M57.5944 44.263C49.6595 36.9605 40.09 26.5878 34.9489 21.015C32.7516 18.6327 31.0156 16.7518 30.8105 16.6376L30.8669 16.5677L30.8413 16.4323C31.0171 16.4113 31.1846 16.5767 35.1577 20.8827C40.2966 26.4532 49.8616 36.8214 57.7897 44.1171L57.5944 44.263Z" fill="#FCFDFE"/>
<path d="M55.1038 34.5539L54.916 34.2268C56.1705 27.8309 59.1242 22.0928 63.4571 17.6319C66.8968 14.0911 70.1735 12.3937 71.0502 12.078C71.238 12.0103 71.3191 12.0005 71.3874 12.0381L71.241 12.2193C71.2733 12.2373 71.3003 12.2343 71.3011 12.2343C70.9728 12.2629 67.7374 13.7566 64.1835 17.2432C60.9804 20.3863 56.7459 26.1823 55.1038 34.5531V34.5539Z" fill="#FCFDFE"/>
<path d="M77.86 95.507C76.7354 87.6821 78.9334 79.2699 84.3939 70.5045C87.2371 65.9399 90.8639 61.4684 95.1712 57.2143C95.3966 56.9918 95.5746 56.8158 95.5994 56.7805L95.827 56.8895C95.7925 56.9391 95.6708 57.0602 95.3733 57.3541C89.3878 63.2644 75.7258 78.8114 78.1214 95.4807L77.8607 95.5063L77.86 95.507Z" fill="#FCFDFE"/>
<path d="M74.6551 87.3122C66.2364 76.0472 48.5856 75.2526 48.2852 75.2526H48.2821L48.2709 75.1443L48.2288 75.2481L48.1387 75.1413L48.2371 75.0391C48.3896 75.0045 66.3544 75.7901 74.8782 87.1972L74.6551 87.3115V87.3122Z" fill="#FCFDFE"/>
<path d="M88.2114 127.232C88.0596 123.807 89.5297 117.978 97.3985 109.653C97.5833 109.457 97.7425 109.288 97.7643 109.255L97.8605 109.298L98.0152 109.28C98.0222 109.321 97.8855 109.491 97.6051 109.787C89.7859 118.06 88.3233 123.836 88.4743 127.225L88.2114 127.233V127.232Z" fill="#FCFDFE"/>
<path d="M86.4032 120.849C84.3352 114.938 74.2857 110.582 68.4797 108.512C68.2814 108.441 68.1544 108.395 68.1094 108.376L68.2296 108.182C68.2731 108.201 68.3948 108.244 68.5841 108.312C74.4329 110.398 84.5583 114.793 86.6564 120.789L86.404 120.85L86.4032 120.849Z" fill="#FCFDFE"/>
</g>
</g>
<path d="M194.953 128.373L19.4902 126.83V131.397C19.4902 132.636 20.2557 133.69 21.2923 133.878L70.908 142.871C71.4969 142.977 72.0941 143.006 72.6883 142.955L193.047 132.703C194.121 132.611 194.953 131.554 194.953 130.28V128.374L194.953 128.373Z" fill="#BFC8D6"/>
<path d="M131.278 120.971L21.3045 129.325C19.3364 129.475 17.7363 127.886 17.7363 125.777V41.2684C17.7363 39.159 19.3364 37.4487 21.3045 37.4487H131.278C132.899 37.4487 134.21 38.9943 134.21 40.9015V117.295C134.21 119.201 132.899 120.847 131.278 120.97V120.971Z" fill="#BFC8D6"/>
<path d="M133.032 120.971L23.0584 129.325C21.0903 129.475 19.4902 127.886 19.4902 125.777V41.2684C19.4902 39.159 21.0903 37.4487 23.0584 37.4487H133.032C134.653 37.4487 135.964 38.9943 135.964 40.9015V117.295C135.964 119.201 134.653 120.847 133.032 120.97V120.971Z" fill="white"/>
<path d="M129.605 115.584L27.1761 122.841C25.5745 122.955 24.2734 121.651 24.2734 119.929V45.942C24.2734 44.2198 25.5745 42.8185 27.1761 42.811L129.605 42.3554C130.942 42.3494 132.024 43.6161 132.024 45.1843V112.573C132.024 114.141 130.942 115.49 129.605 115.584Z" fill="#D8DEE8"/>
<path d="M81.9276 39.7604C81.9276 40.5452 81.3619 41.1842 80.6625 41.1865C79.9624 41.1887 79.3945 40.5528 79.3945 39.7657C79.3945 38.9786 79.9624 38.3404 80.6625 38.3396C81.3619 38.3396 81.9276 38.9748 81.9276 39.7604Z" fill="white"/>
<g style="mix-blend-mode:soft-light" opacity="0.48">
<path d="M106.535 97.7926C98.0569 92.8897 91.3908 99.1022 84.9575 92.9724C81.0573 89.2557 82.9721 86.4848 78.1728 80.9308C72.8573 74.7792 69.3966 76.8473 64.0548 71.3106C57.3001 64.3103 60.6782 58.8639 54.8602 53.8384C47.802 47.741 40.1894 53.3844 33.4707 47.5372C30.5726 45.0151 28.9823 41.3488 28.1523 37.4495H21.5778C20.4255 37.4495 19.4902 38.4531 19.4902 39.6912V127.291C19.4902 128.529 20.4255 129.461 21.5778 129.373L133.659 120.821C134.209 120.779 134.696 120.434 135.01 119.933C126.805 119.611 121.765 116.656 118.543 113.599C112.239 107.62 113.333 101.724 106.536 97.7926H106.535Z" fill="white"/>
</g>
<path d="M137.415 120.592L19.4902 129.385L70.908 138.704C71.4969 138.811 72.0941 138.839 72.6883 138.788L194.953 128.372L139.291 120.65C138.669 120.564 138.041 120.544 137.416 120.591L137.415 120.592Z" fill="url(#paint2_linear_266_460)"/>
<path d="M36.6973 129.606L134.873 122.177L165.257 126.357L67.9274 134.299L36.6973 129.606Z" fill="#D8DEE8"/>
<mask id="mask2_266_460" style="mask-type:luminance" maskUnits="userSpaceOnUse" x="17" y="19" width="175" height="103">
<path d="M46.6995 121.456L110.979 116.936L187.96 89.349L191.116 19.1428H17.8176C17.8176 19.1428 10.3245 114.166 46.6995 121.456Z" fill="white"/>
</mask>
<g mask="url(#mask2_266_460)">
<path d="M108.605 46.471C108.605 46.471 136.879 62.2308 135.913 75.6135C134.946 88.9962 106.619 83.2197 106.619 83.2197L108.606 46.4703L108.605 46.471Z" fill="url(#paint3_linear_266_460)"/>
<path d="M48.8223 48.1602C57.1973 45.3186 69.9759 42.1695 85.6045 42.8145C94.6579 43.1881 102.442 44.7427 108.609 46.471C109.443 51.1379 110.277 55.8055 111.111 60.4724C111.302 65.1521 111.364 71.4909 110.839 78.9806C110.314 86.4695 109.799 86.5823 108.596 97.1542C106.633 114.39 107.454 118.893 103.993 120.964C101.742 122.31 100.964 122.167 89.4754 121.028C81.7719 120.263 78.5215 120.134 74.6205 121.456C69.3081 123.255 66.8119 124.567 64.6206 123.584C62.5188 122.641 62.2514 119.01 61.9975 112.679C61.6061 102.914 61.6301 96.2761 61.5941 93.9006C61.4281 82.9994 58.6704 74.676 55.1376 64.0162C52.9283 57.3489 50.6011 51.9528 48.823 48.1602H48.8223Z" fill="url(#paint4_linear_266_460)"/>
<path d="M84.5631 32.0157C84.4399 34.7566 84.0185 36.9126 83.6504 38.3853C83.2283 40.0722 82.9668 40.5 82.6431 40.8413C82.1563 41.3547 81.4382 41.7689 77.4628 42.5327C75.3002 42.9484 75.026 42.9191 74.9674 43.1288C74.6827 44.1505 80.3151 47.9867 86.3743 47.4582C90.0829 47.1349 93.5437 45.2127 93.3964 44.0978C93.2484 42.9762 89.5405 43.3754 88.552 41.3081C87.8646 39.87 88.8247 37.9312 89.9221 36.342C89.0417 34.4551 85.4428 33.9018 84.5624 32.0157H84.5631Z" fill="url(#paint5_linear_266_460)"/>
<path d="M91.9843 34.2577C93.1464 33.3962 93.7699 31.4755 93.1705 29.9674C92.6544 28.6692 91.3976 28.1339 90.6449 27.8129C88.4642 26.8838 85.3363 26.983 83.7302 28.7692C82.7784 29.8276 83.2915 32.7647 83.3546 33.2842C83.426 33.8713 83.7813 34.1712 84.0427 34.6764C84.4048 35.3771 84.9682 36.4882 85.8764 38.336C86.107 37.9383 86.4217 37.4549 86.8432 36.9542C87.0054 36.7618 87.6492 36.0123 88.4485 35.4703C90.05 34.3825 90.8831 35.0749 91.9843 34.2577Z" fill="url(#paint6_linear_266_460)"/>
<path d="M84.3292 36.5492C84.3292 36.5492 85.0931 39.4262 88.1054 40.1087C90.8022 40.7199 92.9461 34.8961 91.6285 33.1355C91.1891 32.5484 90.1111 32.0387 89.1173 32.0244C88.5298 32.0161 88.2797 32.1868 87.3204 32.1545C86.4355 32.1244 86.2304 31.965 85.9202 32.1003C85.5326 32.2702 85.1157 32.8431 85.1209 34.733C84.7671 34.0722 84.2195 33.6963 83.7297 33.7722C83.6516 33.7843 83.4337 33.8542 83.276 34.0113C82.7058 34.5796 83.0687 35.6298 84.3299 36.55L84.3292 36.5492Z" fill="url(#paint7_linear_266_460)"/>
<path d="M85.9049 31.7101C86.004 31.8431 85.4737 32.204 85.2453 32.87C84.8014 34.1623 85.6607 36.1259 86.9723 36.6588C87.7475 36.9738 88.1096 36.5574 89.4708 36.8084C90.3136 36.9641 90.9634 37.2693 91.3638 37.4903C91.354 39.0487 90.5405 40.3642 89.3851 40.7446C88.1412 41.1536 86.9513 40.3297 86.4532 39.9853C86.1205 39.7546 85.053 39.0186 84.7555 37.7511C84.446 36.4303 85.2791 35.9357 84.7668 34.9531C84.5084 34.457 84.069 34.1457 83.8128 33.2579C83.7437 33.0166 83.7099 32.8121 83.6934 32.6753C84.5903 32.1536 85.7614 31.5184 85.9049 31.7108V31.7101Z" fill="url(#paint8_linear_266_460)"/>
<path d="M90.2444 37.7367C90.2444 37.7367 89.5849 37.8667 88.6136 37.5179C88.5662 37.5006 88.5091 37.4991 88.4956 37.5224C88.4453 37.6096 88.9546 38.2178 89.5864 38.2261C90.0356 38.2321 90.4743 37.9352 90.448 37.8186C90.4367 37.7698 90.3413 37.7472 90.2444 37.7367Z" fill="url(#paint9_linear_266_460)"/>
<path d="M56.5479 93.9097L59.3206 93.7548C59.3206 93.7548 62.3584 91.2109 63.7406 91.3695C65.1228 91.5281 67.1916 92.4881 67.4432 92.6896C67.6956 92.891 66.6868 94.0187 65.6779 93.9097C64.6691 93.7999 62.4178 94.3449 62.0151 95.2342C61.6125 96.1236 59.8652 96.6611 59.5685 96.1394L55.8418 96.8798L56.5479 93.9104V93.9097Z" fill="url(#paint10_linear_266_460)"/>
<path d="M57.3849 92.9385C57.5787 95.2148 57.0836 96.7604 56.2566 97.8204C52.5922 102.52 40.1389 100.598 32.7367 94.3037C27.2575 89.6451 24.3571 82.411 24.4638 75.9286C24.6726 63.2804 36.386 50.887 53.8092 46.605C56.388 54.3202 58.9676 62.0354 61.5465 69.7507C50.8051 69.9146 46.3671 77.6275 47.3346 83.4123C48.0558 87.7221 50.9899 91.989 57.3849 92.937V92.9385Z" fill="url(#paint11_linear_266_460)"/>
<path style="mix-blend-mode:multiply" opacity="0.3" d="M99.5245 115.305C93.874 112.892 93.9063 107.899 88.6292 105.815C81.0985 102.841 72.7775 109.749 71.4787 107.834C70.1265 105.84 80.0641 99.7277 78.7427 93.6994C77.6918 88.9085 70.7553 89.7572 67.0399 83.1997C63.5153 76.9789 66.9324 71.2273 63.8112 69.0652C62.6919 68.2902 60.7178 67.9835 56.9746 69.6321C59.585 77.7901 61.4562 84.9836 61.5922 93.9009C61.6283 96.2764 61.6042 102.914 61.9956 112.68C62.2495 119.01 62.5169 122.641 64.6188 123.584C66.81 124.566 69.307 123.255 74.6187 121.456C78.5196 120.136 81.7325 118.782 89.436 119.545C100.925 120.685 101.739 122.31 103.99 120.964C105.457 120.087 106.154 118.768 106.62 116.235C104.317 116.484 101.873 116.308 99.5245 115.306V115.305Z" fill="url(#paint12_linear_266_460)"/>
<path d="M122.322 88.8644C120.466 87.9233 119.076 85.6951 118.896 83.091L116.47 48.0804C116.259 45.0433 118.08 42.0919 120.594 41.4432C123.174 40.7771 126.497 42.9452 126.775 46.1326L130 83.0038C130.32 86.6663 128.185 89.6899 125.302 89.7162C124.602 89.7222 122.942 89.1779 122.323 88.8644H122.322Z" fill="url(#paint13_linear_266_460)"/>
<path style="mix-blend-mode:multiply" opacity="0.3" d="M120.593 41.4424C123.173 40.7764 126.496 42.9444 126.775 46.1319L129.711 79.7051C128.058 78.488 125.956 77.7784 124.516 74.9217C122.17 70.2691 124.873 66.2698 123.32 61.4684C122.621 59.3078 120.989 56.8007 116.953 55.0627L116.47 48.0804C116.259 45.0433 118.08 42.0919 120.594 41.4432L120.593 41.4424Z" fill="url(#paint14_linear_266_460)"/>
<path d="M125.988 48.1577C127.145 43.4953 124.437 38.8091 119.938 37.6908C115.439 36.5725 110.854 39.4456 109.697 44.1079C108.54 48.7703 111.248 53.4565 115.747 54.5748C120.246 55.6931 124.831 52.8201 125.988 48.1577Z" fill="url(#paint15_linear_266_460)"/>
<path d="M119.417 37.7844C116.141 42.9128 114.783 48.3833 115.282 54.4417L157.067 86.8738L172.246 28.3258L119.417 37.7844Z" fill="url(#paint16_linear_266_460)"/>
<path style="mix-blend-mode:multiply" opacity="0.3" d="M146.63 65.3285C142.376 61.9674 142.8 54.0702 137.623 52.5397C133.737 51.391 131.503 55.4542 127.968 54.0229C124.48 52.6111 125.042 47.8089 121.558 45.2897C120.02 44.1779 118.222 43.9178 116.39 44.1426C115.351 47.3759 114.982 50.7896 115.283 54.4408L157.068 86.8729L158.603 66.0148C152.327 67.7867 148.762 67.0124 146.63 65.3277V65.3285Z" fill="url(#paint17_linear_266_460)"/>
<path d="M187.05 63.1465C191.071 46.9477 184.444 31.3581 172.248 28.3263C160.051 25.2945 146.905 35.9685 142.884 52.1673C138.863 68.3662 145.491 83.9557 157.687 86.9875C169.883 90.0193 183.03 79.3454 187.05 63.1465Z" fill="url(#paint18_linear_266_460)"/>
<path d="M157.932 85.992C160.521 86.6355 163.237 86.5761 166.004 85.8153C168.82 85.041 171.555 83.5886 174.13 81.4972C179.544 77.101 183.577 70.4457 185.485 62.7568C187.393 55.0679 186.94 47.2978 184.211 40.8778C182.913 37.8234 181.176 35.2592 179.049 33.2565C176.959 31.2884 174.587 29.9646 171.998 29.3203C169.408 28.6768 166.693 28.7362 163.925 29.497C161.109 30.2713 158.375 31.7237 155.8 33.8151C153.536 35.6531 151.513 37.8866 149.787 40.4245C147.385 43.957 150.53 49.0501 149.42 53.5238C148.239 58.2809 142.987 62.0998 143.594 66.581C143.968 69.3422 144.677 71.9861 145.718 74.4338C147.017 77.4881 148.754 80.0524 150.88 82.055C152.97 84.0231 155.342 85.347 157.932 85.9912V85.992Z" fill="url(#paint19_linear_266_460)"/>
<mask id="mask3_266_460" style="mask-type:luminance" maskUnits="userSpaceOnUse" x="143" y="28" width="44" height="59">
<path d="M157.934 85.9924C160.524 86.6359 163.239 86.5765 166.007 85.8157C168.823 85.0414 171.557 83.589 174.133 81.4977C179.547 77.1014 183.58 70.4462 185.488 62.7572C187.396 55.0683 186.943 47.2982 184.214 40.8782C182.916 37.8239 181.179 35.2596 179.052 33.257C176.962 31.2889 174.59 29.965 172.001 29.3208C169.411 28.6773 166.696 28.7367 163.928 29.4974C161.112 30.2717 158.378 31.7241 155.803 33.8155C150.388 38.2118 146.356 44.867 144.448 52.5552C142.54 60.2441 142.992 68.0142 145.721 74.4342C147.02 77.4886 148.756 80.0528 150.883 82.0555C152.973 84.0236 155.345 85.3474 157.934 85.9916V85.9924Z" fill="white"/>
</mask>
<g mask="url(#mask3_266_460)">
<path d="M166.687 58.4932C164.843 65.9243 157.039 70.2492 149.368 68.1826C141.816 66.1476 137.232 58.6646 139.025 51.4411C140.818 44.2167 148.349 39.8227 155.953 41.6525C163.676 43.5108 168.531 51.0629 166.687 58.494V58.4932Z" fill="url(#paint20_linear_266_460)"/>
<path style="mix-blend-mode:multiply" opacity="0.3" d="M165.5 58.0701C164.13 63.5879 159.954 67.2016 156.226 66.1567C152.556 65.1275 150.701 59.9562 152.032 54.5917C153.364 49.2272 157.408 45.5797 161.116 46.4562C164.882 47.347 166.869 52.5522 165.5 58.0708V58.0701Z" fill="url(#paint21_linear_266_460)"/>
</g>
<path d="M131.852 77.096C131.852 77.096 131.512 73.6598 128.576 71.5263C125.64 69.3921 128.225 72.3344 128.235 75.4121L128.244 78.4898C128.244 78.4898 128.141 81.7223 129.44 81.7216C130.739 81.7208 131.852 77.096 131.852 77.096Z" fill="url(#paint22_linear_266_460)"/>
</g>
<path d="M65.3048 71.2485C65.1411 71.2485 65.0013 71.1237 64.9856 70.9576C64.7046 68.0062 63.7431 65.2022 62.2783 63.0612C60.9802 61.1645 59.4357 60.0331 58.1444 60.0331H58.1399C53.4382 60.0421 52.4549 70.8448 52.4451 70.9538C52.4301 71.1305 52.2754 71.2613 52.0981 71.2463C51.9215 71.2312 51.7908 71.0756 51.8059 70.899C51.8464 70.4291 52.853 59.4009 58.1384 59.3904H58.1444C59.6694 59.3904 61.3686 60.5954 62.8079 62.6981C64.3328 64.927 65.3334 67.8386 65.6248 70.896C65.6414 71.0726 65.5121 71.2297 65.3356 71.2463C65.3251 71.247 65.3153 71.2478 65.3048 71.2478V71.2485Z" fill="url(#paint23_linear_266_460)"/>
<path d="M45.7158 93.4807L51.9048 96.6163L55.6548 85.1002L49.4755 69.6607L47.7237 70.0907L45.0652 92.2644C45.0051 92.7666 45.265 93.2522 45.7158 93.4807Z" fill="url(#paint24_linear_266_460)"/>
<path style="mix-blend-mode:multiply" opacity="0.3" d="M55.655 85.1011L49.4757 69.6616L48.4421 69.9149C48.2986 71.9762 48.3617 73.6729 48.4593 74.908C48.8733 80.1643 50.2494 81.6272 49.5831 85.2942C49.0288 88.3434 47.8186 88.7576 47.9245 90.8083C48.0394 93.0426 49.5967 94.9137 51.4484 96.3849L51.9051 96.6164L55.655 85.1003V85.1011Z" fill="url(#paint25_linear_266_460)"/>
<path d="M49.4746 69.6616H72.552L80.1894 94.3364L51.904 96.6172L49.4746 69.6616Z" fill="url(#paint26_linear_266_460)"/>
<path d="M57.264 72.4599C57.6143 72.1094 57.6143 71.541 57.264 71.1905C56.9137 70.84 56.3458 70.84 55.9956 71.1905C55.6453 71.541 55.6453 72.1094 55.9956 72.4599C56.3458 72.8104 56.9137 72.8104 57.264 72.4599Z" fill="url(#paint27_linear_266_460)"/>
<path d="M56.4618 78.2285C56.9651 76.5822 58.4494 75.4237 60.2688 75.4305C62.5908 75.4388 64.5784 77.346 64.7572 79.6809C64.5777 77.346 66.2378 75.4516 68.4185 75.4591C70.0561 75.4651 71.5067 76.5461 72.1587 78.0571C74.5565 83.3412 65.4641 88.8861 65.4641 88.8861C65.4641 88.8861 54.5057 84.1629 56.4625 78.2293L56.4618 78.2285Z" fill="white"/>
<path d="M56.6237 71.7761C56.4779 71.7761 56.3465 71.6761 56.3112 71.528C56.2458 71.2484 54.7291 64.6367 56.867 61.3922C57.48 60.4623 58.3356 59.8947 59.4113 59.7045C64.9379 58.7302 68.3408 70.6087 68.4828 71.1146C68.5308 71.2852 68.4309 71.4626 68.2604 71.5108C68.0899 71.5589 67.9126 71.4589 67.8645 71.2882C67.8315 71.1702 64.4819 59.4609 59.5225 60.3367C58.6151 60.4968 57.9217 60.9577 57.4026 61.7455C55.4157 64.7615 56.9204 71.3153 56.9354 71.3815C56.976 71.5544 56.8685 71.7273 56.6965 71.7679C56.6717 71.7739 56.6469 71.7761 56.6229 71.7761H56.6237Z" fill="url(#paint28_linear_266_460)"/>
<g style="mix-blend-mode:multiply" opacity="0.3">
<path d="M72.5546 69.6614H61.1064C60.5415 70.2365 60.1412 70.8988 60.1028 71.6415C59.9233 75.1327 67.9423 76.2798 68.716 81.064C69.2742 84.5153 65.8412 88.4981 62.7778 90.2722C59.5507 92.1418 57.364 91.1946 55.181 93.2702C54.2217 94.1821 53.6381 95.3225 53.291 96.5042L80.1928 94.3347L72.5554 69.6599L72.5546 69.6614Z" fill="url(#paint29_linear_266_460)"/>
</g>
<path d="M68.9613 72.3761C69.3115 72.0256 69.3115 71.4573 68.9613 71.1068C68.611 70.7562 68.0431 70.7562 67.6928 71.1068C67.3425 71.4573 67.3425 72.0256 67.6928 72.3761C68.0431 72.7267 68.611 72.7267 68.9613 72.3761Z" fill="url(#paint30_linear_266_460)"/>
<path d="M55.9825 95.5075C55.9825 95.5075 55.9194 97.9079 60.3379 97.4027C64.7564 96.8975 68.0339 94.4641 66.7418 93.6281C65.4498 92.7922 56.1244 94.1363 55.9825 95.5083V95.5075Z" fill="url(#paint31_linear_266_460)"/>
<path d="M148.549 128.052C148.549 128.052 148.549 126.774 147.824 126.015C147.098 125.257 146.53 123.836 146.546 124.61C146.562 125.384 146.783 126.363 146.783 126.363C146.783 126.363 145.898 126.632 146.545 127.579C147.193 128.526 148.822 129.373 148.549 128.052Z" fill="url(#paint32_linear_266_460)"/>
<path d="M176.645 189.095C177.139 189.883 177.062 190.251 176.977 190.419C176.729 190.91 175.969 190.55 174.127 190.967C173.91 191.015 173.499 191.115 172.965 191.047C172.508 190.988 171.956 190.806 171.967 190.684C171.971 190.64 172.048 190.614 172.077 190.604C172.584 190.44 175.721 189.105 175.721 189.105L176.647 189.095H176.645Z" fill="url(#paint33_linear_266_460)"/>
<path d="M176.701 187.244L176.605 189.13C176.605 189.13 175.867 189.776 175.587 189.115C175.384 188.638 175.25 187.312 175.25 187.312L176.701 187.244V187.244Z" fill="url(#paint34_linear_266_460)"/>
<path d="M167.393 189.146L168.398 191.201L169.515 190.901L169.045 188.95L167.393 189.146Z" fill="url(#paint35_linear_266_460)"/>
<path d="M168.876 192.342C169.358 191.631 169.856 191.639 169.907 191.179C169.949 190.819 169.687 190.409 169.345 190.278C168.863 190.095 168.346 190.513 168.229 190.608C167.436 191.251 167.758 192.092 166.996 192.551C166.842 192.644 166.595 192.751 166.351 193.032C166.248 193.151 165.992 193.447 166.078 193.623C166.177 193.827 166.682 193.767 167.162 193.71C167.738 193.641 168.026 193.607 168.286 193.405C168.645 193.124 168.504 192.89 168.876 192.342Z" fill="url(#paint36_linear_266_460)"/>
<path d="M178.148 142.216C178.388 146.555 178.156 150.304 177.767 153.381C177.348 156.692 176.995 157.287 176.966 159.555C176.905 164.489 178.54 165.059 179.287 170.569C180.113 176.653 178.892 181.644 178.407 183.549C177.983 185.215 177.507 186.571 177.143 187.516C176.624 188.051 175.753 187.934 174.835 187.826C174.043 182.311 173.197 177.13 172.406 171.615C170.643 163.367 168.88 155.119 167.117 146.87C170.794 145.318 174.471 143.766 178.148 142.215V142.216Z" fill="url(#paint37_linear_266_460)"/>
<path style="mix-blend-mode:multiply" opacity="0.3" d="M174.835 187.827C174.043 182.312 173.197 177.131 172.406 171.616C170.643 163.368 168.88 155.119 167.117 146.87C170.794 145.319 174.471 143.767 178.148 142.216C178.163 142.503 178.172 142.78 178.184 143.063C173.263 148.111 172.528 151.847 172.786 154.333C173.099 157.348 174.873 158.708 174.913 163.114C174.942 166.263 174.047 166.893 174.281 169.718C174.583 173.355 176.313 175.272 177.247 177.31C178.15 179.281 178.65 182.137 177.57 186.348C177.419 186.786 177.274 187.179 177.144 187.517C176.625 188.051 175.754 187.936 174.836 187.827H174.835Z" fill="url(#paint38_linear_266_460)"/>
<path d="M171.8 146.94C169.41 151.866 168.173 155.689 167.524 158.041C167.128 159.475 166.786 160.963 166.835 162.874C166.895 165.215 167.517 167.091 168.019 168.283C168.734 169.805 169.413 171.592 169.916 173.634C171.546 180.255 170.44 186.001 169.48 189.332C168.828 189.636 168.178 189.941 167.526 190.246C165.652 186.113 163.288 180.226 161.334 172.885C160.265 168.876 159.443 165.731 159.102 161.678C158.742 157.402 158.789 150.588 161.616 142.217C165.011 143.791 168.405 145.366 171.799 146.94H171.8Z" fill="url(#paint39_linear_266_460)"/>
<path d="M167.182 110.055C162.971 111.144 159.782 112.178 158.516 114.537C157.178 117.029 159.764 118.607 160.857 123.74C162.53 131.598 158.212 134.944 160.187 142.833C160.853 145.491 161.941 147.499 162.674 148.686C164.148 149.698 166.469 151.053 169.531 151.848C173.988 153.005 176.052 151.947 181.907 151.796C191.484 151.551 193.139 154.199 197.305 152.141C201.514 150.061 204.279 145.153 203.192 143.244C202.54 142.102 200.858 142.988 198.236 141.736C194.857 140.122 195.185 137.51 192.388 135.525C188.37 132.673 185.021 136.167 181.58 133.683C178.1 131.17 177.151 124.435 178.199 120.291C178.883 117.585 178.663 114.722 179.108 111.966C179.145 111.737 179.159 111.376 178.987 110.982C178.326 109.474 175.464 109.411 173.302 109.384C170.005 109.343 167.526 109.965 167.18 110.055L167.182 110.055Z" fill="url(#paint40_linear_266_460)"/>
<path style="mix-blend-mode:multiply" opacity="0.3" d="M196.555 149.17C195.162 148.399 195.671 145.845 193.606 144.683C191.691 143.604 190.409 145.329 187.667 144.731C184.151 143.963 184.057 140.644 180.684 139.863C178.258 139.3 177.67 140.869 174.267 141.217C170.87 141.564 166.293 140.529 163.17 137.154C161.842 135.72 161.036 134.139 160.546 132.657C159.879 135.674 159.127 138.6 160.187 142.833C160.853 145.492 161.941 147.5 162.674 148.686C164.148 149.698 166.469 151.053 169.531 151.848C173.988 153.005 176.052 151.947 181.907 151.797C191.484 151.551 193.139 154.199 197.305 152.141C199.995 150.811 202.09 148.329 202.971 146.211C199.431 149.265 197.565 149.729 196.555 149.17Z" fill="url(#paint41_linear_266_460)"/>
<path d="M164.105 102.863C164.105 102.863 163.111 105.171 163.165 106.73C163.219 108.287 164.96 108.029 164.96 108.029L164.975 109.013C164.988 109.854 164.506 110.623 163.744 110.977L163.074 111.288C163.074 111.288 167.661 111.88 169.978 109.936L169.263 109.925C168.25 109.91 167.389 109.183 167.203 108.187L167.125 107.772C167.125 107.772 167.506 102.87 164.103 102.862L164.105 102.863Z" fill="url(#paint42_linear_266_460)"/>
<path d="M159.199 113.708C158.415 114.306 157.247 115.334 156.282 116.895C153.539 121.337 155.233 125.587 152.77 127.41C152.065 127.932 150.785 128.43 148.319 127.837L147.458 128.417C147.458 128.417 146.937 134.203 153.837 133.694C160.738 133.187 163.271 124.271 163.271 124.271L159.199 113.708L159.199 113.708Z" fill="url(#paint43_linear_266_460)"/>
<path d="M164.987 105.003C165.218 104.965 165.386 104.653 165.552 104.727C165.727 104.805 165.745 105.237 165.624 105.552C165.525 105.81 165.342 105.967 165.239 106.041C165.44 106.275 165.701 106.643 165.839 107.142C166.143 108.246 165.621 109.197 165.418 109.745C164.498 112.216 166.547 115.832 168.61 117.572C170.286 118.987 170.958 118.307 171.986 119.491C172.937 120.584 172.477 125.67 172.933 127.923C173.758 132.004 179.274 134.567 182.938 135.274C187.25 136.107 192.708 135.086 196.11 131.169C198.549 128.362 199.685 124.373 199.262 121.51C199.133 120.634 198.589 117.313 195.641 114.809C195.173 114.413 192.402 112.066 188.942 112.322C187.11 112.457 186.794 113.134 185.361 112.85C183.398 112.462 182.073 110.816 181.25 109.795C179.737 107.917 180.25 107.446 179.199 106.548C177.14 104.787 175.037 106.479 172.867 104.954C170.729 103.451 171.748 101.088 169.698 99.8037C167.583 98.4799 163.816 99.3158 163.151 101.157C162.579 102.739 164.277 105.122 164.986 105.004L164.987 105.003Z" fill="url(#paint44_linear_266_460)"/>
<path d="M128.995 117.194C129.467 117.373 136.671 120.239 138.151 127.763C138.271 128.371 139.428 134.834 135.047 139.401C130.135 144.522 120.677 144.395 116.922 140.114C116.047 139.116 115.585 138.009 115.326 137.08L116.315 134.45C117.523 132.992 119.166 132.647 120.044 132.43C122.207 131.897 123.841 132.861 125.08 131.817C125.766 131.24 125.902 130.407 126.024 129.665C126.439 127.135 125.011 125.577 124.908 124.018C124.83 122.852 124.422 120.296 125.944 118.629C126.907 117.573 128.241 117.286 128.995 117.194Z" fill="url(#paint45_linear_266_460)"/>
<path d="M131.8 201.044C131.884 200.581 133.379 200.161 134.119 200.781C134.486 201.089 134.739 201.713 134.527 201.996C134.449 202.098 134.766 202.279 134.463 202.282C133.456 202.295 131.716 201.504 131.8 201.044Z" fill="url(#paint46_linear_266_460)"/>
<path d="M133.369 201.212L134.906 200.995C134.194 200.137 134.326 197.404 134.326 197.404L132.691 197.77C132.691 197.77 132.878 198.52 133.195 199.626C133.303 200.005 133.352 200.597 133.37 201.212H133.369Z" fill="url(#paint47_linear_266_460)"/>
<path d="M133.23 201.023C133.23 201.023 135.081 200.596 135.281 200.963C135.481 201.331 135.636 202.314 134.462 202.283C133.288 202.251 133.126 201.334 133.229 201.023H133.23Z" fill="url(#paint48_linear_266_460)"/>
<path d="M110.709 202.781C110.857 202.334 112.395 202.128 113.041 202.846C113.362 203.202 113.525 203.856 113.275 204.106C113.185 204.197 113.473 204.419 113.172 204.381C112.173 204.252 110.561 203.225 110.709 202.781V202.781Z" fill="url(#paint49_linear_266_460)"/>
<path d="M112.238 203.166H113.791C113.206 202.217 113.719 199.53 113.719 199.53L112.049 199.663C112.049 199.663 112.128 200.432 112.288 201.571C112.342 201.961 112.307 202.555 112.239 203.166H112.238Z" fill="url(#paint50_linear_266_460)"/>
<path d="M108.214 144.415C107.495 146.791 106.468 150.627 105.807 155.44C103.921 169.167 107.929 169.605 107.181 184.816C106.942 189.672 111.384 200.868 111.776 201.116C111.965 201.134 112.171 201.146 112.39 201.14C112.776 201.128 113.322 201.069 113.955 200.879C114.659 200.758 117.195 193.88 116.607 189.791C116.191 186.897 116.312 183.792 116.553 177.58C116.592 176.573 119.166 157.998 119.166 157.998C119.949 164.874 120.849 170.716 121.629 175.245C124.136 189.797 132.288 198.605 132.714 198.746C132.798 198.78 133.562 199.058 134.188 198.645C134.467 198.462 134.562 198.225 134.562 198.225C134.779 198.055 134.497 183.697 132.011 172.891C128.401 157.207 129.973 153.537 128.829 146.532C127.84 140.47 108.214 144.414 108.214 144.414V144.415Z" fill="url(#paint51_linear_266_460)"/>
<path d="M107.249 146.784C109.416 147.898 114.998 149.892 121.652 148.901C124.601 148.461 126.976 147.497 128.679 146.613C128.731 146.587 128.783 146.561 128.832 146.535C127.104 141.305 128.458 138.506 129.097 135.927C130.009 132.249 130.023 132.527 130.773 129.605C132.01 124.783 132.213 119.857 131.363 118.851C129.071 116.133 124.939 116.034 122.795 115.969C120.399 115.899 114.889 115.054 111.857 117.785C111.805 117.831 112.426 118.164 112.119 118.524C111.836 118.857 110.861 120.024 109.977 121.601C109.338 122.743 108.758 124.074 108.176 126.056C107.149 129.553 106.853 132.534 106.755 133.832C106.723 134.261 106.695 134.677 106.669 135.077C106.266 141.522 106.778 144.632 107.248 146.786L107.249 146.784Z" fill="url(#paint52_linear_266_460)"/>
<path d="M112.129 202.96C112.129 202.96 114.021 202.797 114.167 203.188C114.314 203.58 114.33 204.576 113.172 204.38C112.014 204.184 111.981 203.254 112.128 202.96H112.129Z" fill="url(#paint53_linear_266_460)"/>
<path d="M115.898 112.904C115.245 111.6 115.674 110.192 115.771 109.887C116.172 108.615 116.302 108.426 116.562 108.169L116.926 107.834C116.926 107.834 116.948 107.819 116.972 107.806C117.219 107.66 118.12 107.457 118.31 107.461C118.92 107.473 120.005 109.741 120.479 113.154C120.528 113.278 120.577 113.403 120.625 113.53C120.923 114.317 121.172 115.088 121.38 115.837C125.464 116.473 126.001 116.995 126 117.275C125.997 117.864 123.609 118.378 121.83 118.513C117.951 118.807 114.075 117.518 114.143 116.802C114.173 116.491 114.965 116.137 118.249 115.938C118.211 115.394 118.173 114.85 118.134 114.305C117.873 114.228 116.38 113.866 115.898 112.905L115.898 112.904Z" fill="url(#paint54_linear_266_460)"/>
<path d="M115.523 107.108C115.728 108.154 116.436 109.176 116.722 109.307C116.758 109.324 116.969 109.433 117.18 109.648C117.208 109.677 117.236 109.712 117.263 109.76C117.619 110.375 116.722 111.353 116.981 111.61C117.169 111.795 117.826 111.371 117.946 111.54C118.059 111.698 117.537 112.173 117.668 112.364C117.767 112.509 118.103 112.295 118.38 112.491C118.517 112.588 118.502 112.691 118.694 113.034C118.803 113.229 118.943 113.437 119.041 113.549C119.521 114.093 120.588 114.121 120.738 113.836C120.779 113.757 120.721 113.709 120.732 113.468C120.732 113.468 120.743 113.245 120.843 112.97C120.987 112.576 121.45 112.226 121.894 111.755C122.715 110.882 122.862 110.245 122.902 110.032C122.916 109.957 122.923 109.9 122.928 109.859C123.027 109.039 122.81 107.907 122.329 107.277C121.524 106.222 120.321 107.028 119.026 106.08C117.532 104.984 117.917 103.019 117.207 102.947C116.424 102.868 115.142 105.174 115.522 107.107L115.523 107.108Z" fill="#26264F"/>
<path d="M117.311 111.292C117.5 110.89 118.014 111.134 118.105 111.589C118.196 112.045 117.845 112.604 117.4 112.597C116.955 112.589 117.058 111.833 117.312 111.292H117.311Z" fill="url(#paint55_linear_266_460)"/>
<path d="M128.066 143.295C128.071 143.295 128.076 143.295 128.081 143.294C128.157 143.286 128.212 143.216 128.204 143.14C127.922 140.602 128.448 138.756 128.912 137.128C129.026 136.729 129.137 136.342 129.231 135.96C129.747 133.877 129.973 133.072 130.213 132.219C130.37 131.66 130.53 131.086 130.781 130.123C130.8 130.049 130.756 129.973 130.681 129.953C130.606 129.932 130.53 129.979 130.511 130.053C130.261 131.015 130.1 131.586 129.944 132.145C129.703 132.999 129.477 133.806 128.96 135.894C128.867 136.273 128.757 136.657 128.644 137.052C128.173 138.705 127.639 140.579 127.927 143.171C127.934 143.243 127.995 143.295 128.065 143.295L128.066 143.295Z" fill="url(#paint56_linear_266_460)"/>
<path style="mix-blend-mode:multiply" opacity="0.4" d="M107.249 146.784C109.416 147.898 114.998 149.892 121.652 148.901C124.601 148.461 126.976 147.497 128.679 146.613C127.907 146.012 126.956 145.006 125.383 143.295C123.478 141.224 121.246 141.997 119.934 142.777C118.988 143.337 117.815 143.352 116.857 142.822C115.895 142.289 115.287 141.287 115.258 140.19C115.242 139.685 115.266 139.11 115.328 138.46C115.778 133.75 109.258 133.35 109.258 133.35C108.337 132.871 107.464 133.644 106.669 135.076C106.266 141.521 106.778 144.631 107.248 146.785L107.249 146.784Z" fill="url(#paint57_linear_266_460)"/>
<path d="M84.4536 125.804C84.7158 125.829 85.0336 126.095 85.2567 126.222C85.5737 126.402 85.8937 126.579 86.2167 126.747C86.8409 127.073 87.502 127.314 88.2164 127.301C88.1968 127.2 88.1615 127.098 88.121 127C88 126.716 87.8408 126.472 87.9362 126.387C88.0721 126.264 88.6716 126.519 89.2252 127.049C89.4491 127.26 89.6624 127.52 89.8374 127.816C90.1199 128.297 90.0718 128.561 90.3084 128.928C90.6593 129.243 90.9229 129.312 90.9229 129.312V129.413L90.8831 129.536C91.1971 129.776 91.5517 129.917 91.8296 130.01C91.3406 130.141 90.8636 130.275 90.3768 130.409L90.0388 130.973C90.0388 130.973 88.1961 130.586 87.0851 129.912C86.5652 129.596 86.3865 129.204 86.3429 128.88C86.3121 128.663 86.3429 128.479 86.3714 128.36C86.3947 128.275 86.4158 128.223 86.4158 128.223C86.4158 128.223 84.8976 127.592 84.2981 126.228C84.2072 126.022 84.199 125.78 84.4544 125.805L84.4536 125.804Z" fill="url(#paint58_linear_266_460)"/>
<path d="M90.8828 128.744C90.0159 129.35 89.5517 130.174 89.3105 130.701C89.9476 132.197 91.3929 134.976 94.3834 137.024C99.2872 140.382 106.478 140.494 111.486 136.665C117.469 132.091 118.469 123.318 115.956 119.561C115.667 119.129 114.716 117.707 113.239 117.543C112.307 117.44 111.037 117.825 109.032 120.175C104.854 125.071 106.329 128.127 103.86 129.56C100.159 131.708 94.6576 126.1 90.8828 128.743V128.744Z" fill="url(#paint59_linear_266_460)"/>
<path d="M69.9278 102.172C69.6807 101.789 69.2292 100.972 69.2007 99.876C69.1444 97.7463 70.7234 96.085 70.9352 96.1804C71.0494 96.2316 70.9044 96.8562 70.8233 97.1321C70.6542 97.708 70.4725 97.7636 70.4875 98.0282C70.519 98.5725 71.304 98.5936 71.7187 99.316C72.0169 99.8362 72.041 100.577 71.7187 101.164C71.1838 102.137 69.9789 102.171 69.9278 102.172Z" fill="url(#paint60_linear_266_460)"/>
<path d="M36.2082 148.432L36.8152 146.343L34.2821 144.464L32.7031 143.873L33.6384 146.797L36.2082 148.432Z" fill="url(#paint61_linear_266_460)"/>
<path d="M39.3416 190.512C39.3416 190.512 37.9564 194 38.3207 195.547C36.8334 195.518 35.8711 195.328 35.8711 195.328C35.8711 195.328 36.469 193.737 36.5855 192.95C36.7432 191.885 36.7312 190.162 36.7312 190.162L39.3416 190.512V190.512Z" fill="url(#paint62_linear_266_460)"/>
<path d="M54.6147 198.67C54.5253 198.778 54.366 199.004 54.3525 199.31C54.345 199.477 54.3833 199.614 54.4314 199.74C54.6673 200.361 55.0383 200.444 55.4387 201.104C55.6836 201.507 55.637 201.629 55.8609 201.811C56.1561 202.051 56.5137 202.064 56.8232 202.068C57.3468 202.074 58.1002 202.055 59.049 201.942C58.5517 201.301 58.0228 200.649 57.4609 199.991C57.2146 199.703 56.9682 199.422 56.7225 199.147L55.2607 198.652C55.0451 198.658 54.8295 198.663 54.6139 198.669L54.6147 198.67Z" fill="#26264F"/>
<path d="M55.8286 191.566C55.8286 191.566 56.6639 195.93 55.601 197.151C54.6951 198.373 56.0382 197.502 56.0382 197.502L57.642 198.903L58.6043 200.566C58.6043 200.566 57.7186 196.296 57.9545 194.601C58.1904 192.907 58.3091 191.763 58.3091 191.763L55.8279 191.566H55.8286Z" fill="url(#paint63_linear_266_460)"/>
<path d="M58.9829 143.839C58.9829 143.839 61.2275 145.849 61.2275 154.126C61.2275 162.402 60.1638 180.375 60.1638 180.375L58.4624 193.242C58.4624 193.242 56.6978 193.305 55.5169 192.95C54.454 188.102 52.721 179.902 53.548 173.044C53.9026 165.595 50.5943 156.255 50.5943 156.255C50.5943 156.255 47.7586 165.714 45.7499 170.443C43.7412 175.173 39.9176 189.989 39.5631 191.053C37.2126 191.267 36.209 190.644 36.209 190.644C36.209 190.644 37.7159 174.7 39.1334 168.67C40.5509 162.64 40.433 148.097 42.7962 143.958C48.1132 141.83 58.9829 143.84 58.9829 143.84V143.839Z" fill="url(#paint64_linear_266_460)"/>
<path d="M58.9829 143.839C58.9829 143.839 61.2275 145.849 61.2275 154.126C61.2275 162.402 60.1638 180.375 60.1638 180.375L58.4624 193.242C58.4624 193.242 56.6978 193.305 55.5169 192.95C54.4532 188.102 52.721 179.902 53.548 173.044C53.9026 165.595 50.5943 156.255 50.5943 156.255C50.5943 156.255 47.7586 165.714 45.7499 170.443C43.7412 175.173 39.9176 189.989 39.5631 191.053C37.2126 191.267 36.209 190.644 36.209 190.644C36.209 190.644 37.7159 174.7 39.1334 168.67C40.5509 162.64 40.433 148.097 42.7962 143.958C48.1132 141.83 58.9829 143.84 58.9829 143.84V143.839Z" fill="url(#paint65_linear_266_460)"/>
<path style="mix-blend-mode:multiply" opacity="0.25" d="M47.3202 159.004C46.6201 163.557 45.2206 166.009 41.72 169.161C38.9203 171.263 41.0199 175.816 39.9698 179.319C39.6197 180.37 38.5695 181.42 38.2195 182.471C36.9169 185.078 38.1338 188.266 37.5427 191.027C36.6239 190.9 36.207 190.644 36.207 190.644C36.207 190.644 37.7139 174.7 39.1314 168.67C40.5489 162.64 40.431 148.097 42.7943 143.958C48.1112 141.83 58.981 143.84 58.981 143.84C58.981 143.84 61.2255 145.85 61.2255 154.127C61.2255 154.798 61.2188 155.535 61.2053 156.319C58.8751 158.384 54.108 158.842 51.1686 156.554C50.9913 156.421 50.802 156.339 50.6067 156.299C50.5977 156.273 50.5916 156.255 50.5916 156.255C50.5916 156.255 50.5864 156.272 50.5796 156.296C49.2417 156.052 47.6222 157.79 47.3187 159.005L47.3202 159.004Z" fill="url(#paint66_linear_266_460)"/>
<path d="M38.6866 196.871C38.6866 196.871 39.0321 196.871 39.0028 197.317C38.9743 197.764 39.1583 199.299 37.4028 199.371C35.6472 199.443 35.3768 199.247 35.319 199.247C35.2611 199.247 35.7794 197.778 35.7794 197.778L36.3406 197.058L37.8512 196.899L38.6858 196.871H38.6866Z" fill="#26264F"/>
<path d="M34.799 198.412C34.8365 198.041 35.0438 197.457 35.2519 196.988C35.5622 196.29 35.3075 196.029 35.6035 195.393C35.7056 195.174 35.8056 194.966 36.0219 194.759C36.0715 194.711 36.556 194.263 37.2614 194.286C37.4003 194.29 37.6137 194.299 37.845 194.423C38.117 194.568 38.2537 194.786 38.3701 194.978C38.5534 195.278 38.5114 195.371 38.7931 196.233C38.8156 196.302 38.8652 196.453 38.9035 196.66C38.9328 196.819 38.9448 196.952 38.9501 197.043C38.4896 197.043 36.7198 197.116 36.3464 197.389C35.9723 197.663 35.7853 198.124 35.7853 198.584C35.7853 199.045 35.5554 199.261 35.3248 199.247C35.119 199.234 34.7103 198.853 34.7997 198.412L34.799 198.412Z" fill="#444B8C"/>
<path d="M56.057 196.539C55.6618 196.545 55.3719 196.86 55.1525 197.619C54.9339 198.378 53.8838 199.049 55.109 198.889C56.3342 198.728 57.2236 200.465 57.6608 201.107C58.098 201.749 59.2728 202.32 59.2435 201.692C59.2142 201.064 58.6959 200.771 58.5502 200.129C58.4045 199.487 56.9584 196.525 56.0562 196.539H56.057Z" fill="#444B8C"/>
<path d="M35.2797 144.837C34.9889 144.028 33.1748 138.715 36.1067 133.87C38.5068 129.904 42.6609 128.61 43.2528 128.435C46.8578 127.37 48.6652 128.738 49.8025 127.479C51.7331 125.341 49.5463 118.059 45.3164 116.6C40.5485 114.956 34.8297 121.279 32.5115 125.431C29.4707 130.879 30.2189 136.293 30.3954 137.409C30.8529 140.307 31.9158 142.517 32.7031 143.874C33.5617 144.195 34.4203 144.517 35.2789 144.838L35.2797 144.837Z" fill="url(#paint67_linear_266_460)"/>
<path d="M47.7299 115.572C51.9854 115.401 55.2674 115.469 57.1213 117.323C59.0797 119.282 57.1003 121.492 57.5255 126.615C58.1768 134.457 63.1699 136.373 63.5463 144.33C63.6732 147.011 63.2195 149.202 62.8672 150.521C61.7712 151.887 59.9774 153.815 57.3302 155.427C53.478 157.772 51.244 157.363 45.7114 158.879C36.6618 161.357 35.8565 164.309 31.3696 163.557C26.8347 162.797 22.8556 158.977 23.3364 156.88C23.6241 155.624 25.4525 155.98 27.5573 154.064C30.2699 151.596 29.2242 149.239 31.2863 146.585C34.249 142.774 38.376 145.104 40.9008 141.801C43.4549 138.46 42.4415 131.876 40.2893 128.288C38.8831 125.944 38.2814 123.197 37.0847 120.739C36.9856 120.535 36.8699 120.2 36.921 119.781C37.1155 118.181 39.7815 117.313 41.8007 116.676C44.8806 115.705 47.3806 115.587 47.7307 115.573L47.7299 115.572Z" fill="url(#paint68_linear_266_460)"/>
<path d="M51.3124 115.396L50.4733 115.137C50.4733 115.137 50.254 116.275 47.555 116.417C46.0571 116.417 45.0888 115.577 45.0888 115.577L44.5156 115.996C44.5156 115.996 45.7739 117.568 47.7751 117.529C50.3577 117.477 51.3132 115.397 51.3132 115.397L51.3124 115.396Z" fill="url(#paint69_linear_266_460)"/>
<path d="M49.604 111.937C49.4425 110.689 48.4554 109.888 48.2406 109.717C47.3392 108.999 47.1559 108.927 46.8464 108.869L46.4235 108.805C46.4235 108.805 46.4009 108.805 46.3776 108.807C46.1297 108.822 45.3883 109.111 45.2531 109.207C44.8219 109.51 45.1397 111.658 46.446 114.328C46.4971 114.554 46.5489 114.78 46.6 115.007C45.4619 115.207 45.1795 115.413 45.1705 115.576C45.1509 115.932 46.3972 116.385 47.5525 116.415C49.0008 116.451 50.5392 115.828 50.5099 115.362C50.4979 115.173 50.2245 114.941 49.1728 114.713C49.0083 114.482 48.8438 114.251 48.68 114.02C48.8295 113.838 49.7234 112.858 49.6048 111.938L49.604 111.937Z" fill="url(#paint70_linear_266_460)"/>
<path d="M47.8111 111.466C47.4829 111.27 47.232 111.693 47.3867 112.063C47.5415 112.432 48.0613 112.664 48.3768 112.443C48.6923 112.223 48.2528 111.731 47.8104 111.466H47.8111Z" fill="url(#paint71_linear_266_460)"/>
<path d="M5.22626 111.461C9.55164 106.764 19.6146 108.052 25.196 111.824C27.7899 113.577 29.121 115.647 32.1851 115.821C34.5146 115.953 38.221 115.077 40.1733 112.551C40.419 112.233 41.403 110.898 42.8799 109.215C43.5311 108.473 44.1787 107.777 45.1823 107.62C45.4369 107.58 46.2858 107.442 46.8462 107.99C47.3006 108.434 47.4118 109.206 47.2774 109.763C47.197 110.096 47.0933 110.132 47.1076 110.349C47.1489 110.961 48.2637 111.228 48.2013 111.536C48.157 111.756 47.5771 111.676 47.4772 111.952C47.3675 112.255 48.0045 112.516 48.2787 113.278C48.7918 113.622 49.1155 114.477 49.2274 115.621C49.392 117.302 49.2237 118.668 48.9052 119.698C47.3728 124.652 46.276 128.195 43.6228 130.174C40.1095 132.794 36.9462 130.375 28.01 129.992C15.773 129.468 12.7224 133.619 8.32419 130.779C2.83296 127.233 0.735623 116.336 5.22626 111.461Z" fill="url(#paint72_linear_266_460)"/>
<path d="M69.4101 101.874C69.5191 102.898 69.8886 107.431 66.7644 111.258C63.8453 114.834 59.7107 115.548 58.943 115.664C55.2261 116.227 53.623 114.623 52.3242 115.716C50.1202 117.569 51.2913 125.082 55.2817 127.105C59.7798 129.386 66.3092 123.906 69.1728 120.11C72.9295 115.129 72.928 109.663 72.9054 108.534C72.8483 105.601 72.0979 103.266 71.503 101.813C71.2588 101.74 70.887 101.659 70.431 101.674C69.9968 101.689 69.646 101.787 69.4116 101.873L69.4101 101.874Z" fill="url(#paint73_linear_266_460)"/>
<path style="mix-blend-mode:multiply" opacity="0.3" d="M31.2325 160.559C32.321 159.443 31.1228 157.191 32.7304 155.518C34.2223 153.965 35.9109 155.219 38.3133 153.883C41.3939 152.168 40.5451 149.029 43.4875 147.342C45.6036 146.129 46.5974 147.433 49.8869 146.797C53.1704 146.162 57.1697 143.897 59.1454 139.848C59.9852 138.128 60.294 136.418 60.3353 134.889C61.8121 137.53 63.3438 140.06 63.5459 144.33C63.6728 147.011 63.2191 149.202 62.8668 150.522C61.7708 151.888 59.9769 153.815 57.3297 155.427C53.4776 157.772 51.2436 157.363 45.711 158.879C36.6614 161.357 35.8561 164.309 31.3692 163.557C28.4711 163.071 25.8059 161.336 24.3809 159.599C28.5628 161.462 30.4437 161.369 31.2333 160.559H31.2325Z" fill="url(#paint74_linear_266_460)"/>
<defs>
<linearGradient id="paint0_linear_266_460" x1="-2.94995" y1="55.501" x2="211.48" y2="163.594" gradientUnits="userSpaceOnUse">
<stop stop-color="#AA80F9"/>
<stop offset="1" stop-color="#6165D7"/>
</linearGradient>
<linearGradient id="paint1_linear_266_460" x1="56.2298" y1="3.23276" x2="79.6569" y2="130.091" gradientUnits="userSpaceOnUse">
<stop stop-color="#FFC444"/>
<stop offset="1" stop-color="#F36F56"/>
</linearGradient>
<linearGradient id="paint2_linear_266_460" x1="19.4902" y1="129.69" x2="194.953" y2="129.69" gradientUnits="userSpaceOnUse">
<stop offset="0.49" stop-color="#EBEFF2"/>
<stop offset="1" stop-color="white"/>
</linearGradient>
<linearGradient id="paint3_linear_266_460" x1="96.3548" y1="121.533" x2="123.437" y2="59.0031" gradientUnits="userSpaceOnUse">
<stop stop-color="#FF9085"/>
<stop offset="1" stop-color="#FB6FBB"/>
</linearGradient>
<linearGradient id="paint4_linear_266_460" x1="65.3673" y1="111.207" x2="105.368" y2="18.85" gradientUnits="userSpaceOnUse">
<stop stop-color="#FF9085"/>
<stop offset="1" stop-color="#FB6FBB"/>
</linearGradient>
<linearGradient id="paint5_linear_266_460" x1="79.0174" y1="53.1374" x2="92.201" y2="29.0848" gradientUnits="userSpaceOnUse">
<stop stop-color="#FFC444"/>
<stop offset="1" stop-color="#F36F56"/>
</linearGradient>
<linearGradient id="paint6_linear_266_460" x1="78.5253" y1="43.6877" x2="90.191" y2="28.6382" gradientUnits="userSpaceOnUse">
<stop stop-color="#444B8C"/>
<stop offset="1" stop-color="#26264F"/>
</linearGradient>
<linearGradient id="paint7_linear_266_460" x1="87.9568" y1="33.1293" x2="81.9292" y2="58.2729" gradientUnits="userSpaceOnUse">
<stop stop-color="#FFC444"/>
<stop offset="1" stop-color="#F36F56"/>
</linearGradient>
<linearGradient id="paint8_linear_266_460" x1="80.332" y1="45.0998" x2="92.0092" y2="30.0349" gradientUnits="userSpaceOnUse">
<stop stop-color="#444B8C"/>
<stop offset="1" stop-color="#26264F"/>
</linearGradient>
<linearGradient id="paint9_linear_266_460" x1="89.8821" y1="36.7538" x2="88.6249" y2="39.7601" gradientUnits="userSpaceOnUse">
<stop stop-color="#FFC444"/>
<stop offset="1" stop-color="#F36F56"/>
</linearGradient>
<linearGradient id="paint10_linear_266_460" x1="60.7508" y1="92.034" x2="62.6073" y2="97.6977" gradientUnits="userSpaceOnUse">
<stop stop-color="#FFC444"/>
<stop offset="1" stop-color="#F36F56"/>
</linearGradient>
<linearGradient id="paint11_linear_266_460" x1="34.7506" y1="97.9482" x2="74.7514" y2="5.59074" gradientUnits="userSpaceOnUse">
<stop stop-color="#FF9085"/>
<stop offset="1" stop-color="#FB6FBB"/>
</linearGradient>
<linearGradient id="paint12_linear_266_460" x1="72.7084" y1="114.388" x2="112.709" y2="22.0302" gradientUnits="userSpaceOnUse">
<stop stop-color="#FF9085"/>
<stop offset="1" stop-color="#FB6FBB"/>
</linearGradient>
<linearGradient id="paint13_linear_266_460" x1="135.378" y1="56.9071" x2="111.131" y2="74.3521" gradientUnits="userSpaceOnUse">
<stop stop-color="#311944"/>
<stop offset="1" stop-color="#893976"/>
</linearGradient>
<linearGradient id="paint14_linear_266_460" x1="133.541" y1="54.3528" x2="108.41" y2="72.4342" gradientUnits="userSpaceOnUse">
<stop stop-color="#311944"/>
<stop offset="1" stop-color="#893976"/>
</linearGradient>
<linearGradient id="paint15_linear_266_460" x1="124.796" y1="41.131" x2="110.883" y2="51.1422" gradientUnits="userSpaceOnUse">
<stop stop-color="#E38DDD"/>
<stop offset="1" stop-color="#9571F6"/>
</linearGradient>
<linearGradient id="paint16_linear_266_460" x1="145.147" y1="17.5663" x2="139.072" y2="111.384" gradientUnits="userSpaceOnUse">
<stop stop-color="#AA80F9"/>
<stop offset="1" stop-color="#6165D7"/>
</linearGradient>
<linearGradient id="paint17_linear_266_460" x1="139.263" y1="21.8951" x2="133.606" y2="109.266" gradientUnits="userSpaceOnUse">
<stop stop-color="#AA80F9"/>
<stop offset="1" stop-color="#6165D7"/>
</linearGradient>
<linearGradient id="paint18_linear_266_460" x1="152.835" y1="33.1506" x2="177.127" y2="82.168" gradientUnits="userSpaceOnUse">
<stop stop-color="#E38DDD"/>
<stop offset="1" stop-color="#9571F6"/>
</linearGradient>
<linearGradient id="paint19_linear_266_460" x1="137.376" y1="50.0538" x2="184.163" y2="62.9397" gradientUnits="userSpaceOnUse">
<stop stop-color="#311944"/>
<stop offset="1" stop-color="#893976"/>
</linearGradient>
<linearGradient id="paint20_linear_266_460" x1="154.777" y1="25.2813" x2="150.916" y2="84.8978" gradientUnits="userSpaceOnUse">
<stop stop-color="#FFC444"/>
<stop offset="1" stop-color="#F36F56"/>
</linearGradient>
<linearGradient id="paint21_linear_266_460" x1="160.177" y1="34.5161" x2="157.34" y2="78.3295" gradientUnits="userSpaceOnUse">
<stop stop-color="#FFC444"/>
<stop offset="1" stop-color="#F36F56"/>
</linearGradient>
<linearGradient id="paint22_linear_266_460" x1="129.967" y1="72.1092" x2="125.837" y2="89.6631" gradientUnits="userSpaceOnUse">
<stop stop-color="#FFC444"/>
<stop offset="1" stop-color="#F36F56"/>
</linearGradient>
<linearGradient id="paint23_linear_266_460" x1="50.3005" y1="63.4265" x2="53.1097" y2="64.4694" gradientUnits="userSpaceOnUse">
<stop stop-color="#444B8C"/>
<stop offset="1" stop-color="#26264F"/>
</linearGradient>
<linearGradient id="paint24_linear_266_460" x1="42.4315" y1="73.0864" x2="50.2638" y2="86.2107" gradientUnits="userSpaceOnUse">
<stop stop-color="#AA80F9"/>
<stop offset="1" stop-color="#6165D7"/>
</linearGradient>
<linearGradient id="paint25_linear_266_460" x1="43.6412" y1="72.3649" x2="51.4734" y2="85.4891" gradientUnits="userSpaceOnUse">
<stop stop-color="#AA80F9"/>
<stop offset="1" stop-color="#6165D7"/>
</linearGradient>
<linearGradient id="paint26_linear_266_460" x1="56.0498" y1="78.3759" x2="78.0893" y2="95.3437" gradientUnits="userSpaceOnUse">
<stop stop-color="#AA80F9"/>
<stop offset="1" stop-color="#6165D7"/>
</linearGradient>
<linearGradient id="paint27_linear_266_460" x1="55.4189" y1="71.3749" x2="55.7803" y2="71.5093" gradientUnits="userSpaceOnUse">
<stop stop-color="#444B8C"/>
<stop offset="1" stop-color="#26264F"/>
</linearGradient>
<linearGradient id="paint28_linear_266_460" x1="60.3781" y1="58.5821" x2="62.6282" y2="72.9168" gradientUnits="userSpaceOnUse">
<stop stop-color="#444B8C"/>
<stop offset="1" stop-color="#26264F"/>
</linearGradient>
<linearGradient id="paint29_linear_266_460" x1="56.3371" y1="78.0059" x2="78.3766" y2="94.9736" gradientUnits="userSpaceOnUse">
<stop stop-color="#AA80F9"/>
<stop offset="1" stop-color="#6165D7"/>
</linearGradient>
<linearGradient id="paint30_linear_266_460" x1="67.1167" y1="71.2924" x2="67.4781" y2="71.4261" gradientUnits="userSpaceOnUse">
<stop stop-color="#444B8C"/>
<stop offset="1" stop-color="#26264F"/>
</linearGradient>
<linearGradient id="paint31_linear_266_460" x1="58.5012" y1="92.7381" x2="64.4209" y2="97.2954" gradientUnits="userSpaceOnUse">
<stop stop-color="#FFC444"/>
<stop offset="1" stop-color="#F36F56"/>
</linearGradient>
<linearGradient id="paint32_linear_266_460" x1="145.288" y1="123.19" x2="149.982" y2="131.94" gradientUnits="userSpaceOnUse">
<stop stop-color="#FFC444"/>
<stop offset="0.46" stop-color="#FEC244"/>
<stop offset="0.63" stop-color="#FDBB45"/>
<stop offset="0.75" stop-color="#FCAF48"/>
<stop offset="0.84" stop-color="#F99E4B"/>
<stop offset="0.93" stop-color="#F68850"/>
<stop offset="1" stop-color="#F36F56"/>
</linearGradient>
<linearGradient id="paint33_linear_266_460" x1="173.527" y1="195.909" x2="175.948" y2="182.346" gradientUnits="userSpaceOnUse">
<stop stop-color="#444B8C"/>
<stop offset="1" stop-color="#26264F"/>
</linearGradient>
<linearGradient id="paint34_linear_266_460" x1="176.643" y1="192.954" x2="174.147" y2="171.918" gradientUnits="userSpaceOnUse">
<stop stop-color="#FFC444"/>
<stop offset="1" stop-color="#F36F56"/>
</linearGradient>
<linearGradient id="paint35_linear_266_460" x1="168.905" y1="193.872" x2="166.41" y2="172.836" gradientUnits="userSpaceOnUse">
<stop stop-color="#FFC444"/>
<stop offset="1" stop-color="#F36F56"/>
</linearGradient>
<linearGradient id="paint36_linear_266_460" x1="167.539" y1="194.841" x2="169.959" y2="181.277" gradientUnits="userSpaceOnUse">
<stop stop-color="#444B8C"/>
<stop offset="1" stop-color="#26264F"/>
</linearGradient>
<linearGradient id="paint37_linear_266_460" x1="173.087" y1="147.347" x2="180.175" y2="190.583" gradientUnits="userSpaceOnUse">
<stop stop-color="#311944"/>
<stop offset="1" stop-color="#A03976"/>
</linearGradient>
<linearGradient id="paint38_linear_266_460" x1="173.087" y1="147.347" x2="180.175" y2="190.583" gradientUnits="userSpaceOnUse">
<stop stop-color="#FF9085"/>
<stop offset="1" stop-color="#FB6FBB"/>
</linearGradient>
<linearGradient id="paint39_linear_266_460" x1="145.847" y1="169.33" x2="181.049" y2="163.53" gradientUnits="userSpaceOnUse">
<stop stop-color="#311944"/>
<stop offset="1" stop-color="#A03976"/>
</linearGradient>
<linearGradient id="paint40_linear_266_460" x1="186.533" y1="119.616" x2="164.868" y2="159.995" gradientUnits="userSpaceOnUse">
<stop stop-color="#FF9085"/>
<stop offset="1" stop-color="#FB6FBB"/>
</linearGradient>
<linearGradient id="paint41_linear_266_460" x1="154.501" y1="116.747" x2="185.135" y2="149.918" gradientUnits="userSpaceOnUse">
<stop stop-color="#FF9085"/>
<stop offset="1" stop-color="#FB6FBB"/>
</linearGradient>
<linearGradient id="paint42_linear_266_460" x1="163.43" y1="106.059" x2="168.83" y2="112.847" gradientUnits="userSpaceOnUse">
<stop stop-color="#FFC444"/>
<stop offset="0.46" stop-color="#FEC244"/>
<stop offset="0.63" stop-color="#FDBB45"/>
<stop offset="0.75" stop-color="#FCAF48"/>
<stop offset="0.84" stop-color="#F99E4B"/>
<stop offset="0.93" stop-color="#F68850"/>
<stop offset="1" stop-color="#F36F56"/>
</linearGradient>
<linearGradient id="paint43_linear_266_460" x1="165.265" y1="108.204" x2="143.601" y2="148.583" gradientUnits="userSpaceOnUse">
<stop stop-color="#FF9085"/>
<stop offset="1" stop-color="#FB6FBB"/>
</linearGradient>
<linearGradient id="paint44_linear_266_460" x1="175.232" y1="98.6423" x2="188.977" y2="133.543" gradientUnits="userSpaceOnUse">
<stop stop-color="#444B8C"/>
<stop offset="1" stop-color="#26264F"/>
</linearGradient>
<linearGradient id="paint45_linear_266_460" x1="125.029" y1="141.993" x2="131.261" y2="117.082" gradientUnits="userSpaceOnUse">
<stop stop-color="#AA80F9"/>
<stop offset="1" stop-color="#6165D7"/>
</linearGradient>
<linearGradient id="paint46_linear_266_460" x1="130.994" y1="199.713" x2="134.286" y2="201.899" gradientUnits="userSpaceOnUse">
<stop stop-color="#444B8C"/>
<stop offset="1" stop-color="#26264F"/>
</linearGradient>
<linearGradient id="paint47_linear_266_460" x1="134.184" y1="201.924" x2="133.463" y2="196.827" gradientUnits="userSpaceOnUse">
<stop stop-color="#FFC444"/>
<stop offset="1" stop-color="#F36F56"/>
</linearGradient>
<linearGradient id="paint48_linear_266_460" x1="131.241" y1="199.341" x2="134.533" y2="201.527" gradientUnits="userSpaceOnUse">
<stop stop-color="#444B8C"/>
<stop offset="1" stop-color="#26264F"/>
</linearGradient>
<linearGradient id="paint49_linear_266_460" x1="110.074" y1="201.34" x2="113.028" y2="203.966" gradientUnits="userSpaceOnUse">
<stop stop-color="#444B8C"/>
<stop offset="1" stop-color="#26264F"/>
</linearGradient>
<linearGradient id="paint50_linear_266_460" x1="112.919" y1="203.974" x2="112.919" y2="198.827" gradientUnits="userSpaceOnUse">
<stop stop-color="#FFC444"/>
<stop offset="1" stop-color="#F36F56"/>
</linearGradient>
<linearGradient id="paint51_linear_266_460" x1="112.676" y1="206.334" x2="131.956" y2="128.552" gradientUnits="userSpaceOnUse">
<stop stop-color="#444B8C"/>
<stop offset="1" stop-color="#26264F"/>
</linearGradient>
<linearGradient id="paint52_linear_266_460" x1="97.0514" y1="148.343" x2="145.756" y2="114.495" gradientUnits="userSpaceOnUse">
<stop stop-color="#AA80F9"/>
<stop offset="1" stop-color="#6165D7"/>
</linearGradient>
<linearGradient id="paint53_linear_266_460" x1="110.372" y1="201.007" x2="113.326" y2="203.633" gradientUnits="userSpaceOnUse">
<stop stop-color="#444B8C"/>
<stop offset="1" stop-color="#26264F"/>
</linearGradient>
<linearGradient id="paint54_linear_266_460" x1="113.231" y1="107.054" x2="127.792" y2="128.241" gradientUnits="userSpaceOnUse">
<stop stop-color="#FFC444"/>
<stop offset="1" stop-color="#F36F56"/>
</linearGradient>
<linearGradient id="paint55_linear_266_460" x1="113.94" y1="106.565" x2="128.501" y2="127.753" gradientUnits="userSpaceOnUse">
<stop stop-color="#FFC444"/>
<stop offset="1" stop-color="#F36F56"/>
</linearGradient>
<linearGradient id="paint56_linear_266_460" x1="130.787" y1="136.621" x2="127.846" y2="136.621" gradientUnits="userSpaceOnUse">
<stop stop-color="#6165D7"/>
<stop offset="1" stop-color="#AA80F9"/>
</linearGradient>
<linearGradient id="paint57_linear_266_460" x1="128.678" y1="141.188" x2="106.524" y2="141.188" gradientUnits="userSpaceOnUse">
<stop stop-color="#AA80F9"/>
<stop offset="1" stop-color="#6165D7"/>
</linearGradient>
<linearGradient id="paint58_linear_266_460" x1="89.4153" y1="126.22" x2="84.9935" y2="131.778" gradientUnits="userSpaceOnUse">
<stop stop-color="#FFC444"/>
<stop offset="1" stop-color="#F36F56"/>
</linearGradient>
<linearGradient id="paint59_linear_266_460" x1="138.231" y1="151.039" x2="91.6851" y2="118.691" gradientUnits="userSpaceOnUse">
<stop stop-color="#AA80F9"/>
<stop offset="1" stop-color="#6165D7"/>
</linearGradient>
<linearGradient id="paint60_linear_266_460" x1="69.8001" y1="98.1478" x2="72.2389" y2="102.09" gradientUnits="userSpaceOnUse">
<stop stop-color="#FFC444"/>
<stop offset="1" stop-color="#F36F56"/>
</linearGradient>
<linearGradient id="paint61_linear_266_460" x1="35.1047" y1="144.818" x2="34.1202" y2="146.842" gradientUnits="userSpaceOnUse">
<stop stop-color="#FFC444"/>
<stop offset="1" stop-color="#F36F56"/>
</linearGradient>
<linearGradient id="paint62_linear_266_460" x1="37.6064" y1="196.363" x2="37.6064" y2="190.013" gradientUnits="userSpaceOnUse">
<stop stop-color="#FFC444"/>
<stop offset="1" stop-color="#F36F56"/>
</linearGradient>
<linearGradient id="paint63_linear_266_460" x1="56.9456" y1="198.174" x2="56.9456" y2="190.521" gradientUnits="userSpaceOnUse">
<stop stop-color="#FFC444"/>
<stop offset="1" stop-color="#F36F56"/>
</linearGradient>
<linearGradient id="paint64_linear_266_460" x1="61.2275" y1="168.112" x2="36.209" y2="168.112" gradientUnits="userSpaceOnUse">
<stop stop-color="#311944"/>
<stop offset="1" stop-color="#893976"/>
</linearGradient>
<linearGradient id="paint65_linear_266_460" x1="62.023" y1="149.448" x2="43.9783" y2="179.733" gradientUnits="userSpaceOnUse">
<stop stop-color="#311944"/>
<stop offset="1" stop-color="#893976"/>
</linearGradient>
<linearGradient id="paint66_linear_266_460" x1="54.926" y1="145.22" x2="36.8813" y2="175.506" gradientUnits="userSpaceOnUse">
<stop stop-color="#311944"/>
<stop offset="1" stop-color="#893976"/>
</linearGradient>
<linearGradient id="paint67_linear_266_460" x1="41.0539" y1="126.598" x2="54.6141" y2="85.0781" gradientUnits="userSpaceOnUse">
<stop stop-color="#FFC444"/>
<stop offset="1" stop-color="#F36F56"/>
</linearGradient>
<linearGradient id="paint68_linear_266_460" x1="58.7131" y1="116.905" x2="39.3571" y2="156.678" gradientUnits="userSpaceOnUse">
<stop stop-color="#FFC444"/>
<stop offset="1" stop-color="#F36F56"/>
</linearGradient>
<linearGradient id="paint69_linear_266_460" x1="50.2908" y1="111.926" x2="46.5925" y2="117.801" gradientUnits="userSpaceOnUse">
<stop stop-color="#FF9085"/>
<stop offset="1" stop-color="#FB6FBB"/>
</linearGradient>
<linearGradient id="paint70_linear_266_460" x1="45.8315" y1="111.025" x2="49.8968" y2="117.596" gradientUnits="userSpaceOnUse">
<stop stop-color="#FFC444"/>
<stop offset="1" stop-color="#F36F56"/>
</linearGradient>
<linearGradient id="paint71_linear_266_460" x1="47.2772" y1="110.131" x2="49.5974" y2="117.24" gradientUnits="userSpaceOnUse">
<stop stop-color="#FFC444"/>
<stop offset="1" stop-color="#F36F56"/>
</linearGradient>
<linearGradient id="paint72_linear_266_460" x1="48.4763" y1="82.9497" x2="14.4109" y2="137.054" gradientUnits="userSpaceOnUse">
<stop stop-color="#444B8C"/>
<stop offset="1" stop-color="#26264F"/>
</linearGradient>
<linearGradient id="paint73_linear_266_460" x1="60.8653" y1="117.833" x2="41.8274" y2="156.951" gradientUnits="userSpaceOnUse">
<stop stop-color="#FFC444"/>
<stop offset="1" stop-color="#F36F56"/>
</linearGradient>
<linearGradient id="paint74_linear_266_460" x1="61.5041" y1="118.264" x2="42.1481" y2="158.037" gradientUnits="userSpaceOnUse">
<stop stop-color="#FFC444"/>
<stop offset="1" stop-color="#F36F56"/>
</linearGradient>
</defs>
</svg>
