<svg width="175" height="176" viewBox="0 0 175 176" fill="none" xmlns="http://www.w3.org/2000/svg">
<path d="M125.034 84.3654C129.291 84.724 133.058 81.2775 133.446 76.6674C133.834 72.0573 130.698 68.0293 126.44 67.6706C126.22 67.652 126.001 67.6496 125.784 67.6514C125.581 65.27 125.209 62.9379 124.675 60.6713C124.877 60.5884 125.079 60.5025 125.278 60.4004C129.159 58.4059 130.852 53.4071 129.06 49.2355C127.268 45.0633 122.668 43.2983 118.787 45.2928C118.584 45.3973 118.391 45.5145 118.2 45.6346C116.933 43.7212 115.53 41.919 114.002 40.2435C114.143 40.0597 114.282 39.8729 114.411 39.674C116.876 35.8611 116.043 30.6496 112.55 28.0339C109.057 25.4183 104.227 26.3891 101.762 30.202C101.635 30.3973 101.524 30.5985 101.414 30.801C99.4428 29.8494 97.384 29.0612 95.2526 28.4448C95.2904 28.213 95.3252 27.9787 95.3451 27.7402C95.7332 23.13 96.5736 17.9252 92.3107 17.6332C82.45 16.958 80.315 21.8312 79.9269 26.4414C79.9071 26.6798 79.9017 26.9165 79.9005 27.1514C77.6957 27.4031 75.5342 27.8351 73.431 28.4436C73.3571 28.2262 73.2808 28.0093 73.1889 27.7954C71.3963 23.6238 71.7201 20.8406 67.6458 22.4037C58.7614 25.8124 57.3412 30.846 59.1332 35.0182C59.2269 35.2363 59.3327 35.4435 59.4408 35.6484C57.6548 37.0445 55.9697 38.5867 54.4005 40.2615C54.2323 40.1114 54.0617 39.9636 53.8791 39.8266C50.3864 37.2109 45.5563 38.1818 43.0909 41.9953C40.626 45.8088 41.4592 51.0197 44.952 53.6354C45.131 53.7693 45.3154 53.8877 45.5005 54.003C44.5945 56.1489 43.8382 58.3861 43.2399 60.6996C43.0254 60.6617 42.8097 60.6275 42.5893 60.6088C38.3318 60.2502 34.5657 63.6967 34.177 68.3068C33.7889 72.917 36.9254 76.945 41.1829 77.3036C41.4034 77.3222 41.6221 77.3246 41.8395 77.3228C42.0426 79.7042 42.4138 82.0363 42.9485 84.3029C42.7461 84.3858 42.5448 84.4717 42.346 84.5732C38.4645 86.5677 36.7716 91.5665 38.5636 95.7381C40.3563 99.9103 44.9556 101.675 48.837 99.6802C49.0401 99.5763 49.2335 99.4592 49.424 99.339C50.6909 101.253 52.0943 103.055 53.622 104.73C53.4808 104.914 53.342 105.101 53.2129 105.3C50.748 109.113 51.5812 114.324 55.074 116.94C58.5667 119.555 66.1283 118.359 68.5932 114.546C68.7194 114.35 66.1001 114.375 66.2088 114.173C68.1805 115.124 70.2392 115.912 72.3707 116.529C72.3328 116.761 72.298 116.995 72.2782 117.233C71.8901 121.844 75.0266 125.872 79.2841 126.23C83.5416 126.589 87.3077 123.142 87.6964 118.532C87.7162 118.293 87.7216 118.057 87.7228 117.822C89.9275 117.57 92.089 117.138 94.1922 116.529C94.2661 116.747 94.3424 116.964 94.4343 117.178C96.227 121.349 100.826 123.114 104.708 121.12C108.589 119.125 110.283 114.126 108.49 109.955C108.396 109.737 108.291 109.529 108.182 109.325C109.968 107.928 111.654 106.386 113.223 104.711C113.39 104.862 113.562 105.009 113.744 105.146C117.237 107.762 122.067 106.791 124.532 102.978C126.997 99.1648 126.164 93.9539 122.671 91.3377C122.492 91.2037 122.308 91.0854 122.123 90.97C123.029 88.8241 123.785 86.587 124.383 84.2735C124.598 84.3113 124.814 84.3456 125.034 84.3642V84.3654ZM81.2587 102.795C65.8003 101.493 54.412 86.8681 55.8213 70.1301C57.2313 53.3921 70.9055 40.8785 86.3639 42.1803C101.822 43.4821 113.211 58.1067 111.801 74.8447C110.391 91.5828 96.7172 104.096 81.2587 102.795Z" fill="#BFC6D1"/>
<path d="M125.277 60.4002C129.159 58.4057 130.851 53.4069 129.059 49.2353C127.267 45.0637 122.667 43.2981 118.786 45.2932C118.583 45.3971 118.39 45.5149 118.199 45.6344C116.932 43.7204 115.529 41.9188 114.001 40.2433C114.142 40.0595 114.281 39.8726 114.41 39.6732C116.875 35.8602 118.769 28.2968 115.026 26.0531C107.922 21.795 104.226 26.3883 101.76 30.2012C101.634 30.3965 101.522 30.5977 101.413 30.7996C99.4414 29.848 97.3826 29.0598 95.2506 28.4434C95.2884 28.2109 95.3233 27.9772 95.3431 27.7387C95.5546 25.2294 94.7165 22.8985 93.2267 21.2321C92.2775 28.441 91.3836 35.656 90.5605 42.8794C103.827 46.2189 113.078 59.6613 111.8 74.8439C110.716 87.7095 102.384 98.0712 91.568 101.589C91.5926 102.996 91.6293 104.405 91.6161 105.814C91.5806 109.635 91.3331 113.465 91.0814 117.29C92.1309 117.078 93.1684 116.825 94.1921 116.529C94.266 116.747 94.3422 116.964 94.4342 117.177C96.2268 121.349 100.231 123.885 107.373 120.534C111.324 118.68 110.282 114.126 108.49 109.955C108.396 109.737 108.29 109.529 108.182 109.324C109.968 107.928 111.653 106.386 113.223 104.712C113.391 104.862 113.561 105.01 113.744 105.147C117.237 107.762 125.073 106.294 127.538 102.481C130.003 98.6672 126.164 93.9537 122.671 91.338C122.492 91.2041 122.308 91.0857 122.122 90.9704C123.028 88.8251 123.784 86.5873 124.383 84.2739C124.597 84.3117 124.813 84.3459 125.033 84.3646C129.291 84.7232 133.057 81.2767 133.445 76.6666C133.834 72.0565 130.697 68.0285 126.44 67.6698C126.219 67.6512 126 67.6488 125.783 67.6506C125.58 65.2692 125.209 62.9371 124.675 60.6705C124.876 60.5876 125.078 60.5017 125.277 60.3996V60.4002Z" fill="#BFC6D1"/>
<path d="M129.007 83.2552C133.264 83.6138 137.03 80.1674 137.419 75.5572C137.807 70.9471 134.67 66.9191 130.413 66.5604C130.193 66.5418 129.974 66.5394 129.756 66.5412C129.553 64.1599 129.182 61.8278 128.648 59.5611C128.85 59.4782 129.052 59.3923 129.251 59.2902C133.132 57.2957 134.825 52.2969 133.033 48.1253C131.24 43.9537 126.641 42.1881 122.759 44.1832C122.556 44.2877 122.364 44.4049 122.173 44.525C120.906 42.6117 119.502 40.8094 117.975 39.1339C118.116 38.9501 118.254 38.7633 118.384 38.5644C120.848 34.7515 120.015 29.54 116.523 26.9243C113.03 24.3087 108.199 25.2795 105.734 29.0924C105.608 29.2877 105.496 29.4889 105.387 29.6914C103.415 28.7398 101.357 27.9516 99.2246 27.3353C99.2625 27.1028 99.2973 26.8691 99.3171 26.6306C99.7052 22.0204 96.5687 17.9924 92.3112 17.6338C88.0537 17.2751 84.2876 20.7216 83.8989 25.3318C83.8791 25.5709 83.8737 25.807 83.8725 26.0424C81.6678 26.2936 79.5063 26.7261 77.4031 27.3347C77.3292 27.1172 77.2529 26.9003 77.161 26.6864C75.3683 22.5149 70.769 20.7499 66.8876 22.7443C63.0062 24.7388 61.3133 29.7376 63.1053 33.9092C63.199 34.1273 63.3047 34.3346 63.4129 34.5394C61.6268 35.9356 59.9418 37.4777 58.3726 39.1526C58.2044 39.0024 58.0338 38.8546 57.8512 38.7176C54.3584 36.102 49.5284 37.0728 47.0629 40.8863C44.5981 44.6999 45.4313 49.9107 48.9241 52.5264C49.1031 52.6604 49.2875 52.7787 49.4731 52.894C48.5672 55.0393 47.8109 57.2771 47.2125 59.5906C46.9981 59.5527 46.7824 59.5185 46.5619 59.4999C42.3044 59.1412 38.5383 62.5877 38.1496 67.1978C37.7616 71.808 40.8981 75.836 45.1556 76.1946C45.376 76.2132 45.5947 76.2157 45.8122 76.2138C46.0152 78.5952 46.3865 80.9273 46.9206 83.1939C46.7187 83.2768 46.5169 83.3627 46.318 83.4643C42.4366 85.4587 40.7437 90.4576 42.5357 94.6291C44.3283 98.8007 48.9277 100.566 52.8091 98.5712C53.0121 98.4673 53.205 98.3502 53.396 98.23C54.663 100.143 56.0663 101.946 57.594 103.621C57.4529 103.805 57.3141 103.992 57.1849 104.191C54.7201 108.004 55.5533 113.215 59.046 115.831C62.5394 118.446 67.3694 117.476 69.8343 113.663C69.9604 113.467 70.0722 113.266 70.1815 113.064C72.1531 114.015 74.2119 114.803 76.3433 115.42C76.3055 115.652 76.2707 115.886 76.2508 116.124C75.8628 120.735 78.9992 124.763 83.2567 125.121C87.5142 125.48 91.2803 122.033 91.669 117.423C91.6894 117.185 91.6942 116.948 91.6954 116.713C93.9002 116.462 96.0617 116.03 98.1649 115.421C98.2388 115.638 98.3151 115.855 98.407 116.069C100.2 120.241 104.799 122.006 108.68 120.011C112.562 118.017 114.255 113.018 112.463 108.846C112.369 108.628 112.263 108.421 112.155 108.216C113.941 106.82 115.626 105.278 117.195 103.604C117.364 103.754 117.534 103.902 117.717 104.038C121.21 106.654 126.04 105.683 128.505 101.87C130.97 98.0564 130.137 92.8449 126.644 90.2293C126.465 90.0953 126.28 89.977 126.095 89.8616C127.001 87.7163 127.757 85.4786 128.355 83.1651C128.57 83.2029 128.786 83.2372 129.006 83.2558L129.007 83.2552ZM85.232 101.684C69.7736 100.382 58.3852 85.7579 59.7946 69.0199C61.2045 52.2819 74.8787 39.7683 90.3372 41.0701C105.796 42.372 117.184 56.9965 115.775 73.7346C114.365 90.4726 100.69 102.986 85.232 101.684Z" fill="#D8DEE8"/>
<path d="M167.561 31.5498C169.357 31.7011 170.945 30.2473 171.109 28.3033C171.272 26.3593 169.95 24.661 168.154 24.5096C168.061 24.5018 167.969 24.5006 167.877 24.5012C167.791 23.4973 167.635 22.5139 167.41 21.5575C167.495 21.5227 167.58 21.4866 167.664 21.4434C169.301 20.6023 170.015 18.4943 169.259 16.7353C168.503 14.9763 166.564 14.232 164.927 15.0731C164.842 15.1169 164.76 15.1668 164.68 15.2172C164.146 14.4104 163.554 13.6505 162.909 12.944C162.969 12.8665 163.028 12.7878 163.082 12.7037C164.121 11.0955 163.769 8.89798 162.297 7.79501C160.824 6.69204 158.787 7.10175 157.748 8.70935C157.694 8.79165 157.647 8.87635 157.601 8.96166C156.77 8.56036 155.901 8.22815 155.003 7.96802C155.019 7.8701 155.033 7.77158 155.042 7.67065C155.206 5.72664 155.56 3.53151 153.762 3.40896C149.604 3.1242 148.704 5.17936 148.54 7.12337C148.531 7.2243 148.529 7.32342 148.528 7.42315C147.599 7.52948 146.687 7.71151 145.801 7.96802C145.769 7.87611 145.737 7.7848 145.698 7.69468C144.943 5.9357 145.079 4.76184 143.361 5.42146C139.615 6.85905 139.016 8.98148 139.771 10.7405C139.811 10.8324 139.856 10.9201 139.901 11.006C139.148 11.5947 138.437 12.2447 137.776 12.9512C137.705 12.8875 137.633 12.8257 137.556 12.768C136.083 11.665 134.046 12.0741 133.006 13.6823C131.967 15.2905 132.319 17.4881 133.792 18.591C133.867 18.6475 133.945 18.6974 134.023 18.746C133.641 19.6508 133.322 20.5939 133.069 21.5701C132.979 21.5545 132.888 21.5395 132.796 21.5317C131 21.3803 129.412 22.8341 129.248 24.7781C129.084 26.7221 130.407 28.4205 132.203 28.5718C132.296 28.5797 132.388 28.5809 132.48 28.5803C132.565 29.5847 132.722 30.5675 132.947 31.5239C132.862 31.5588 132.777 31.5948 132.693 31.6381C131.056 32.4791 130.342 34.5871 131.098 36.3461C131.854 38.1051 133.793 38.8494 135.43 38.0084C135.515 37.9645 135.597 37.9153 135.677 37.8642C136.212 38.671 136.804 39.431 137.448 40.1374C137.388 40.2149 137.329 40.2936 137.275 40.3777C136.236 41.9859 136.587 44.1835 138.06 45.2864C139.533 46.3894 142.722 45.8848 143.761 44.2766C143.814 44.1943 142.71 44.2045 142.755 44.1192C143.587 44.5205 144.455 44.8527 145.354 45.1128C145.337 45.2107 145.323 45.3093 145.314 45.4102C145.15 47.3542 146.473 49.0525 148.269 49.2039C150.065 49.3553 151.652 47.9015 151.816 45.9575C151.825 45.8565 151.827 45.7574 151.828 45.6577C152.758 45.552 153.669 45.3693 154.556 45.1128C154.587 45.2047 154.619 45.296 154.658 45.3862C155.414 47.1451 157.353 47.8895 158.99 47.0484C160.626 46.2074 161.341 44.0994 160.585 42.3404C160.545 42.2485 160.501 42.1607 160.455 42.0748C161.208 41.4861 161.919 40.8361 162.581 40.1296C162.651 40.1933 162.724 40.2552 162.8 40.3128C164.273 41.4158 166.31 41.0067 167.35 39.3985C168.389 37.7903 168.038 35.5928 166.565 34.4898C166.489 34.4333 166.412 34.3835 166.333 34.3348C166.716 33.4301 167.035 32.4869 167.287 31.5107C167.377 31.5269 167.468 31.5413 167.561 31.5492V31.5498ZM149.102 39.321C142.583 38.7719 137.781 32.6053 138.375 25.5465C138.97 18.4883 144.736 13.2113 151.255 13.7604C157.773 14.3095 162.576 20.4762 161.982 27.535C161.387 34.5931 155.621 39.8701 149.102 39.321Z" fill="#BFC6D1"/>
<path d="M167.667 21.4442C169.303 20.6032 170.018 18.4951 169.262 16.7361C168.506 14.9772 166.566 14.2328 164.93 15.0739C164.845 15.1177 164.763 15.167 164.682 15.2181C164.148 14.4113 163.556 13.6513 162.912 12.9448C162.972 12.8673 163.03 12.7886 163.084 12.7045C164.124 11.0969 164.923 7.90697 163.344 6.96139C160.349 5.16576 158.79 7.10257 157.75 8.71077C157.696 8.79307 157.649 8.87778 157.603 8.96308C156.772 8.56179 155.904 8.22957 155.005 7.96945C155.021 7.87153 155.036 7.773 155.044 7.67208C155.133 6.61416 154.78 5.63074 154.151 4.92847C153.751 7.96825 153.374 11.011 153.027 14.0568C158.622 15.465 162.523 21.1336 161.984 27.5358C161.527 32.9611 158.013 37.3304 153.452 38.8142C153.463 39.4071 153.478 40.0019 153.472 40.5954C153.457 42.2066 153.353 43.8214 153.247 45.435C153.69 45.3455 154.127 45.2392 154.559 45.1142C154.59 45.2062 154.623 45.2975 154.661 45.3876C155.417 47.1466 157.106 48.2165 160.117 46.8029C161.783 46.0214 161.344 44.1008 160.588 42.3418C160.549 42.2499 160.504 42.1622 160.459 42.0763C161.212 41.4875 161.923 40.8375 162.584 40.131C162.655 40.1947 162.727 40.2566 162.804 40.3143C164.277 41.4172 167.581 40.7979 168.621 39.1903C169.66 37.5821 168.041 35.5948 166.568 34.4912C166.492 34.4348 166.415 34.3849 166.337 34.3362C166.719 33.4315 167.038 32.4877 167.29 31.5121C167.38 31.5283 167.472 31.5428 167.565 31.5506C169.36 31.702 170.948 30.2488 171.112 28.3041C171.276 26.3601 169.953 24.6618 168.158 24.5104C168.065 24.5026 167.973 24.5014 167.881 24.502C167.795 23.4982 167.639 22.5147 167.413 21.5583C167.499 21.5235 167.583 21.4875 167.668 21.4442H167.667Z" fill="#BFC6D1"/>
<path d="M169.238 31.0817C171.033 31.233 172.621 29.7792 172.785 27.8352C172.949 25.8912 171.626 24.1929 169.831 24.0415C169.738 24.0337 169.646 24.0325 169.554 24.0331C169.468 23.0292 169.312 22.0452 169.086 21.0894C169.172 21.0546 169.256 21.0185 169.34 20.9753C170.978 20.1342 171.691 18.0262 170.935 16.2672C170.18 14.5082 168.24 13.7639 166.603 14.605C166.518 14.6488 166.436 14.6987 166.356 14.7491C165.822 13.9423 165.23 13.1824 164.586 12.4759C164.645 12.3984 164.704 12.3197 164.758 12.2356C165.797 10.628 165.446 8.42988 163.973 7.32691C162.5 6.22394 160.464 6.63305 159.424 8.24125C159.37 8.32355 159.324 8.40826 159.277 8.49356C158.446 8.09226 157.578 7.76005 156.679 7.49993C156.695 7.402 156.71 7.30348 156.718 7.20256C156.882 5.25854 155.559 3.56023 153.764 3.40884C151.969 3.25745 150.38 4.71126 150.216 6.65528C150.208 6.7562 150.205 6.85532 150.205 6.95505C149.275 7.06078 148.364 7.24341 147.477 7.49993C147.446 7.40801 147.413 7.3167 147.375 7.22659C146.619 5.4676 144.679 4.72327 143.043 5.56432C141.406 6.40536 140.692 8.51339 141.448 10.2724C141.487 10.3643 141.532 10.452 141.578 10.5379C140.824 11.1266 140.114 11.7766 139.452 12.4831C139.381 12.4194 139.309 12.3576 139.232 12.2999C137.759 11.1969 135.723 11.606 134.683 13.2142C133.643 14.8224 133.995 17.02 135.468 18.1229C135.544 18.1794 135.621 18.2293 135.699 18.2779C135.317 19.1827 134.998 20.1258 134.746 21.102C134.656 21.0858 134.564 21.0714 134.471 21.0636C132.676 20.9122 131.088 22.366 130.924 24.31C130.76 26.2541 132.083 27.9524 133.878 28.1038C133.971 28.1116 134.063 28.1128 134.155 28.1122C134.241 29.1166 134.397 30.0994 134.623 31.0558C134.537 31.0907 134.452 31.1267 134.369 31.17C132.732 32.011 132.018 34.119 132.774 35.878C133.529 37.637 135.469 38.3813 137.106 37.5403C137.191 37.4964 137.273 37.4472 137.353 37.3961C137.888 38.2029 138.479 38.9629 139.123 39.6693C139.064 39.7468 139.005 39.8255 138.951 39.9096C137.912 41.5172 138.263 43.7154 139.736 44.8183C141.209 45.9213 143.246 45.5122 144.286 43.904C144.339 43.8217 144.386 43.737 144.432 43.6517C145.264 44.053 146.132 44.3852 147.031 44.6453C147.014 44.7432 147 44.8418 146.991 44.9427C146.827 46.8867 148.15 48.585 149.946 48.7364C151.742 48.8878 153.329 47.434 153.493 45.49C153.502 45.389 153.504 45.2899 153.505 45.1902C154.435 45.0845 155.346 44.9018 156.233 44.6453C156.264 44.7372 156.296 44.8286 156.335 44.9187C157.091 46.6777 159.03 47.422 160.667 46.5809C162.303 45.7399 163.018 43.6319 162.262 41.8729C162.222 41.781 162.178 41.6933 162.132 41.6073C162.885 41.0186 163.596 40.3686 164.258 39.6621C164.328 39.7258 164.401 39.7877 164.477 39.8454C165.95 40.9483 167.987 40.5392 169.027 38.931C170.066 37.3228 169.715 35.1253 168.242 34.0223C168.166 33.9658 168.089 33.916 168.01 33.8673C168.393 32.9626 168.712 32.0188 168.964 31.0432C169.054 31.0594 169.145 31.0738 169.238 31.0817H169.238ZM150.779 38.8523C144.26 38.3032 139.458 32.1366 140.052 25.0778C140.646 18.0196 146.413 12.7426 152.932 13.2917C159.45 13.8408 164.253 20.0075 163.659 27.0663C163.064 34.1244 157.298 39.4014 150.779 38.8523H150.779Z" fill="#D8DEE8"/>
<path opacity="0.75" d="M105.2 17.6081C105.2 9.79596 98.5486 3.46228 90.3442 3.46228C82.1398 3.46228 75.4883 9.79536 75.4883 17.6081C75.4883 22.3492 77.9381 26.5454 81.6982 29.1118C83.2932 30.2003 84.261 31.9954 84.261 33.9268V35.0093C84.261 37.3612 86.1678 39.268 88.5197 39.268H92.1692C94.5212 39.268 96.4279 37.3612 96.4279 35.0093V33.9268C96.4279 31.9954 97.3951 30.2009 98.9907 29.1118C102.751 26.5454 105.201 22.3492 105.201 17.6081H105.2Z" fill="#F4F7FA"/>
<path d="M90.3445 47.3193C92.1647 47.3193 93.6402 46.5383 93.6402 45.5748C93.6402 44.6113 92.1647 43.8302 90.3445 43.8302C88.5244 43.8302 87.0488 44.6113 87.0488 45.5748C87.0488 46.5383 88.5244 47.3193 90.3445 47.3193Z" fill="url(#paint0_linear_266_690)"/>
<path d="M85.9668 42.4583V44.2401C85.9668 44.8427 86.3098 45.3954 86.8541 45.6549C87.6092 46.0153 88.8654 46.4106 90.6905 46.3638C92.1713 46.3259 93.1367 46.0838 93.7507 45.8297C94.3436 45.584 94.7239 44.9977 94.7239 44.3561V43.3703L85.9668 42.4583Z" fill="url(#paint1_linear_266_690)"/>
<path d="M85.9654 44.0187C86.0988 44.1485 86.2532 44.2584 86.4268 44.3413C87.2745 44.7456 92.8248 45.6486 94.1638 45.1451C94.3375 45.0797 94.4943 44.9926 94.6312 44.8868C94.6901 44.7186 94.7219 44.5396 94.7219 44.3552V43.3693L85.9648 42.4574V44.0181L85.9654 44.0187Z" fill="url(#paint2_linear_266_690)"/>
<path d="M86.3538 41.2457C85.8606 41.1941 85.4316 41.5809 85.4316 42.0772V42.1276C85.4316 42.8041 85.8167 43.4234 86.4271 43.7148C87.2747 44.1191 92.825 45.022 94.1641 44.5186C94.8381 44.2651 95.2557 43.6866 95.2557 42.9669V42.926C95.2557 42.4977 94.9325 42.139 94.5065 42.0946L86.3538 41.2457Z" fill="url(#paint3_linear_266_690)"/>
<path d="M94.5118 42.0945L86.3591 41.2457C86.0377 41.212 85.7439 41.3658 85.5781 41.6133C85.7421 41.999 86.0401 42.3222 86.4324 42.5091C87.28 42.9134 93.067 43.934 94.1694 43.4144C94.5983 43.2119 94.9354 42.8707 95.1156 42.4556C94.981 42.2585 94.7647 42.1204 94.5118 42.0945Z" fill="url(#paint4_linear_266_690)"/>
<path d="M86.0348 38.3593C85.7014 38.3593 85.4316 38.6296 85.4316 38.9624V40.3579C85.4316 41.0344 85.8167 41.6537 86.4271 41.9451C87.2747 42.3494 93.0617 43.3701 94.1641 42.8504C94.8153 42.5435 95.2557 41.9175 95.2557 41.1972V38.9624C95.2557 38.629 94.9853 38.3593 94.6525 38.3593H86.0354H86.0348Z" fill="url(#paint5_linear_266_690)"/>
<path d="M95.1354 38.7935C95.1354 39.4189 92.9907 39.926 90.345 39.926C87.6994 39.926 85.5547 39.4189 85.5547 38.7935C85.5547 38.1682 87.6994 37.6611 90.345 37.6611C92.9907 37.6611 95.1354 38.1682 95.1354 38.7935Z" fill="url(#paint6_linear_266_690)"/>
<path d="M105.2 17.6081C105.2 9.79596 98.5486 3.46228 90.3442 3.46228C82.1398 3.46228 75.4883 9.79536 75.4883 17.6081C75.4883 22.3492 77.9381 26.5454 81.6982 29.1118C83.2932 30.2003 84.261 31.9954 84.261 33.9268V35.0093C84.261 37.3612 86.1678 39.268 88.5197 39.268H92.1692C94.5212 39.268 96.4279 37.3612 96.4279 35.0093V33.9268C96.4279 31.9954 97.3951 30.2009 98.9907 29.1118C102.751 26.5454 105.201 22.3492 105.201 17.6081H105.2Z" fill="url(#paint7_linear_266_690)"/>
<g style="mix-blend-mode:soft-light" opacity="0.5">
<path d="M93.8467 37.9009C93.8467 38.3587 92.2775 38.73 90.3413 38.73C88.4051 38.73 86.8359 38.3587 86.8359 37.9009C86.8359 37.4432 88.4051 37.0719 90.3413 37.0719C92.2775 37.0719 93.8467 37.4432 93.8467 37.9009Z" fill="#F4F7FA"/>
</g>
<path d="M89.4298 38.4072C89.3295 38.4072 89.2424 38.3327 89.2292 38.2306L86.6501 18.1759C86.6357 18.0647 86.7144 17.9632 86.825 17.9494C86.9361 17.9344 87.0376 18.0137 87.0514 18.1242L89.6304 38.179C89.6449 38.2901 89.5662 38.3916 89.455 38.4054C89.446 38.4066 89.4376 38.4072 89.4292 38.4072H89.4298Z" fill="url(#paint8_linear_266_690)"/>
<path d="M91.0305 38.4071C91.0221 38.4071 91.0131 38.4071 91.0047 38.4053C90.8935 38.3909 90.8154 38.2894 90.8298 38.1788L93.4088 18.1241C93.4233 18.013 93.5248 17.9343 93.6353 17.9493C93.7465 17.9637 93.8246 18.0652 93.8101 18.1758L91.2311 38.2305C91.2179 38.3326 91.1308 38.4071 91.0305 38.4071Z" fill="url(#paint9_linear_266_690)"/>
<path d="M93.13 18.1598C93.0639 18.1598 92.9997 18.1279 92.9606 18.0684L92.2487 16.9889C92.2415 16.9781 92.2301 16.9715 92.2199 16.9727C92.2025 16.9727 92.1946 16.9859 92.1922 16.9895L91.7225 17.7765C91.6444 17.9068 91.508 17.9867 91.3572 17.9909C91.2076 17.9957 91.0658 17.9213 90.9811 17.7951L90.3359 16.8279C90.3287 16.8177 90.3197 16.8117 90.3083 16.8117C90.2945 16.8141 90.2879 16.8165 90.2813 16.8267L89.7142 17.6461C89.6325 17.7645 89.4979 17.8353 89.3549 17.8359H89.3543C89.2113 17.8359 89.0768 17.7657 88.9945 17.6473L88.1775 16.4765C88.1702 16.4656 88.1594 16.462 88.1486 16.4608C88.1372 16.4608 88.1276 16.4674 88.1216 16.4783L87.3761 17.7657C87.3202 17.8624 87.1958 17.8954 87.0991 17.8396C87.0024 17.7837 86.9693 17.6593 87.0252 17.5626L87.7713 16.2752C87.847 16.1442 87.9822 16.0625 88.1324 16.0559C88.2814 16.0481 88.4238 16.1202 88.5103 16.244L89.3273 17.4148C89.3345 17.425 89.3435 17.4304 89.3549 17.4304C89.3657 17.4304 89.3747 17.4256 89.3819 17.4154L89.9491 16.596C90.032 16.4765 90.1683 16.405 90.3125 16.4068C90.4579 16.408 90.5931 16.4813 90.6742 16.6032L91.3194 17.5704C91.3266 17.5812 91.3374 17.5902 91.3482 17.5866C91.3656 17.5866 91.3734 17.574 91.3758 17.5698L91.8456 16.7828C91.9237 16.6519 92.0607 16.572 92.2121 16.5684C92.3617 16.5648 92.504 16.6393 92.5881 16.7666L93.3 17.8462C93.3613 17.9393 93.3361 18.0654 93.2423 18.1267C93.2081 18.1495 93.1697 18.1604 93.1312 18.1604L93.13 18.1598Z" fill="url(#paint10_linear_266_690)"/>
<path style="mix-blend-mode:multiply" opacity="0.3" d="M90.6133 28.7661C90.9317 23.3137 100.123 22.0377 100.083 17.1687C100.059 14.1697 96.4069 11.9428 95.6271 11.4964C89.8804 8.20972 82.8066 12.0052 81.3462 9.3187C80.9827 8.65007 81.1527 7.92196 81.25 7.50685C81.3966 6.88027 81.7294 6.29634 82.2221 5.76288C78.1676 8.28842 75.4883 12.6498 75.4883 17.6078C75.4883 22.5658 77.9381 26.5451 81.6982 29.1115C83.2932 30.2007 84.261 31.9951 84.261 33.9265V35.009C84.261 37.361 86.1678 39.2677 88.5197 39.2677H92.1692C94.5211 39.2677 96.4279 37.361 96.4279 35.009V34.1434C95.9257 34.5284 95.3484 34.797 94.7158 34.7916C92.5207 34.7736 90.4553 31.4785 90.6139 28.7649L90.6133 28.7661Z" fill="url(#paint11_linear_266_690)"/>
<g style="mix-blend-mode:soft-light" opacity="0.44">
<path d="M90.5808 30.4882C97.6411 30.4882 103.365 24.9686 103.365 18.1597C103.365 11.3508 97.6411 5.83118 90.5808 5.83118C83.5204 5.83118 77.7969 11.3508 77.7969 18.1597C77.7969 24.9686 83.5204 30.4882 90.5808 30.4882Z" fill="#F4F7FA"/>
</g>
<path d="M47.6294 166.048C47.1933 166.69 46.6628 167.647 46.3631 168.896C46.2315 169.443 46.1678 169.948 46.1426 170.391C46.4153 170.975 47.7964 173.052 49.9814 173.861C51.333 174.361 53.7859 173.54 51.4796 171.527C49.1727 169.514 48.8513 169.067 50.2619 165.093C50.6248 164.071 50.6103 163.673 50.4571 163.573C50.0985 163.338 48.7384 164.777 47.63 166.048H47.6294Z" fill="url(#paint12_linear_266_690)"/>
<path d="M35.3033 167.278C34.8671 167.92 34.3367 168.877 34.0369 170.126C33.9053 170.673 33.8422 171.178 33.8164 171.621C34.0891 172.205 35.4703 174.283 37.6552 175.091C39.0069 175.592 41.4597 174.771 39.1534 172.758C36.8466 170.745 36.5252 170.298 37.9357 166.324C38.2986 165.301 38.2842 164.904 38.131 164.803C37.7723 164.568 36.4122 166.007 35.3039 167.278H35.3033Z" fill="url(#paint13_linear_266_690)"/>
<path d="M30.9089 81.7388C29.872 86.9341 28.8357 92.1299 27.7988 97.3252C29.5092 102.332 31.0723 107.778 32.3543 113.644C36.9843 134.837 36.2327 153.722 34.1758 168.081C35.2715 168.688 36.3667 169.295 37.4624 169.903C40.8092 162.367 45.0198 151.128 47.3808 136.989C50.1701 120.286 49.1121 107.117 49.8853 107.097C50.626 107.078 52.2859 119.158 51.8209 132.872C51.3289 147.369 48.6147 159.219 46.2243 167.327C47.6049 167.634 48.9848 167.941 50.3647 168.248C55.9805 157.92 61.9026 143.747 64.4768 126.357C66.2647 114.281 68.4364 98.2317 60.9054 81.3399C60.1533 79.653 57.4559 75.8737 56.9579 74.9449C47.6097 76.4042 40.2571 80.279 30.9089 81.7382V81.7388Z" fill="url(#paint14_linear_266_690)"/>
<path style="mix-blend-mode:multiply" opacity="0.25" d="M32.3543 113.644C31.0723 107.777 29.5092 102.332 27.7988 97.3251C28.8357 92.1298 29.872 86.9339 30.9089 81.7387C40.2571 80.2789 47.6097 76.4046 56.9579 74.9454C57.4559 75.8736 60.1539 79.6535 60.9054 81.3398C63.4442 87.0343 64.8769 92.632 65.5972 98.0147C47.6355 97.2043 42.3075 100.768 40.7581 104.168C38.2915 109.581 45.0319 115.385 42.1999 126.413C41.3481 129.729 40.1904 131.338 39.9183 135.52C39.5609 141.008 41.3355 141.602 41.425 147.2C41.5229 153.324 39.4906 158.35 37.8223 162.475C36.7854 165.039 35.7239 167.089 34.9345 168.501C34.6816 168.361 34.4287 168.221 34.1758 168.08C36.2327 153.721 36.9837 134.837 32.3543 113.644Z" fill="url(#paint15_linear_266_690)"/>
<path d="M46.797 9.48771C46.144 10.1948 46.8895 11.311 46.6715 15.0711C46.5717 16.791 46.32 18.216 46.099 19.2234C45.971 20.1426 45.8298 20.9926 45.6796 21.7405C45.5691 22.2896 45.4682 22.7168 45.3402 23.1697C45.1041 24.0096 44.8049 24.8362 44.4511 25.6256C44.4277 25.6778 44.4481 25.7385 44.4974 25.7662C44.5004 25.768 44.5034 25.7692 44.5064 25.7704C44.5616 25.795 44.6265 25.7704 44.6512 25.7151C45.0098 24.9155 45.3126 24.0793 45.5517 23.2292C45.6808 22.7708 45.783 22.3383 45.8947 21.7838C45.974 21.3897 46.0503 20.9656 46.1236 20.5204C46.1236 21.7129 46.0136 23.0183 45.4141 24.7154C43.5938 29.8651 47.3329 33.7663 50.5493 34.2409C54.2583 34.7882 57.0902 32.0974 57.9715 31.2119C61.5231 27.6435 62.7871 21.3597 60.3072 16.4113C57.0584 9.92866 48.3956 7.75576 46.7958 9.48831L46.797 9.48771Z" fill="url(#paint16_linear_266_690)"/>
<path d="M87.0382 54.7615C86.6867 56.9206 85.2455 64.2233 79.6472 67.2666C70.4251 72.2799 54.2362 63.0614 52.3288 51.005C50.8708 41.7902 57.8983 31.8712 61.781 32.4389C66.6554 33.1514 64.4537 50.0859 74.0554 54.9718C78.4499 57.2083 83.5526 56.0231 87.0382 54.7615Z" fill="url(#paint17_linear_266_690)"/>
<path d="M55.692 15.5484C55.5935 14.9416 55.1219 12.4599 53.0752 10.7226C49.192 7.42628 42.2533 9.02967 38.0619 12.0028C33.6765 15.114 35.0954 17.7279 30.7376 21.2362C26.0049 25.0462 23.1856 22.8763 16.7943 26.3678C14.2801 27.7411 7.50551 31.4429 6.37851 38.1953C5.4047 44.0304 8.9485 50.3418 13.7959 53.1377C22.0941 57.9239 33.7089 52.1159 39.5109 46.2688C45.0756 40.6608 41.9037 38.8183 50.1387 27.7273C53.116 23.7173 56.4256 20.0828 55.6914 15.5484H55.692Z" fill="url(#paint18_linear_266_690)"/>
<path d="M61.7789 32.4389C58.8491 31.1743 54.1825 29.5619 48.282 29.2309C42.3856 28.9005 38.2717 28.5112 35.4506 30.9256C29.6924 35.8536 35.2962 43.8501 29.6402 58.0403C25.328 68.8592 18.2386 75.954 18.2386 75.954C14.3031 79.8925 12.0869 80.6783 10.8518 84.2275C8.3563 91.3986 12.8703 101.22 17.5351 101.86C18.4645 101.987 19.6089 101.541 21.8881 100.623C25.9408 98.9903 27.6727 96.6948 34.7243 94.8391C41.9098 92.948 48.0861 93.2333 50.9451 93.3865C62.6735 94.0161 66.7802 97.9173 68.86 95.8075C72.8796 91.7302 56.7219 77.9918 60.6429 62.1963C62.0835 56.3937 65.1299 53.8381 65.2284 46.4201C65.3065 40.522 63.4172 35.6607 61.7783 32.4389H61.7789Z" fill="url(#paint19_linear_266_690)"/>
<path d="M48.9337 21.0126C49.6528 22.9554 50.1821 25.347 49.019 26.7936C48.3102 27.6749 47.2444 28.0966 46.1949 28.4895C43.7138 29.417 42.6679 28.8277 42.1285 29.4903C40.9414 30.9495 43.2248 37.2237 47.9065 38.233C52.5653 39.2374 57.3616 34.545 56.8768 32.303C56.4395 30.2797 51.7374 30.4125 51.1643 27.8539C50.876 26.5659 51.7831 25.2623 52.5508 24.396L53.1005 24.5023L48.9337 21.0126Z" fill="url(#paint20_linear_266_690)"/>
<path style="mix-blend-mode:multiply" opacity="0.4" d="M42.1285 29.4913C42.668 28.8287 43.7139 29.418 46.195 28.4904C47.2451 28.0982 48.3108 27.6764 49.0191 26.7945C50.1821 25.3479 49.6529 22.9558 48.9338 21.0135L53.1005 24.5033L52.5509 24.3976C51.9417 25.0854 51.2538 26.049 51.1367 27.0613C50.7877 27.2529 50.4873 27.4716 50.2674 27.6909C50.7474 29.0882 50.8375 30.2603 50.8411 31.013C50.8465 32.1868 50.8501 33.0585 50.2674 33.8209C49.6324 34.6529 48.6718 34.8686 47.832 35.0566C45.9661 35.4747 44.302 35.0993 43.2225 34.719C41.89 32.6476 41.4617 30.3101 42.1285 29.4913Z" fill="url(#paint21_linear_266_690)"/>
<path d="M50.1277 22.9993C50.1277 22.9993 50.3644 25.3789 52.7205 25.3909C55.624 25.4059 55.946 17.7458 55.2401 17.3078C54.4213 16.8002 53.7052 18.0431 51.8002 17.61C50.9982 17.4274 50.3043 16.3959 49.8976 17.5079C49.4351 18.773 49.8255 21.0126 49.8255 21.0126C49.8255 21.0126 49.1359 20.4437 49.0301 21.128C48.8914 22.0237 49.5636 22.583 50.1283 22.9987L50.1277 22.9993Z" fill="url(#paint22_linear_266_690)"/>
<path d="M54.7197 14.6762C55.6412 15.6158 56.1489 17.4385 55.5103 18.3546C54.5929 19.6708 51.88 18.2963 50.7704 19.9069C50.2838 20.6128 50.312 21.5926 50.0597 21.577C49.8506 21.5638 49.7275 20.8849 49.6073 20.3263C48.9441 17.2468 48.1763 16.9014 48.41 16.0195C48.8852 14.2275 52.8279 12.7472 54.7197 14.6762Z" fill="url(#paint23_linear_266_690)"/>
<path d="M94.3177 57.496C94.1326 56.8965 93.6532 55.6661 92.4656 54.893C90.0133 53.2956 86.1325 54.6839 85.9288 55.9821C85.7961 56.831 87.17 58.0529 88.4706 58.161C89.6408 58.2584 90.1371 57.4023 91.7387 57.1926C92.7912 57.0545 93.7001 57.2773 94.3171 57.496H94.3177Z" fill="url(#paint24_linear_266_690)"/>
<g style="mix-blend-mode:multiply" opacity="0.3">
<path d="M53.1067 89.2504C50.4688 86.1752 51.0401 83.3961 47.4927 80.3864C40.5631 74.5075 31.2978 79.1008 29.1735 75.3636C26.7339 71.0724 38.3944 64.0473 37.742 55.2716C37.4891 51.8707 35.4345 48.8424 32.3575 46.1678C32.1154 49.5543 31.4618 53.4771 29.6421 58.041C25.33 68.8599 18.2405 75.9547 18.2405 75.9547C14.3051 79.8932 12.0889 80.679 10.8538 84.2282C8.35826 91.3993 12.8723 101.221 17.5371 101.861C18.4664 101.988 19.6109 101.542 21.8901 100.624C25.9427 98.9909 27.6747 96.6955 34.7263 94.8398C41.9118 92.9486 48.0881 93.234 50.947 93.3872C62.6754 94.0168 66.7821 97.918 68.8619 95.8082C69.3035 95.3606 69.5011 94.7959 69.5089 94.1249C60.1024 94.5256 55.5175 92.0619 53.1067 89.2516V89.2504Z" fill="url(#paint25_linear_266_690)"/>
</g>
<path d="M19.3156 89.7465C19.3156 89.7465 16.9883 90.5497 16.9414 93.9842C17.3271 93.9343 18.2306 93.9067 18.2306 93.9067C18.2306 93.9067 17.9146 91.4298 19.5691 90.8459C19.4165 90.5641 19.315 89.7459 19.315 89.7459L19.3156 89.7465Z" fill="url(#paint26_linear_266_690)"/>
<path d="M27.9879 89.0206C27.9663 89.6466 27.9447 90.2726 27.9231 90.8991C26.7366 90.6895 25.4378 90.442 24.059 90.4648C22.2664 90.4942 20.6378 90.7652 19.1966 91.1527C19.1269 91.0782 18.9779 90.8973 18.8962 90.5934C18.7641 90.1038 18.9106 89.6814 18.9383 89.6063C19.6682 89.333 20.463 89.0933 21.319 88.9113C23.7737 88.3886 26.0343 88.6259 27.9885 89.0212L27.9879 89.0206Z" fill="url(#paint27_linear_266_690)"/>
<path d="M28.1318 89.5536C28.115 89.3289 28.0783 89.0483 27.9894 89.0207C27.9053 88.9943 27.8074 89.2045 27.7665 89.3205C27.7497 89.3685 27.7131 89.4857 27.7077 89.8503C27.7005 90.3207 27.7551 90.5478 27.8014 90.6878C27.829 90.7719 27.8723 90.8986 27.9245 90.8986C27.9666 90.8986 27.9984 90.8151 28.0435 90.6535C28.1042 90.4367 28.1715 90.0762 28.1318 89.553V89.5536Z" fill="url(#paint28_linear_266_690)"/>
<path d="M30.522 93.358C30.0366 93.468 28.8586 93.7804 28.8586 93.7804C28.8586 93.7804 29.505 91.5468 27.9785 90.6252C27.9304 90.4624 27.8764 90.2023 27.904 89.8845C27.925 89.6382 27.9881 89.4394 28.0446 89.3006C28.6856 89.5715 30.1021 90.5273 30.522 93.3586V93.358Z" fill="url(#paint29_linear_266_690)"/>
<path d="M40.7008 93.3269C40.7008 93.3269 40.5723 92.1819 38.5267 92.3044C38.2173 92.5333 38.2576 93.4729 38.2576 93.4729L40.7008 93.3263V93.3269Z" fill="url(#paint30_linear_266_690)"/>
<path d="M43.8697 115.796L38.4539 119.158L34.3965 108.245L39.0913 93.0073L40.7007 93.3275L44.3875 114.587C44.471 115.069 44.2644 115.552 43.8697 115.797V115.796Z" fill="url(#paint31_linear_266_690)"/>
<path style="mix-blend-mode:multiply" opacity="0.3" d="M34.3965 108.245L39.0913 93.0073L40.7007 93.3275C40.3895 94.666 40.3307 96.8197 40.3138 98.017C40.2436 103.114 39.0841 104.6 39.8987 108.104C40.5764 111.017 41.6944 111.351 41.7172 113.337C41.7424 115.499 40.4424 117.39 38.8534 118.91L38.4539 119.158L34.3965 108.245Z" fill="url(#paint32_linear_266_690)"/>
<path d="M39.0892 93.0067L8.358 94.8479L4.93555 118.761L38.4518 119.158L39.0892 93.0067Z" fill="url(#paint33_linear_266_690)"/>
<g style="mix-blend-mode:multiply" opacity="0.2">
<path d="M8.3586 94.8479L18.7113 94.2273C18.9312 94.7001 19.2628 95.3519 19.7332 96.0842C24.8569 104.053 35.5184 104.457 35.4078 105.824C35.2432 107.866 11.4687 106.406 11.0331 109.225C10.8229 110.586 15.9899 113.341 21.2669 114.186C27.5855 115.197 32.0635 113.177 35.2973 116.106C36.3925 117.098 36.9217 118.304 37.1939 119.125L4.93555 118.761L8.358 94.8479H8.3586Z" fill="url(#paint34_linear_266_690)"/>
</g>
<path d="M38.5253 92.3044C38.8714 92.2834 39.3532 92.2161 39.8963 92.4606C40.0122 92.5129 40.1155 92.5718 40.2062 92.6324L39.9593 92.57C39.5634 92.4913 39.0342 92.6595 38.854 93.0205C38.6329 93.4651 38.6034 94.4641 38.5794 94.9591C38.5097 96.3685 38.0886 105.138 38.0886 105.138C38.0622 105.877 37.471 106.47 36.7321 106.5L8.06627 106.885C7.8488 106.894 7.63073 106.846 7.44449 106.734C7.05521 106.5 6.85997 106.066 6.92124 105.639L7.74787 95.176C7.83438 94.5722 8.3342 94.1127 8.94276 94.076L38.5253 92.3032V92.3044Z" fill="url(#paint35_linear_266_690)"/>
<path d="M38.2191 92.323C38.5651 92.3019 38.9736 92.2353 39.4374 92.3176C39.5623 92.3398 39.763 92.3824 39.8543 92.4431C39.8543 92.4431 38.8715 92.2941 38.5477 93.0397C38.35 93.4944 38.2972 94.4833 38.2731 94.9783C38.2034 96.3876 37.7823 105.157 37.7823 105.157C37.7559 105.896 37.1647 106.489 36.4258 106.519L7.48424 107.696C7.26677 107.705 7.04869 107.657 6.86246 107.545C6.47318 107.312 6.27794 106.878 6.33921 106.451L7.44158 95.1952C7.52809 94.5914 8.02791 94.1318 8.63647 94.0952L38.2191 92.3224V92.323Z" fill="url(#paint36_linear_266_690)"/>
<path style="mix-blend-mode:multiply" opacity="0.1" d="M6.33981 106.451L7.44218 95.195C7.52869 94.5913 8.02851 94.1317 8.63707 94.095L38.2197 92.3222C38.5657 92.3012 38.9742 92.2345 39.438 92.3168C39.5629 92.3391 39.7636 92.3817 39.8549 92.4424C39.8549 92.4424 38.8721 92.2934 38.5483 93.0389C38.517 93.1104 38.49 93.1969 38.4654 93.2907C35.6617 93.5586 32.8484 93.6553 30.0489 93.9857C24.5142 94.6303 18.8978 94.9667 13.7759 97.2778C12.1376 98.0167 11.1254 100.381 11.6438 101.413C12.0175 102.158 13.1331 102.03 13.5836 103.01C14.0576 104.04 13.1156 104.817 13.5728 105.532C14.0522 106.282 15.345 105.834 17.5071 106.26C18.6984 106.495 19.6247 106.892 20.2063 107.179L7.48424 107.696C7.26677 107.705 7.04869 107.657 6.86246 107.545C6.47318 107.311 6.27794 106.878 6.33921 106.451H6.33981Z" fill="url(#paint37_linear_266_690)"/>
<path d="M20.3821 109.006L24.0484 109.564L24.4323 109.569C24.8192 109.574 25.1328 109.258 25.1262 108.867L25.0637 105.167C25.0571 104.776 24.7327 104.47 24.3464 104.488L23.9619 104.506L20.3478 105.137C20 105.153 19.6972 105.006 19.7032 105.373L19.7615 108.842C19.7675 109.209 20.033 109.001 20.3815 109.006H20.3821Z" fill="url(#paint38_linear_266_690)"/>
<path d="M20.1348 109.534L24.1628 109.586C24.5497 109.591 24.8632 109.275 24.8566 108.884L24.7942 105.184C24.7875 104.793 24.4631 104.487 24.0769 104.505L20.0531 104.693C19.7052 104.709 19.4277 105.023 19.4337 105.39L19.492 108.859C19.498 109.226 19.7857 109.53 20.1342 109.534H20.1348Z" fill="url(#paint39_linear_266_690)"/>
<path d="M24.4372 86.5657C24.4372 86.5657 26.0688 87.8033 26.2761 88.7398C26.2761 88.7398 24.0845 88.842 24.0629 90.4646C24.0629 90.4646 26.049 90.1636 26.3902 90.6406C26.7314 91.1176 24.5039 92.3035 22.6373 91.8889C20.7708 91.4744 20.7624 87.8369 21.1992 86.7598C21.6359 85.6826 24.4378 86.5657 24.4378 86.5657H24.4372Z" fill="url(#paint40_linear_266_690)"/>
<path d="M40.0195 38.1795C38.7057 35.6918 37.3925 33.2041 36.0786 30.7164C35.0472 31.2619 14.0408 42.8101 13.3866 64.6683C13.0586 75.6289 18.0088 83.8141 20.3577 87.1987C22.0596 86.6682 23.7615 86.1384 25.464 85.6085C24.2367 83.2992 21.2462 76.8965 22.837 69.1402C24.7852 59.6448 32.8124 51.9655 43.3471 49.3798C42.2381 45.6468 41.1285 41.9132 40.0195 38.1801V38.1795Z" fill="url(#paint41_linear_266_690)"/>
<path d="M94.4009 56.2604C93.7274 56.0412 92.8359 55.629 92.1769 54.7892C91.6008 54.0551 91.7017 53.6298 91.1857 52.7521C90.2184 51.106 88.4487 50.1935 88.1423 50.468C87.8611 50.7197 88.9587 51.8371 88.5081 52.6019C88.3051 52.9467 87.6539 53.1191 86.3587 53.4507C85.8799 53.5733 85.475 53.6616 85.1836 53.7211C85.4311 54.2437 86.0451 55.3575 87.318 56.2454C88.5532 57.1069 89.7691 57.3093 90.344 57.3688C91.6963 56.9993 93.0486 56.6299 94.4002 56.2604H94.4009Z" fill="url(#paint42_linear_266_690)"/>
<path d="M153.854 35.7692C154.61 36.0551 166.138 40.6394 168.508 52.6712C168.699 53.6432 170.551 63.9803 163.541 71.2829C155.68 79.4717 140.543 79.2687 134.535 72.4231C133.134 70.827 132.394 69.0572 131.98 67.5709L133.563 63.3651C135.495 61.033 138.125 60.4803 139.529 60.1343C142.992 59.2806 145.607 60.8233 147.59 59.1532C148.687 58.2293 148.905 56.8998 149.1 55.7122C149.763 51.6661 147.48 49.176 147.313 46.6811C147.189 44.8158 146.536 40.7295 148.971 38.0646C150.512 36.3771 152.647 35.9176 153.854 35.7698V35.7692Z" fill="url(#paint43_linear_266_690)"/>
<path d="M158.345 169.858C158.479 169.117 160.871 168.447 162.055 169.439C162.643 169.932 163.048 170.93 162.708 171.382C162.585 171.546 163.092 171.834 162.606 171.84C160.994 171.859 158.211 170.595 158.345 169.859V169.858Z" fill="url(#paint44_linear_266_690)"/>
<path d="M160.853 170.128L163.313 169.78C162.173 168.408 162.384 164.038 162.384 164.038L159.768 164.622C159.768 164.622 160.066 165.822 160.573 167.591C160.746 168.197 160.824 169.145 160.853 170.128Z" fill="url(#paint45_linear_266_690)"/>
<path d="M160.633 169.825C160.633 169.825 163.595 169.142 163.915 169.73C164.235 170.317 164.484 171.89 162.605 171.84C160.725 171.789 160.465 170.323 160.632 169.825H160.633Z" fill="url(#paint46_linear_266_690)"/>
<path d="M124.59 172.636C124.827 171.922 127.289 171.592 128.323 172.74C128.836 173.31 129.097 174.356 128.697 174.755C128.552 174.9 129.013 175.256 128.531 175.194C126.933 174.988 124.354 173.346 124.589 172.636H124.59Z" fill="url(#paint47_linear_266_690)"/>
<path d="M127.036 173.254H129.52C128.584 171.736 129.405 167.439 129.405 167.439L126.732 167.651C126.732 167.651 126.86 168.88 127.114 170.703C127.201 171.327 127.145 172.276 127.036 173.254V173.254Z" fill="url(#paint48_linear_266_690)"/>
<path d="M120.596 79.2998C119.445 83.1007 117.801 89.2343 116.743 96.9305C113.726 118.882 120.14 119.583 118.942 143.908C118.56 151.673 125.669 169.578 126.296 169.974C126.599 170.003 126.928 170.023 127.279 170.012C127.898 169.993 128.77 169.898 129.783 169.594C130.91 169.4 134.97 158.403 134.029 151.864C133.363 147.236 133.556 142.269 133.942 132.336C134.004 130.727 138.122 101.022 138.122 101.022C139.375 112.017 140.815 121.359 142.064 128.602C146.077 151.874 159.123 165.959 159.804 166.185C159.938 166.239 161.163 166.683 162.164 166.024C162.609 165.73 162.761 165.351 162.761 165.351C163.11 165.078 162.658 142.118 158.679 124.838C152.902 99.757 155.418 93.8883 153.588 82.6856C152.004 72.9919 120.597 79.2998 120.597 79.2998H120.596Z" fill="url(#paint49_linear_266_690)"/>
<path d="M143.926 33.8112C140.092 33.6982 131.277 32.3448 126.422 36.7134C126.338 36.7891 127.332 37.3207 126.843 37.8945C126.388 38.4273 124.829 40.292 123.415 42.8128C122.391 44.6384 121.467 46.7669 120.534 49.9388C118.89 55.533 118.418 60.2963 118.26 62.3719C117.373 74.0432 118.253 79.4277 119.051 83.0899C122.518 84.8705 131.452 88.0574 142.098 86.4739C146.959 85.7506 150.85 84.1328 153.588 82.6892C150.825 74.3256 152.992 69.8506 154.015 65.7253C155.473 59.8433 155.496 60.2879 156.696 55.6159C158.677 47.9065 159.002 40.0283 157.641 38.4165C153.971 34.0701 147.36 33.9127 143.926 33.8118V33.8112Z" fill="url(#paint50_linear_266_690)"/>
<path d="M126.862 172.923C126.862 172.923 129.891 172.662 130.126 173.289C130.361 173.915 130.387 175.508 128.533 175.194C126.68 174.881 126.627 173.393 126.862 172.923Z" fill="url(#paint51_linear_266_690)"/>
<path d="M133.132 29.4148C131.944 27.4065 132.473 25.1123 132.592 24.6166C133.092 22.5411 133.278 22.2263 133.663 21.7871L134.208 21.211C134.208 21.211 134.241 21.1858 134.278 21.1611C134.656 20.9004 136.071 20.4775 136.376 20.4619C137.352 20.4126 139.336 23.9108 140.472 29.3007C140.565 29.4929 140.656 29.6876 140.746 29.884C141.31 31.1065 141.793 32.3092 142.209 33.4819C148.801 34.0394 149.716 34.8125 149.745 35.2589C149.807 36.1991 146.051 37.2852 143.227 37.6991C137.067 38.6008 130.735 36.9764 130.764 35.8278C130.776 35.328 132.001 34.6762 137.222 33.9925C137.1 33.1286 136.978 32.2642 136.856 31.4003C136.431 31.306 134.006 30.8951 133.131 29.4154L133.132 29.4148Z" fill="url(#paint52_linear_266_690)"/>
<path d="M131.894 20.211C132.338 21.8565 133.583 23.4082 134.054 23.5854C134.114 23.6082 134.462 23.7584 134.824 24.078C134.873 24.1213 134.92 24.1747 134.97 24.2474C135.607 25.1888 134.282 26.8499 134.725 27.2295C135.046 27.5053 136.047 26.7555 136.258 27.0109C136.457 27.2512 135.676 28.067 135.906 28.3571C136.08 28.5758 136.593 28.1967 137.056 28.4797C137.287 28.6209 137.274 28.7843 137.619 29.3111C137.814 29.6091 138.061 29.9263 138.231 30.0939C139.057 30.9091 140.763 30.8328 140.971 30.363C141.028 30.2321 140.93 30.1612 140.921 29.7761C140.921 29.7761 140.913 29.4187 141.044 28.9687C141.229 28.3259 141.929 27.7149 142.585 26.9135C143.8 25.4297 143.963 24.3976 144.002 24.0528C144.016 23.9302 144.021 23.8389 144.024 23.7734C144.091 22.4554 143.618 20.6724 142.78 19.7214C141.376 18.1282 139.547 19.5502 137.374 18.1805C134.867 16.5999 135.262 13.4208 134.12 13.3859C132.862 13.3469 131.072 17.1688 131.894 20.211Z" fill="#26264F"/>
<path d="M135.213 26.6847C135.469 26.0227 136.318 26.3543 136.513 27.071C136.708 27.7871 136.212 28.7188 135.5 28.7567C134.788 28.7951 134.87 27.5756 135.214 26.6847H135.213Z" fill="url(#paint53_linear_266_690)"/>
<path d="M152.363 77.3389C152.337 77.3389 152.313 77.319 152.31 77.292C151.853 73.1799 152.703 70.1996 153.453 67.5707C153.636 66.9279 153.81 66.3206 153.96 65.7126C154.788 62.3719 155.151 61.0815 155.535 59.7154C155.784 58.8274 156.042 57.9095 156.442 56.3758C156.449 56.3476 156.478 56.3295 156.507 56.338C156.535 56.3452 156.552 56.374 156.544 56.4028C156.144 57.9377 155.887 58.8563 155.637 59.7442C155.253 61.1091 154.891 62.3989 154.063 65.7385C153.912 66.3476 153.738 66.9562 153.555 67.6002C152.807 70.22 151.961 73.1889 152.416 77.2806C152.419 77.31 152.398 77.3359 152.369 77.3395C152.367 77.3395 152.364 77.3395 152.363 77.3395L152.363 77.3389Z" fill="#9B305E"/>
<path d="M135.223 25.3971L134.611 26.8647C134.611 26.8647 133.999 28.6261 133.192 27.9659C132.532 27.4264 132.412 27.4745 132.389 27.5099C132.385 27.5165 132.386 27.5249 132.385 27.5249C132.376 27.5249 132.367 27.1735 132.36 26.8641C132.206 27.2882 132.018 27.9605 132.018 28.7967C132.018 29.6089 132.018 30.4788 132.654 31.145C132.69 31.1835 133.384 31.8882 134.317 31.8545C134.317 31.8545 134.684 31.8413 136.079 31.1943C136.079 31.1943 134.171 30.4602 134.073 30.1917C133.807 29.4599 134.738 28.7781 135.1 27.0359C135.239 26.3637 135.243 25.7876 135.222 25.3971H135.223Z" fill="#26264F"/>
<path d="M92.8577 54.2387C91.4712 55.2089 90.7275 56.5269 90.3418 57.368C91.3613 59.7613 93.6735 64.2045 98.4603 67.4797C106.308 72.8492 117.815 73.03 125.83 66.9066C135.405 59.5907 137.005 45.5621 132.983 39.5546C132.52 38.8632 130.998 36.5893 128.635 36.3286C127.143 36.164 125.112 36.7792 121.903 40.5368C115.216 48.3664 117.577 53.2553 113.627 55.5459C107.703 58.981 98.8994 50.0124 92.8583 54.2399L92.8577 54.2387Z" fill="url(#paint54_linear_266_690)"/>
<path d="M119.815 70.163C119.79 70.163 119.768 70.1462 119.763 70.121C119.757 70.0921 119.775 70.0645 119.804 70.0579C119.827 70.0531 122.175 69.528 125.012 67.581C127.628 65.7848 131.208 62.3743 133.397 56.3326C133.407 56.305 133.438 56.2912 133.465 56.3008C133.493 56.311 133.507 56.341 133.497 56.3687C131.297 62.4398 127.698 65.8665 125.067 67.6717C122.215 69.629 119.849 70.1564 119.826 70.1618C119.822 70.1624 119.818 70.163 119.815 70.163Z" fill="#9B305E"/>
<path d="M110.864 154.424C112.66 154.575 114.248 153.121 114.412 151.177C114.576 149.233 113.253 147.535 111.457 147.384C111.364 147.376 111.272 147.375 111.18 147.375C111.094 146.371 110.938 145.388 110.713 144.432C110.798 144.397 110.883 144.361 110.967 144.317C112.603 143.476 113.318 141.368 112.562 139.609C111.806 137.85 109.866 137.106 108.23 137.947C108.145 137.991 108.063 138.041 107.982 138.091C107.448 137.285 106.857 136.525 106.212 135.818C106.271 135.741 106.33 135.662 106.384 135.578C107.424 133.97 107.072 131.772 105.6 130.669C104.127 129.566 102.09 129.976 101.05 131.583C100.997 131.666 100.95 131.75 100.904 131.836C100.072 131.434 99.2042 131.102 98.3055 130.842C98.3217 130.744 98.3361 130.646 98.3445 130.545C98.5085 128.601 98.8624 126.406 97.0649 126.283C92.9066 125.998 92.0066 128.053 91.8426 129.997C91.8342 130.098 91.8318 130.198 91.8312 130.297C90.9013 130.404 89.9899 130.586 89.1032 130.842C89.072 130.75 89.0396 130.659 89.0011 130.569C88.2454 128.81 88.3817 127.636 86.6636 128.295C82.9173 129.733 82.3184 131.855 83.0741 133.614C83.1138 133.706 83.1582 133.794 83.2039 133.879C82.4506 134.468 81.7399 135.118 81.0785 135.825C81.0076 135.761 80.9355 135.699 80.8586 135.641C79.3856 134.539 77.349 134.948 76.3091 136.556C75.2698 138.164 75.6213 140.362 77.0943 141.465C77.17 141.521 77.2475 141.571 77.3256 141.62C76.9435 142.524 76.6245 143.467 76.3722 144.443C76.2821 144.427 76.1908 144.412 76.0983 144.405C74.3026 144.253 72.7149 145.707 72.5509 147.651C72.3868 149.595 73.7097 151.293 75.5053 151.445C75.5984 151.453 75.6904 151.454 75.7823 151.453C75.8682 152.457 76.0244 153.44 76.2497 154.397C76.1643 154.432 76.0796 154.468 75.9955 154.511C74.3585 155.352 73.6448 157.46 74.4006 159.219C75.1563 160.978 77.0961 161.722 78.7325 160.881C78.8178 160.837 78.8995 160.788 78.98 160.737C79.5141 161.544 80.1058 162.304 80.7504 163.01C80.691 163.088 80.6327 163.167 80.578 163.251C79.5387 164.859 79.8902 167.056 81.3626 168.159C82.8356 169.262 86.0244 168.758 87.0637 167.149C87.1172 167.067 86.0124 167.077 86.0581 166.992C86.8895 167.393 87.7576 167.726 88.6563 167.986C88.6401 168.084 88.6256 168.182 88.6172 168.283C88.4532 170.227 89.7761 171.925 91.5717 172.077C93.3673 172.228 94.9551 170.774 95.1191 168.83C95.1275 168.729 95.1299 168.63 95.1305 168.531C96.0605 168.425 96.9718 168.242 97.8585 167.986C97.8898 168.078 97.9222 168.169 97.9607 168.259C98.7164 170.018 100.656 170.762 102.293 169.921C103.929 169.08 104.643 166.972 103.888 165.213C103.848 165.121 103.804 165.034 103.758 164.948C104.511 164.359 105.222 163.709 105.883 163.003C105.954 163.066 106.026 163.128 106.103 163.186C107.576 164.289 109.613 163.88 110.653 162.271C111.692 160.663 111.34 158.466 109.868 157.363C109.792 157.306 109.715 157.256 109.637 157.208C110.019 156.303 110.338 155.36 110.59 154.384C110.68 154.4 110.772 154.414 110.865 154.422L110.864 154.424ZM92.4043 162.195C85.8856 161.646 81.0833 155.479 81.6774 148.421C82.2721 141.362 88.0381 136.085 94.5568 136.635C101.076 137.184 105.878 143.35 105.284 150.409C104.689 157.467 98.9231 162.744 92.4043 162.195Z" fill="#BFC6D1"/>
<path d="M110.966 144.318C112.602 143.477 113.317 141.369 112.561 139.61C111.805 137.851 109.865 137.107 108.229 137.948C108.143 137.992 108.062 138.041 107.981 138.092C107.447 137.285 106.855 136.525 106.211 135.819C106.27 135.741 106.329 135.662 106.383 135.578C107.423 133.971 108.222 130.781 106.643 129.835C103.647 128.039 102.089 129.976 101.049 131.584C100.995 131.666 100.948 131.751 100.902 131.836C100.071 131.435 99.2026 131.103 98.3038 130.843C98.3201 130.745 98.3345 130.646 98.3429 130.545C98.4318 129.487 98.0785 128.504 97.4502 127.802C97.0501 130.841 96.6728 133.884 96.3262 136.93C101.921 138.338 105.822 144.007 105.283 150.409C104.826 155.834 101.312 160.204 96.7509 161.687C96.7617 162.28 96.7767 162.875 96.7713 163.469C96.7563 165.08 96.6518 166.695 96.546 168.308C96.9888 168.219 97.4261 168.112 97.8581 167.987C97.8893 168.079 97.9218 168.171 97.9602 168.261C98.7159 170.02 100.405 171.09 103.416 169.676C105.082 168.895 104.643 166.974 103.887 165.215C103.848 165.123 103.803 165.035 103.757 164.949C104.511 164.361 105.221 163.711 105.883 163.004C105.954 163.068 106.026 163.13 106.103 163.187C107.576 164.29 110.88 163.671 111.92 162.063C112.959 160.455 111.34 158.468 109.867 157.364C109.791 157.308 109.714 157.258 109.636 157.209C110.018 156.305 110.337 155.362 110.589 154.386C110.679 154.402 110.771 154.417 110.864 154.424C112.659 154.576 114.247 153.123 114.411 151.178C114.575 149.234 113.252 147.536 111.457 147.384C111.363 147.376 111.272 147.375 111.18 147.376C111.094 146.372 110.938 145.389 110.712 144.432C110.798 144.397 110.882 144.361 110.966 144.318H110.966Z" fill="#BFC6D1"/>
<path d="M112.537 153.955C114.332 154.107 115.92 152.653 116.084 150.709C116.248 148.765 114.925 147.067 113.13 146.915C113.036 146.908 112.944 146.906 112.853 146.907C112.767 145.903 112.61 144.919 112.385 143.963C112.471 143.928 112.555 143.892 112.639 143.849C114.276 143.008 114.99 140.9 114.234 139.141C113.479 137.382 111.539 136.638 109.902 137.479C109.817 137.523 109.735 137.573 109.655 137.623C109.12 136.816 108.529 136.056 107.884 135.35C107.944 135.272 108.003 135.194 108.057 135.109C109.096 133.502 108.745 131.304 107.272 130.201C105.799 129.098 103.763 129.507 102.723 131.115C102.669 131.197 102.622 131.282 102.576 131.367C101.745 130.966 100.877 130.634 99.978 130.374C99.9942 130.276 100.009 130.177 100.017 130.076C100.181 128.132 98.8582 126.434 97.0625 126.283C95.2675 126.131 93.6791 127.585 93.5151 129.529C93.5067 129.63 93.5043 129.729 93.5037 129.829C92.5738 129.935 91.6624 130.117 90.7757 130.374C90.7445 130.282 90.712 130.191 90.6736 130.1C89.9179 128.341 87.978 127.597 86.3416 128.438C84.7046 129.279 83.9909 131.387 84.7466 133.146C84.7863 133.238 84.8307 133.326 84.8764 133.412C84.123 134 83.4124 134.65 82.7509 135.357C82.6801 135.293 82.608 135.231 82.5311 135.174C81.058 134.071 79.0215 134.48 77.9816 136.088C76.9423 137.696 77.2937 139.894 78.7668 140.997C78.8425 141.053 78.92 141.103 78.9981 141.152C78.616 142.056 78.297 143 78.0447 143.976C77.9546 143.96 77.8633 143.945 77.7701 143.937C75.9745 143.786 74.3867 145.24 74.2227 147.184C74.0587 149.128 75.3816 150.827 77.1772 150.978C77.2703 150.985 77.3622 150.987 77.4541 150.986C77.5401 151.99 77.6963 152.973 77.9215 153.93C77.8362 153.965 77.7509 154.001 77.6674 154.044C76.0304 154.885 75.3167 156.993 76.0724 158.752C76.8282 160.511 78.768 161.255 80.4044 160.414C80.4897 160.37 80.5714 160.321 80.6519 160.27C81.186 161.077 81.7777 161.837 82.4223 162.543C82.3629 162.621 82.304 162.699 82.2499 162.783C81.2106 164.391 81.5621 166.589 83.0351 167.692C84.5081 168.795 86.5447 168.386 87.5845 166.778C87.638 166.696 87.6849 166.611 87.7311 166.526C88.5626 166.927 89.4306 167.259 90.3294 167.519C90.3131 167.617 90.2987 167.716 90.2903 167.817C90.1269 169.761 91.4492 171.459 93.2448 171.61C95.0404 171.762 96.6282 170.308 96.7922 168.364C96.8006 168.263 96.803 168.164 96.8036 168.064C97.7336 167.958 98.6449 167.776 99.5316 167.519C99.5628 167.611 99.5953 167.702 99.6337 167.793C100.389 169.551 102.329 170.296 103.966 169.455C105.602 168.614 106.316 166.506 105.561 164.747C105.521 164.655 105.477 164.567 105.431 164.481C106.184 163.892 106.895 163.242 107.556 162.536C107.627 162.6 107.699 162.662 107.776 162.719C109.249 163.822 111.286 163.413 112.326 161.805C113.365 160.197 113.014 157.999 111.541 156.896C111.465 156.84 111.388 156.79 111.31 156.741C111.692 155.836 112.011 154.893 112.263 153.917C112.353 153.933 112.445 153.948 112.537 153.955H112.537ZM94.0768 161.726C87.5581 161.177 82.7557 155.01 83.3505 147.952C83.9452 140.893 89.7112 135.616 96.2299 136.166C102.749 136.715 107.551 142.881 106.957 149.94C106.362 156.998 100.596 162.275 94.0774 161.726H94.0768Z" fill="#D8DEE8"/>
<defs>
<linearGradient id="paint0_linear_266_690" x1="90.0351" y1="48.0505" x2="90.2989" y2="45.94" gradientUnits="userSpaceOnUse">
<stop stop-color="#311944"/>
<stop offset="1" stop-color="#A03976"/>
</linearGradient>
<linearGradient id="paint1_linear_266_690" x1="88.9507" y1="46.1271" x2="91.5892" y2="41.3776" gradientUnits="userSpaceOnUse">
<stop stop-color="#311944"/>
<stop offset="1" stop-color="#A03976"/>
</linearGradient>
<linearGradient id="paint2_linear_266_690" x1="85.9654" y1="43.8758" x2="94.7225" y2="43.8758" gradientUnits="userSpaceOnUse">
<stop stop-color="#311944"/>
<stop offset="1" stop-color="#A03976"/>
</linearGradient>
<linearGradient id="paint3_linear_266_690" x1="89.2001" y1="44.8292" x2="91.8056" y2="39.8159" gradientUnits="userSpaceOnUse">
<stop stop-color="#311944"/>
<stop offset="1" stop-color="#A03976"/>
</linearGradient>
<linearGradient id="paint4_linear_266_690" x1="85.5781" y1="42.4003" x2="95.115" y2="42.4003" gradientUnits="userSpaceOnUse">
<stop stop-color="#311944"/>
<stop offset="1" stop-color="#A03976"/>
</linearGradient>
<linearGradient id="paint5_linear_266_690" x1="85.4316" y1="40.6769" x2="95.2557" y2="40.6769" gradientUnits="userSpaceOnUse">
<stop stop-color="#311944"/>
<stop offset="1" stop-color="#A03976"/>
</linearGradient>
<linearGradient id="paint6_linear_266_690" x1="90.1005" y1="39.9362" x2="91.0677" y2="35.4065" gradientUnits="userSpaceOnUse">
<stop stop-color="#311944"/>
<stop offset="1" stop-color="#A03976"/>
</linearGradient>
<linearGradient id="paint7_linear_266_690" x1="88.2427" y1="14.6632" x2="107.436" y2="45.1355" gradientUnits="userSpaceOnUse">
<stop stop-color="#FCB148"/>
<stop offset="0.05" stop-color="#FDB946"/>
<stop offset="0.14" stop-color="#FEC144"/>
<stop offset="0.32" stop-color="#FFC444"/>
<stop offset="0.48" stop-color="#FDB946"/>
<stop offset="0.78" stop-color="#F99C4C"/>
<stop offset="0.87" stop-color="#F8924F"/>
<stop offset="1" stop-color="#F8924F"/>
</linearGradient>
<linearGradient id="paint8_linear_266_690" x1="84.735" y1="38.1261" x2="88.6482" y2="26.6933" gradientUnits="userSpaceOnUse">
<stop offset="0.49" stop-color="#EBEFF2"/>
<stop offset="1" stop-color="white"/>
</linearGradient>
<linearGradient id="paint9_linear_266_690" x1="88.4755" y1="39.4068" x2="92.3894" y2="27.974" gradientUnits="userSpaceOnUse">
<stop offset="0.49" stop-color="#EBEFF2"/>
<stop offset="1" stop-color="white"/>
</linearGradient>
<linearGradient id="paint10_linear_266_690" x1="83.3703" y1="37.66" x2="87.2841" y2="26.2266" gradientUnits="userSpaceOnUse">
<stop offset="0.49" stop-color="#EBEFF2"/>
<stop offset="1" stop-color="white"/>
</linearGradient>
<linearGradient id="paint11_linear_266_690" x1="88.9156" y1="7.7946" x2="85.0894" y2="39.3236" gradientUnits="userSpaceOnUse">
<stop stop-color="#FCB148"/>
<stop offset="0.05" stop-color="#FDB946"/>
<stop offset="0.14" stop-color="#FEC144"/>
<stop offset="0.32" stop-color="#FFC444"/>
<stop offset="0.48" stop-color="#FDB946"/>
<stop offset="0.78" stop-color="#F99C4C"/>
<stop offset="0.87" stop-color="#F8924F"/>
<stop offset="1" stop-color="#F8924F"/>
</linearGradient>
<linearGradient id="paint12_linear_266_690" x1="52.6366" y1="168.875" x2="46.2322" y2="168.544" gradientUnits="userSpaceOnUse">
<stop stop-color="#AA80F9"/>
<stop offset="1" stop-color="#6165D7"/>
</linearGradient>
<linearGradient id="paint13_linear_266_690" x1="40.311" y1="170.106" x2="33.9066" y2="169.775" gradientUnits="userSpaceOnUse">
<stop stop-color="#AA80F9"/>
<stop offset="1" stop-color="#6165D7"/>
</linearGradient>
<linearGradient id="paint14_linear_266_690" x1="65.4907" y1="123.364" x2="26.5548" y2="121.35" gradientUnits="userSpaceOnUse">
<stop stop-color="#444B8C"/>
<stop offset="1" stop-color="#26264F"/>
</linearGradient>
<linearGradient id="paint15_linear_266_690" x1="67.1428" y1="120.26" x2="29.5713" y2="122.861" gradientUnits="userSpaceOnUse">
<stop stop-color="#444B8C"/>
<stop offset="1" stop-color="#26264F"/>
</linearGradient>
<linearGradient id="paint16_linear_266_690" x1="-12.0684" y1="54.6044" x2="61.1387" y2="16.0256" gradientUnits="userSpaceOnUse">
<stop stop-color="#311944"/>
<stop offset="1" stop-color="#6B3976"/>
</linearGradient>
<linearGradient id="paint17_linear_266_690" x1="94.4775" y1="35.6406" x2="59.7722" y2="55.8823" gradientUnits="userSpaceOnUse">
<stop stop-color="#FF9085"/>
<stop offset="1" stop-color="#FB6FBB"/>
</linearGradient>
<linearGradient id="paint18_linear_266_690" x1="-11.2324" y1="56.1895" x2="61.974" y2="17.6113" gradientUnits="userSpaceOnUse">
<stop stop-color="#311944"/>
<stop offset="1" stop-color="#6B3976"/>
</linearGradient>
<linearGradient id="paint19_linear_266_690" x1="63.2922" y1="53.2908" x2="6.88988" y2="104.322" gradientUnits="userSpaceOnUse">
<stop stop-color="#FF9085"/>
<stop offset="1" stop-color="#FB6FBB"/>
</linearGradient>
<linearGradient id="paint20_linear_266_690" x1="47.6869" y1="45.0674" x2="51.5451" y2="14.1812" gradientUnits="userSpaceOnUse">
<stop stop-color="#FFC444"/>
<stop offset="1" stop-color="#F36F56"/>
</linearGradient>
<linearGradient id="paint21_linear_266_690" x1="47.9527" y1="40.7433" x2="46.9963" y2="15.2704" gradientUnits="userSpaceOnUse">
<stop stop-color="#FFC444"/>
<stop offset="1" stop-color="#F36F56"/>
</linearGradient>
<linearGradient id="paint22_linear_266_690" x1="52.2948" y1="18.4142" x2="52.0596" y2="44.8031" gradientUnits="userSpaceOnUse">
<stop stop-color="#FFC444"/>
<stop offset="1" stop-color="#F36F56"/>
</linearGradient>
<linearGradient id="paint23_linear_266_690" x1="-13.6778" y1="51.5477" x2="59.5287" y2="12.9689" gradientUnits="userSpaceOnUse">
<stop stop-color="#311944"/>
<stop offset="1" stop-color="#6B3976"/>
</linearGradient>
<linearGradient id="paint24_linear_266_690" x1="92.292" y1="54.6292" x2="84.8667" y2="61.3474" gradientUnits="userSpaceOnUse">
<stop stop-color="#FFC444"/>
<stop offset="1" stop-color="#F36F56"/>
</linearGradient>
<linearGradient id="paint25_linear_266_690" x1="66.3904" y1="56.7122" x2="9.98749" y2="107.744" gradientUnits="userSpaceOnUse">
<stop stop-color="#FF9085"/>
<stop offset="1" stop-color="#FB6FBB"/>
</linearGradient>
<linearGradient id="paint26_linear_266_690" x1="19.4005" y1="101.372" x2="17.796" y2="88.8001" gradientUnits="userSpaceOnUse">
<stop stop-color="#FFC444"/>
<stop offset="1" stop-color="#F36F56"/>
</linearGradient>
<linearGradient id="paint27_linear_266_690" x1="24.3296" y1="96.8055" x2="23.1814" y2="87.8109" gradientUnits="userSpaceOnUse">
<stop offset="0.1" stop-color="#311944"/>
<stop offset="0.27" stop-color="#361B47"/>
<stop offset="0.48" stop-color="#462050"/>
<stop offset="0.72" stop-color="#602A5F"/>
<stop offset="0.97" stop-color="#843773"/>
<stop offset="1" stop-color="#893976"/>
</linearGradient>
<linearGradient id="paint28_linear_266_690" x1="27.7492" y1="90.0842" x2="21.1495" y2="94.1485" gradientUnits="userSpaceOnUse">
<stop offset="0.1" stop-color="#311944"/>
<stop offset="0.27" stop-color="#361B47"/>
<stop offset="0.48" stop-color="#462050"/>
<stop offset="0.72" stop-color="#602A5F"/>
<stop offset="0.97" stop-color="#843773"/>
<stop offset="1" stop-color="#893976"/>
</linearGradient>
<linearGradient id="paint29_linear_266_690" x1="30.5474" y1="102.242" x2="28.7191" y2="87.9135" gradientUnits="userSpaceOnUse">
<stop stop-color="#FFC444"/>
<stop offset="1" stop-color="#F36F56"/>
</linearGradient>
<linearGradient id="paint30_linear_266_690" x1="39.1212" y1="100.612" x2="40.825" y2="65.9414" gradientUnits="userSpaceOnUse">
<stop offset="0.1" stop-color="#311944"/>
<stop offset="0.69" stop-color="#6D2E66"/>
<stop offset="1" stop-color="#893976"/>
</linearGradient>
<linearGradient id="paint31_linear_266_690" x1="23.1531" y1="116.1" x2="47.8088" y2="100.368" gradientUnits="userSpaceOnUse">
<stop stop-color="#311944"/>
<stop offset="1" stop-color="#893976"/>
</linearGradient>
<linearGradient id="paint32_linear_266_690" x1="44.9429" y1="95.1352" x2="38.1227" y2="108.304" gradientUnits="userSpaceOnUse">
<stop stop-color="#311944"/>
<stop offset="1" stop-color="#893976"/>
</linearGradient>
<linearGradient id="paint33_linear_266_690" x1="22.3727" y1="81.2243" x2="21.8341" y2="118.346" gradientUnits="userSpaceOnUse">
<stop offset="0.1" stop-color="#311944"/>
<stop offset="0.69" stop-color="#6D2E66"/>
<stop offset="1" stop-color="#893976"/>
</linearGradient>
<linearGradient id="paint34_linear_266_690" x1="29.5431" y1="101.101" x2="7.62667" y2="120.182" gradientUnits="userSpaceOnUse">
<stop stop-color="#311944"/>
<stop offset="1" stop-color="#893976"/>
</linearGradient>
<linearGradient id="paint35_linear_266_690" x1="35.4827" y1="99.4431" x2="25.594" y2="99.6512" gradientUnits="userSpaceOnUse">
<stop offset="0.1" stop-color="#311944"/>
<stop offset="0.69" stop-color="#6D2E66"/>
<stop offset="1" stop-color="#893976"/>
</linearGradient>
<linearGradient id="paint36_linear_266_690" x1="22.2185" y1="129.815" x2="23.2117" y2="95.4288" gradientUnits="userSpaceOnUse">
<stop offset="0.1" stop-color="#311944"/>
<stop offset="0.27" stop-color="#361B47"/>
<stop offset="0.48" stop-color="#462050"/>
<stop offset="0.72" stop-color="#602A5F"/>
<stop offset="0.97" stop-color="#843773"/>
<stop offset="1" stop-color="#893976"/>
</linearGradient>
<linearGradient id="paint37_linear_266_690" x1="21.2028" y1="138.002" x2="23.5464" y2="90.2991" gradientUnits="userSpaceOnUse">
<stop stop-color="#311944"/>
<stop offset="1" stop-color="#893976"/>
</linearGradient>
<linearGradient id="paint38_linear_266_690" x1="11.6832" y1="113.698" x2="28.0641" y2="103.845" gradientUnits="userSpaceOnUse">
<stop stop-color="#FFC444"/>
<stop offset="1" stop-color="#F36F56"/>
</linearGradient>
<linearGradient id="paint39_linear_266_690" x1="26.4403" y1="105.305" x2="9.39052" y2="112.584" gradientUnits="userSpaceOnUse">
<stop stop-color="#FFC444"/>
<stop offset="1" stop-color="#F36F56"/>
</linearGradient>
<linearGradient id="paint40_linear_266_690" x1="25.2225" y1="87.3497" x2="19.0752" y2="93.6197" gradientUnits="userSpaceOnUse">
<stop stop-color="#FFC444"/>
<stop offset="1" stop-color="#F36F56"/>
</linearGradient>
<linearGradient id="paint41_linear_266_690" x1="38.3335" y1="32.6654" x2="-2.24514" y2="118.269" gradientUnits="userSpaceOnUse">
<stop stop-color="#FF9085"/>
<stop offset="1" stop-color="#FB6FBB"/>
</linearGradient>
<linearGradient id="paint42_linear_266_690" x1="85.7928" y1="50.0938" x2="96.1226" y2="63.0903" gradientUnits="userSpaceOnUse">
<stop stop-color="#FFC444"/>
<stop offset="1" stop-color="#F36F56"/>
</linearGradient>
<linearGradient id="paint43_linear_266_690" x1="167.807" y1="85.5236" x2="139.943" y2="43.863" gradientUnits="userSpaceOnUse">
<stop stop-color="#E38DDD"/>
<stop offset="1" stop-color="#9571F6"/>
</linearGradient>
<linearGradient id="paint44_linear_266_690" x1="157.015" y1="167.705" x2="162.281" y2="171.205" gradientUnits="userSpaceOnUse">
<stop stop-color="#444B8C"/>
<stop offset="1" stop-color="#26264F"/>
</linearGradient>
<linearGradient id="paint45_linear_266_690" x1="162.115" y1="171.24" x2="160.962" y2="163.09" gradientUnits="userSpaceOnUse">
<stop stop-color="#FFC444"/>
<stop offset="1" stop-color="#F36F56"/>
</linearGradient>
<linearGradient id="paint46_linear_266_690" x1="157.41" y1="167.11" x2="162.677" y2="170.61" gradientUnits="userSpaceOnUse">
<stop stop-color="#444B8C"/>
<stop offset="1" stop-color="#26264F"/>
</linearGradient>
<linearGradient id="paint47_linear_266_690" x1="123.574" y1="170.333" x2="128.299" y2="174.536" gradientUnits="userSpaceOnUse">
<stop stop-color="#444B8C"/>
<stop offset="1" stop-color="#26264F"/>
</linearGradient>
<linearGradient id="paint48_linear_266_690" x1="128.126" y1="174.545" x2="128.126" y2="166.313" gradientUnits="userSpaceOnUse">
<stop stop-color="#FFC444"/>
<stop offset="1" stop-color="#F36F56"/>
</linearGradient>
<linearGradient id="paint49_linear_266_690" x1="127.738" y1="178.319" x2="158.548" y2="53.9224" gradientUnits="userSpaceOnUse">
<stop stop-color="#444B8C"/>
<stop offset="1" stop-color="#26264F"/>
</linearGradient>
<linearGradient id="paint50_linear_266_690" x1="169.328" y1="82.0908" x2="103.191" y2="36.0958" gradientUnits="userSpaceOnUse">
<stop stop-color="#E38DDD"/>
<stop offset="1" stop-color="#9571F6"/>
</linearGradient>
<linearGradient id="paint51_linear_266_690" x1="124.05" y1="169.799" x2="128.775" y2="174.002" gradientUnits="userSpaceOnUse">
<stop stop-color="#444B8C"/>
<stop offset="1" stop-color="#26264F"/>
</linearGradient>
<linearGradient id="paint52_linear_266_690" x1="128.219" y1="20.4174" x2="153.807" y2="52.6103" gradientUnits="userSpaceOnUse">
<stop stop-color="#FFC444"/>
<stop offset="1" stop-color="#F36F56"/>
</linearGradient>
<linearGradient id="paint53_linear_266_690" x1="129.299" y1="19.5599" x2="154.887" y2="51.7526" gradientUnits="userSpaceOnUse">
<stop stop-color="#FFC444"/>
<stop offset="1" stop-color="#F36F56"/>
</linearGradient>
<linearGradient id="paint54_linear_266_690" x1="87.931" y1="7.77509" x2="123.91" y2="69.7247" gradientUnits="userSpaceOnUse">
<stop stop-color="#E38DDD"/>
<stop offset="1" stop-color="#9571F6"/>
</linearGradient>
</defs>
</svg>
