<svg width="215" height="223" viewBox="0 0 215 223" fill="none" xmlns="http://www.w3.org/2000/svg">
<path d="M65.5157 35.4316C63.2044 32.5249 61.873 29.1121 61.873 25.4624C61.873 14.8476 73.1283 6.24268 87.0118 6.24268C100.895 6.24268 112.151 14.8476 112.151 25.4624C112.151 36.0771 100.895 44.6821 87.0118 44.6821C81.8083 44.6821 76.974 43.4733 72.9638 41.403C70.3131 41.8575 66.1978 42.6199 64.0262 43.026C63.3866 43.1453 62.8625 42.5175 63.0921 41.9067L65.5165 35.4324L65.5157 35.4316Z" fill="url(#paint0_linear_266_317)"/>
<g style="mix-blend-mode:multiply" opacity="0.3">
<path d="M73.2541 29.5292C78.8909 27.1504 85.0896 32.1725 88.9649 28.6686C92.8715 25.1373 88.6511 18.1546 92.3924 13.1792C94.1764 10.8068 97.1738 9.6842 100.602 9.29175C107.548 12.7118 112.149 18.676 112.149 25.4621C112.149 36.0768 100.893 44.6818 87.01 44.6818C81.8065 44.6818 76.9721 43.473 72.9619 41.4027C70.8706 41.7614 67.8676 42.3118 65.627 42.7276C67.2801 34.1218 70.3209 30.7678 73.2541 29.53V29.5292Z" fill="url(#paint1_linear_266_317)"/>
</g>
<path d="M169.19 46.4678C172.824 41.8986 174.916 36.534 174.916 30.7955C174.916 14.1094 157.223 0.582275 135.398 0.582275C113.573 0.582275 95.8799 14.1094 95.8799 30.7955C95.8799 47.4816 113.573 61.0087 135.398 61.0087C143.578 61.0087 151.177 59.1085 157.483 55.8544C161.65 56.5684 168.119 57.7675 171.533 58.4058C172.539 58.5935 173.362 57.6063 173.002 56.6458L169.19 46.4686V46.4678Z" fill="url(#paint2_linear_266_317)"/>
<g style="mix-blend-mode:multiply" opacity="0.3">
<path d="M157.024 37.1891C148.162 33.4491 138.418 41.3433 132.326 35.8361C126.185 30.2845 132.819 19.3088 126.937 11.4863C124.133 7.7568 119.422 5.99197 114.031 5.37549C103.111 10.7514 95.8799 20.1275 95.8799 30.7946C95.8799 47.4807 113.573 61.0078 135.398 61.0078C143.578 61.0078 151.177 59.1076 157.483 55.8536C160.77 56.4169 165.491 57.2824 169.014 57.9359C166.415 44.4072 161.636 39.1353 157.024 37.1891H157.024Z" fill="url(#paint3_linear_266_317)"/>
</g>
<path d="M86.1905 53.158C85.957 53.1846 86.1343 54.9801 85.7058 55.0566C85.4345 55.105 85.0798 54.4337 84.9305 54.0832C84.433 52.9171 84.8342 52.0822 84.2035 51.5036C84.1088 51.4174 83.9338 51.2562 83.8158 51.3086C83.4491 51.4714 83.9346 53.5618 84.1986 54.5473C83.9346 53.7487 83.3584 52.2394 82.7493 51.7462C82.6658 51.6785 82.4211 51.4802 82.3127 51.5512C82.2164 51.6148 82.271 51.8646 82.3248 52.0564C82.6354 53.1637 83.6497 54.8673 83.5695 54.9366C83.4748 55.0179 81.7943 52.872 81.4886 53.0597C81.2245 53.2225 82.0359 55.1155 83.1851 56.6619C83.6497 57.2872 84.1288 57.9174 84.6617 58.2067L84.2235 59.6774H86.1889V57.9327C86.3261 57.7965 86.4256 57.662 86.481 57.5862C87.6872 55.9278 86.4874 53.1234 86.1905 53.1572V53.158Z" fill="url(#paint4_linear_266_317)"/>
<path d="M83.4179 58.9988C84.6827 58.7385 85.9475 58.479 87.2122 58.2188C87.4145 60.5372 88.2057 65.7197 92.0971 70.492C96.0463 75.3344 102.338 78.7109 108.647 78.6021C113.79 78.5135 115.606 76.1668 117.254 77.4054C120.828 80.0937 118.306 95.675 109.442 99.3433C100.997 102.837 90.9768 93.7917 86.6681 87.51C78.3805 75.4278 82.7189 61.1722 83.4179 58.9988Z" fill="url(#paint5_linear_266_317)"/>
<path style="mix-blend-mode:multiply" opacity="0.3" d="M98.0539 91.8982C95.5573 89.7763 96.822 86.7237 93.1545 81.6605C89.4662 76.5675 86.1454 76.8391 83.4891 72.7526C82.7796 71.6615 82.1167 70.2561 81.7171 68.4268C81.4121 73.9533 82.2307 81.0433 86.667 87.5111C90.9757 93.7927 100.996 102.838 109.441 99.3443C113.835 97.5263 116.67 92.7806 117.977 88.13C105.634 94.543 100.446 93.9321 98.0539 91.899V91.8982Z" fill="url(#paint6_linear_266_317)"/>
<path d="M122.307 198.887C122.307 198.887 122.517 200.57 122.376 201.133C122.235 201.697 117.362 202.104 115.707 201.909C114.053 201.713 116.693 200.016 117.746 199.697C118.8 199.379 122.306 198.886 122.306 198.886L122.307 198.887Z" fill="url(#paint7_linear_266_317)"/>
<path d="M119.854 196.079L120.367 199.456C120.367 199.456 121.677 200.046 122.307 199.463L122.376 195.928L119.854 196.079Z" fill="url(#paint8_linear_266_317)"/>
<path d="M147.323 195.928C147.323 195.928 146.288 196.698 146.564 197.621C146.84 198.543 149.253 202.241 150.973 203.29C152.692 204.339 152.153 202.153 151.652 200.792C151.152 199.43 149.873 196.43 149.374 195.928C148.875 195.425 147.323 195.928 147.323 195.928Z" fill="url(#paint9_linear_266_317)"/>
<path d="M145.465 192.218C145.965 193.617 146.446 194.767 146.822 195.616C147.654 197.493 148.108 198.197 148.624 198.808C149.073 199.34 150.135 200.474 150.421 200.286C150.712 200.094 149.933 198.714 148.434 194.674C148.217 194.088 147.529 192.219 147.529 192.219H145.465V192.218Z" fill="url(#paint10_linear_266_317)"/>
<path d="M109.649 133.76C109.293 137.277 108.95 142.734 109.462 149.358C110.129 157.988 111.847 163.449 114.003 172.651C115.32 178.275 117.095 186.552 118.701 196.903C119.073 197.117 120.169 197.681 121.581 197.47C122.371 197.353 122.962 197.037 123.311 196.81C127.525 183.88 126.28 175.868 124.247 170.876C123.38 168.748 122.329 167.069 121.767 163.798C121.024 159.471 121.943 157.052 123.253 147.027C124.187 139.882 124.026 138.777 123.404 137.706C120.92 133.422 113.32 133.506 109.648 133.76H109.649Z" fill="url(#paint11_linear_266_317)"/>
<path d="M124.153 135.263C126.735 148.65 129.269 155.681 131.186 159.658C131.658 160.638 133.236 163.802 134.727 168.339C136.047 172.355 136.598 175.308 136.88 176.608C137.77 180.711 139.969 186.703 145.888 194.561C145.962 194.604 146.971 195.177 147.936 194.666C148.424 194.408 148.668 193.995 148.764 193.803C147.99 186.29 147.102 179.976 146.331 175.104C146.169 174.082 145.457 169.611 144.339 163.704C143.902 161.392 143.261 158.005 142.494 154.526C141.539 150.194 140.074 144.3 137.815 137.236C133.261 136.579 128.708 135.921 124.153 135.263Z" fill="url(#paint12_linear_266_317)"/>
<path d="M121.956 82.3136C120.492 80.9549 117.691 79.3884 116.286 75.7467C115.863 74.6507 114.365 70.7665 116.575 67.7961C117.886 66.0321 120.323 64.8346 122.47 65.2593C124.305 65.6219 124.592 66.9048 127.71 69.4876C128.924 70.4925 130.875 72.109 133.046 73.0076C136.766 74.5468 139.001 73.0986 142.736 73.2638C147.324 73.4669 152.654 76.0384 155.222 79.7776C159.779 86.4138 153.177 93.1459 158.169 100.92C159.805 103.467 160.611 102.896 164.486 107.826C168.365 112.763 170.305 115.231 169.96 118.256C169.481 122.455 164.978 126.465 160.737 126.737C156.595 127.004 153.962 123.731 151.853 125.163C150.352 126.181 151.21 128.163 149.616 130.544C147.561 133.614 143.522 134.226 142.869 134.324C136.814 135.242 128.651 128.112 125.183 119.666C118.931 104.434 129.914 89.7025 121.955 82.3144L121.956 82.3136Z" fill="url(#paint13_linear_266_317)"/>
<path style="mix-blend-mode:multiply" opacity="0.3" d="M124.246 170.876C123.379 168.748 122.328 167.069 121.766 163.798C121.023 159.471 121.942 157.051 123.252 147.027C124.186 139.882 124.025 138.777 123.403 137.706C122.053 135.378 119.191 134.345 116.271 133.923C116.31 134.074 116.35 134.224 116.381 134.37C117.913 141.396 112.066 145.683 114.703 153.407C116.003 157.214 118.078 158.087 118.561 162.504C119.014 166.642 117.372 167.503 117.723 171.264C118.247 176.886 122.224 178.246 123.259 182.552C123.932 185.35 123.365 189.44 118.454 195.361C118.536 195.871 118.617 196.383 118.698 196.903C119.071 197.118 120.166 197.681 121.578 197.471C122.369 197.353 122.959 197.037 123.308 196.811C127.522 183.881 126.278 175.868 124.244 170.877L124.246 170.876Z" fill="url(#paint14_linear_266_317)"/>
<path d="M104.259 81.3019C104.645 80.6991 105.874 79.0293 111.087 77.7988C113.7 77.1823 118.53 76.125 124.746 77.4483C133.283 79.2647 138.6 84.4084 140.601 86.5706C138.962 87.6424 134.44 90.9117 132.201 97.1136C131.505 99.0436 129.446 105.64 132.39 111.82C134.086 115.38 137.087 118.053 139.366 120.084C142.785 123.129 144.555 123.596 145.701 126.325C146.949 129.296 145.691 130.744 147.241 132.778C148.906 134.962 150.856 133.947 153.677 136.156C156.567 138.418 155.539 140.28 158.169 142.781C161.991 146.414 167.057 145.234 167.293 146.868C167.496 148.274 163.895 150.182 160.836 150.955C154.778 152.487 149.494 149.916 147.922 149.123C143.572 146.928 144.323 145.508 141.006 143.835C135.453 141.034 131.657 144.151 119.007 144.471C112.157 144.645 108.693 144.685 106.795 142.358C105.062 140.232 105.973 137.9 107.013 127.851C107.013 127.851 107.013 127.851 107.013 127.849C107.347 124.493 108.047 117.466 108.052 113.462C108.054 111.095 107.237 107.229 105.603 99.4957C105.506 99.0396 104.622 94.862 103.907 89.2807C103.263 84.2553 103.356 82.7113 104.261 81.3011L104.259 81.3019Z" fill="url(#paint15_linear_266_317)"/>
<g style="mix-blend-mode:multiply" opacity="0.15">
<path d="M158.171 142.781C155.541 140.28 156.569 138.419 153.679 136.156C150.858 133.947 148.907 134.962 147.243 132.778C145.693 130.744 146.951 129.296 145.703 126.325C144.557 123.596 142.787 123.129 139.368 120.084C137.089 118.053 134.088 115.38 132.392 111.82C129.447 105.64 131.507 99.0435 132.203 97.1135C134.443 90.9108 138.965 87.6415 140.603 86.5705C140.445 86.3996 140.26 86.2054 140.061 86.0007C129.264 87.4908 122.969 93.7547 122.191 95.6098C120.391 99.8977 123.241 101.473 123.314 113.839C123.349 119.75 122.714 122.084 124.623 124.551C126.808 127.373 129.325 126.5 132.484 130.189C134.911 133.023 134.522 134.82 136.789 136.015C139.225 137.298 140.778 135.802 143.526 136.391C148.118 137.374 149.099 142.69 152.134 145.6C154.43 147.799 158.674 149.337 167.044 147.686C167.238 147.403 167.332 147.127 167.294 146.868C167.058 145.234 161.992 146.413 158.17 142.781H158.171Z" fill="url(#paint16_linear_266_317)"/>
</g>
<path d="M125.445 98.8757C124.284 101.317 129.526 107.046 135.373 109.785C136.564 110.344 145.118 114.351 148.962 110.565C152.137 107.436 150.135 100.919 149.421 98.592C145.911 87.1666 134.968 81.3032 130.381 79.1846C126.901 87.7831 128.901 91.6351 129.69 92.8382C130.514 94.0953 132.819 96.7394 135.27 99.0715C136.994 100.711 138.068 101.511 137.922 101.765C137.74 102.081 135.712 101.471 127.844 97.5702C126.928 97.7136 125.842 98.0416 125.446 98.8757H125.445Z" fill="url(#paint17_linear_266_317)"/>
<path d="M121.241 70.7466C121.241 70.7466 121.785 75.1176 123.392 76.1192C124.998 77.1201 127.595 78.428 127.882 78.7834C128.167 79.138 117.929 80.2436 112.855 77.6721C114.528 77.3216 114.982 77.1934 114.982 77.1934C115.436 77.0645 116.282 76.8252 117.131 76.3392C117.709 76.0088 118.64 75.3633 119.494 74.1449L119.475 71.7249L121.241 70.7466Z" fill="url(#paint18_linear_266_317)"/>
<path d="M121.489 72.2948C121.489 72.2948 120.442 73.7389 118.799 73.1369C117.328 72.5986 118.206 68.7836 119.373 68.3485C119.762 68.2034 120.476 68.2679 120.954 68.5669C121.291 68.7772 122.188 69.8965 121.674 71.1504C122.045 71.0425 122.373 71.1408 122.454 71.3253C122.559 71.5598 122.243 71.8789 122.173 71.9515C121.926 72.2021 121.628 72.2722 121.491 72.2948H121.489Z" fill="url(#paint19_linear_266_317)"/>
<path d="M124.41 91.524C124.41 91.9237 122.773 92.2485 120.753 92.2485C118.733 92.2485 117.095 91.9245 117.095 91.524C117.095 91.1235 118.733 90.7996 120.753 90.7996C122.773 90.7996 124.41 91.1235 124.41 91.524Z" fill="url(#paint20_linear_266_317)"/>
<path d="M117.099 91.5242C117.099 91.5242 116.929 92.3034 116.929 92.3099C116.929 92.3163 124.557 92.3099 124.557 92.3099L124.414 91.5242H117.099Z" fill="url(#paint21_linear_266_317)"/>
<path d="M120.741 93.0683C122.847 93.0683 124.554 92.7302 124.554 92.3132C124.554 91.8962 122.847 91.5581 120.741 91.5581C118.636 91.5581 116.929 91.8962 116.929 92.3132C116.929 92.7302 118.636 93.0683 120.741 93.0683Z" fill="url(#paint22_linear_266_317)"/>
<path d="M120.743 101.359C122.151 101.359 123.292 101.019 123.292 100.6C123.292 100.18 122.151 99.8396 120.743 99.8396C119.335 99.8396 118.194 100.18 118.194 100.6C118.194 101.019 119.335 101.359 120.743 101.359Z" fill="url(#paint23_linear_266_317)"/>
<path d="M123.291 99.9534H118.194V100.574H123.291V99.9534Z" fill="url(#paint24_linear_266_317)"/>
<path d="M123.492 100.014C123.492 100.467 122.261 100.833 120.744 100.833C119.226 100.833 117.995 100.467 117.995 100.014C117.995 99.561 119.226 99.1943 120.744 99.1943C122.261 99.1943 123.492 99.5618 123.492 100.014Z" fill="url(#paint25_linear_266_317)"/>
<path d="M124.191 92.2519C124.191 92.6065 122.648 92.8942 120.744 92.8942C118.839 92.8942 117.296 92.6065 117.296 92.2519C117.296 91.8973 118.839 91.6096 120.744 91.6096C122.648 91.6096 124.191 91.8973 124.191 92.2519Z" fill="url(#paint26_linear_266_317)"/>
<path d="M117.293 92.252L117.994 100.014H123.492L124.193 92.252H117.293Z" fill="url(#paint27_linear_266_317)"/>
<path d="M117.871 98.4525C119.319 98.579 122.151 98.5798 123.611 98.4541C123.647 98.4509 123.675 98.4227 123.678 98.3872L124.07 94.0541C124.073 94.0138 124.044 93.9784 124.004 93.9744C122.611 93.8398 118.849 93.8406 117.48 93.9768C117.44 93.9808 117.411 94.0163 117.414 94.0565L117.805 98.3856C117.808 98.4211 117.836 98.4493 117.872 98.4525H117.871Z" fill="url(#paint28_linear_266_317)"/>
<path d="M123.667 94.0133C123.566 95.4654 123.464 96.9184 123.363 98.3714C123.357 98.4471 123.422 98.51 123.499 98.5043C123.501 98.5043 123.502 98.5043 123.503 98.5043C123.565 98.4995 123.614 98.4503 123.619 98.3899C123.73 96.9385 123.841 95.4864 123.952 94.035C123.958 93.9666 123.906 93.9069 123.837 93.9013C123.826 93.9005 123.814 93.8997 123.803 93.8989C123.733 93.8932 123.672 93.9456 123.667 94.0149V94.0133Z" fill="url(#paint29_linear_266_317)"/>
<path d="M123.194 93.9844C123.108 95.4567 123.022 96.9282 122.936 98.4005C122.932 98.4747 122.994 98.5367 123.069 98.5319C123.07 98.5319 123.071 98.5319 123.072 98.5319C123.136 98.5278 123.187 98.4787 123.191 98.4158C123.287 96.9443 123.384 95.4728 123.48 94.0013C123.485 93.932 123.431 93.8724 123.36 93.8692C123.349 93.8692 123.338 93.8676 123.327 93.8676C123.257 93.8643 123.197 93.9167 123.194 93.9844Z" fill="url(#paint30_linear_266_317)"/>
<path d="M122.723 93.9658C122.653 95.4518 122.583 96.9378 122.513 98.423C122.51 98.4963 122.571 98.5559 122.644 98.5535C122.645 98.5535 122.647 98.5535 122.648 98.5535C122.713 98.5511 122.765 98.4995 122.769 98.4359L123.01 93.9795C123.014 93.9102 122.959 93.8514 122.888 93.8481C122.877 93.8481 122.866 93.8473 122.855 93.8465C122.786 93.8441 122.727 93.8973 122.724 93.965L122.723 93.9658Z" fill="url(#paint31_linear_266_317)"/>
<path d="M122.251 93.9521C122.197 95.4478 122.144 96.9435 122.09 98.4391C122.088 98.5109 122.147 98.5705 122.22 98.5681C122.221 98.5681 122.222 98.5681 122.223 98.5681C122.289 98.5665 122.343 98.5141 122.345 98.4488C122.409 96.9531 122.474 95.4583 122.537 93.9626C122.54 93.8933 122.485 93.8345 122.414 93.8329C122.403 93.8329 122.392 93.8329 122.38 93.8321C122.311 93.8305 122.254 93.8836 122.25 93.9521H122.251Z" fill="url(#paint32_linear_266_317)"/>
<path d="M121.778 93.9441L121.666 98.4521C121.664 98.523 121.723 98.581 121.795 98.5794C121.796 98.5794 121.797 98.5794 121.798 98.5794C121.865 98.5778 121.919 98.5246 121.921 98.4585C121.969 96.9564 122.016 95.4535 122.063 93.9514C122.066 93.8821 122.01 93.8241 121.94 93.8233C121.928 93.8233 121.917 93.8233 121.906 93.8233C121.837 93.8224 121.779 93.8764 121.778 93.9449V93.9441Z" fill="url(#paint33_linear_266_317)"/>
<path d="M121.308 93.9391C121.288 95.446 121.267 96.953 121.247 98.4599C121.246 98.53 121.304 98.5873 121.375 98.5865C121.375 98.5865 121.376 98.5865 121.377 98.5865C121.445 98.5865 121.501 98.5317 121.501 98.4648C121.532 96.9578 121.562 95.4509 121.593 93.9447C121.595 93.8754 121.538 93.8182 121.468 93.8174C121.457 93.8174 121.445 93.8174 121.434 93.8174C121.364 93.8174 121.307 93.8714 121.306 93.9407L121.308 93.9391Z" fill="url(#paint34_linear_266_317)"/>
<path d="M120.837 93.9376C120.833 95.4461 120.83 96.9555 120.826 98.4641C120.826 98.5334 120.883 98.589 120.953 98.589C120.954 98.589 120.955 98.589 120.955 98.589C121.024 98.589 121.081 98.5334 121.081 98.4657C121.095 96.9571 121.109 95.4477 121.122 93.9392C121.122 93.8699 121.066 93.8135 120.996 93.8135C120.985 93.8135 120.974 93.8135 120.963 93.8135C120.893 93.8135 120.836 93.8691 120.836 93.9376H120.837Z" fill="url(#paint35_linear_266_317)"/>
<path d="M120.363 93.9392C120.377 95.4478 120.391 96.9571 120.404 98.4657C120.404 98.5334 120.461 98.589 120.53 98.589C120.531 98.589 120.532 98.589 120.533 98.589C120.602 98.589 120.659 98.5334 120.659 98.4641C120.656 96.9555 120.653 95.4461 120.65 93.9376C120.65 93.8691 120.593 93.8127 120.523 93.8135C120.512 93.8135 120.501 93.8135 120.489 93.8135C120.419 93.8135 120.362 93.8699 120.363 93.9392Z" fill="url(#paint36_linear_266_317)"/>
<path d="M119.892 93.9442C119.923 95.4512 119.953 96.9573 119.984 98.4643C119.985 98.5312 120.04 98.5852 120.108 98.5868C120.109 98.5868 120.11 98.5868 120.111 98.5868C120.182 98.5876 120.24 98.5304 120.238 98.4602C120.218 96.9533 120.197 95.4471 120.177 93.9402C120.176 93.8717 120.119 93.8169 120.05 93.8169C120.038 93.8169 120.027 93.8169 120.016 93.8169C119.945 93.8169 119.89 93.8749 119.891 93.9442H119.892Z" fill="url(#paint37_linear_266_317)"/>
<path d="M119.422 93.9522C119.469 95.4543 119.517 96.9564 119.564 98.4585C119.566 98.5246 119.62 98.5778 119.688 98.5794C119.688 98.5794 119.689 98.5794 119.69 98.5794C119.762 98.581 119.821 98.523 119.819 98.4521C119.782 96.95 119.745 95.4479 119.708 93.9449C119.706 93.8764 119.648 93.8224 119.579 93.8233C119.568 93.8233 119.557 93.8233 119.546 93.8233C119.475 93.8249 119.42 93.8821 119.422 93.9514V93.9522Z" fill="url(#paint38_linear_266_317)"/>
<path d="M118.95 93.9634C119.014 95.4583 119.078 96.9531 119.142 98.448C119.144 98.5133 119.198 98.5649 119.264 98.5673C119.265 98.5673 119.266 98.5673 119.267 98.5673C119.34 98.5697 119.4 98.5101 119.397 98.4383C119.343 96.9427 119.29 95.4478 119.236 93.9521C119.233 93.8836 119.176 93.8305 119.106 93.8321C119.095 93.8321 119.083 93.8321 119.072 93.8329C119.002 93.8345 118.946 93.8933 118.949 93.9626L118.95 93.9634Z" fill="url(#paint39_linear_266_317)"/>
<path d="M118.477 93.9804C118.557 95.4656 118.637 96.95 118.718 98.4352C118.721 98.4996 118.773 98.5504 118.838 98.5528C118.839 98.5528 118.84 98.5528 118.841 98.5528C118.915 98.556 118.976 98.4956 118.973 98.4223C118.903 96.9371 118.832 95.4519 118.762 93.9667C118.759 93.8982 118.701 93.8458 118.632 93.8482C118.62 93.8482 118.609 93.849 118.598 93.8498C118.527 93.8523 118.473 93.9119 118.477 93.9812V93.9804Z" fill="url(#paint40_linear_266_317)"/>
<path d="M118.007 94.0029C118.103 95.4736 118.2 96.9443 118.295 98.415C118.299 98.4778 118.35 98.5278 118.414 98.531C118.416 98.531 118.416 98.531 118.417 98.531C118.493 98.535 118.555 98.4738 118.551 98.3996C118.465 96.9281 118.379 95.4566 118.293 93.986C118.289 93.9175 118.229 93.8651 118.16 93.8691C118.148 93.8691 118.137 93.8699 118.126 93.8707C118.056 93.8748 118.002 93.9344 118.007 94.0029Z" fill="url(#paint41_linear_266_317)"/>
<path d="M117.535 94.0351C117.647 95.4857 117.758 96.9362 117.869 98.3868C117.874 98.448 117.923 98.4963 117.985 98.5012C117.986 98.5012 117.988 98.5012 117.989 98.5012C118.066 98.5076 118.13 98.4448 118.125 98.3682C118.024 96.9169 117.922 95.4655 117.821 94.0134C117.816 93.9441 117.755 93.8925 117.685 93.8981C117.674 93.8989 117.662 93.8997 117.651 93.9005C117.582 93.9062 117.531 93.9658 117.535 94.0343V94.0351Z" fill="url(#paint42_linear_266_317)"/>
<g style="mix-blend-mode:soft-light" opacity="0.3">
<path d="M120.53 98.589C120.53 98.589 120.532 98.589 120.533 98.589C120.57 98.589 120.604 98.5729 120.627 98.5479C120.704 98.5479 120.781 98.5479 120.858 98.5479C120.881 98.5729 120.915 98.589 120.952 98.589C120.953 98.589 120.953 98.589 120.954 98.589C120.991 98.589 121.025 98.5729 121.048 98.5471C121.125 98.5471 121.202 98.5463 121.279 98.5455C121.302 98.5705 121.336 98.5866 121.374 98.5858C121.375 98.5858 121.376 98.5858 121.376 98.5858C121.395 98.5858 121.412 98.581 121.428 98.5737C121.775 97.456 121.677 96.663 121.426 96.0844C121.008 95.1238 120.079 94.5638 119.453 93.8635C119.446 93.8707 119.441 93.878 119.436 93.886C119.361 93.8876 119.287 93.8893 119.214 93.8909C119.191 93.8546 119.15 93.8312 119.104 93.8321C119.092 93.8321 119.081 93.8321 119.07 93.8329C119.023 93.8345 118.984 93.8594 118.963 93.8973C118.888 93.8997 118.814 93.9014 118.742 93.9038C118.718 93.8683 118.677 93.8449 118.631 93.8466C118.62 93.8466 118.608 93.8474 118.597 93.8482C118.551 93.8498 118.511 93.8756 118.491 93.9134C118.415 93.9167 118.341 93.9199 118.269 93.9231C118.245 93.8877 118.203 93.8659 118.157 93.8683C118.146 93.8683 118.135 93.8691 118.124 93.8699C118.078 93.8723 118.039 93.8989 118.019 93.936C117.942 93.9408 117.867 93.9449 117.796 93.9505C117.771 93.9159 117.73 93.8949 117.683 93.8989C117.672 93.8997 117.661 93.9005 117.649 93.9014C117.604 93.9054 117.566 93.9328 117.547 93.9698C117.523 93.9723 117.502 93.9739 117.48 93.9763C117.44 93.9803 117.411 94.0158 117.414 94.0561L117.805 98.3851C117.808 98.4206 117.836 98.4488 117.872 98.452C117.879 98.452 117.887 98.4536 117.895 98.4536C117.916 98.4802 117.947 98.4972 117.983 98.5004C117.985 98.5004 117.987 98.5004 117.987 98.5004C118.024 98.5036 118.058 98.4907 118.083 98.4681C118.16 98.4738 118.239 98.4794 118.322 98.4843C118.344 98.5101 118.376 98.5278 118.412 98.5294C118.413 98.5294 118.414 98.5294 118.415 98.5294C118.452 98.5318 118.486 98.5181 118.511 98.4947C118.588 98.4988 118.666 98.5028 118.746 98.506C118.769 98.5318 118.801 98.5487 118.838 98.5503C118.839 98.5503 118.84 98.5503 118.841 98.5503C118.878 98.552 118.913 98.5374 118.937 98.5133C119.014 98.5165 119.092 98.5189 119.17 98.5213C119.193 98.5471 119.226 98.564 119.263 98.5648C119.263 98.5648 119.264 98.5648 119.266 98.5648C119.303 98.5657 119.337 98.5512 119.36 98.527C119.437 98.5294 119.514 98.531 119.593 98.5326C119.616 98.5584 119.649 98.5753 119.686 98.5753C119.687 98.5753 119.688 98.5753 119.689 98.5753C119.726 98.5753 119.76 98.5608 119.783 98.5358C119.86 98.5375 119.937 98.5383 120.015 98.5399C120.038 98.5657 120.071 98.5818 120.108 98.5826C120.109 98.5826 120.11 98.5826 120.111 98.5826C120.148 98.5826 120.181 98.5673 120.205 98.5423C120.282 98.5431 120.36 98.5439 120.437 98.5439C120.46 98.5697 120.493 98.5858 120.53 98.5858V98.589Z" fill="white"/>
</g>
<path d="M126.899 98.6845C126.899 98.6845 125.497 95.8688 124.656 95.3055C123.815 94.7422 120.032 94.4972 118.979 94.6197C117.925 94.7422 117.846 95.5311 118.727 96.1226C119.608 96.7141 122.103 97.3895 122.538 97.8963C122.973 98.4032 126.058 99.8119 126.899 98.6853L126.899 98.6845Z" fill="url(#paint43_linear_266_317)"/>
<path d="M55.3901 50.821C55.1574 50.7879 54.8805 52.5705 54.4463 52.5367C54.1719 52.5149 53.9961 51.7767 53.9391 51.3988C53.7489 50.1449 54.346 49.4373 53.8798 48.7185C53.8099 48.6113 53.6807 48.4115 53.5531 48.4324C53.1567 48.4977 53.1053 50.6437 53.115 51.6647C53.0588 50.825 52.8782 49.2189 52.4112 48.588C52.3469 48.5017 52.1592 48.2479 52.0372 48.2898C51.9288 48.3269 51.9184 48.5823 51.9224 48.7822C51.9465 49.9321 52.5026 51.8372 52.4079 51.8831C52.2956 51.9379 51.205 49.4373 50.8623 49.5429C50.5654 49.634 50.8791 51.6704 51.6046 53.4569C51.7218 53.7462 51.8414 54.0364 51.9714 54.3071C52.3229 55.0429 52.2996 55.9027 51.8791 56.6014L51.8566 56.6385L53.7594 57.1333L54.1951 55.4442C54.3621 55.3467 54.4921 55.2419 54.5643 55.1823C56.1461 53.8808 55.6854 50.8637 55.3893 50.821H55.3901Z" fill="url(#paint44_linear_266_317)"/>
<path d="M51.0546 55.64H55.2774C54.129 56.7367 46.9112 63.8662 47.3358 74.9628C47.68 83.9417 52.8073 89.7656 54.2205 91.2718C51.1308 97.4221 47.1496 99.7502 45.2829 100.629C44.6152 100.943 38.622 103.851 37.9784 101.631C37.8019 101.022 24.4071 74.4309 51.0538 55.6392L51.0546 55.64Z" fill="url(#paint45_linear_266_317)"/>
<path d="M113.701 85.7961C113.804 86.0072 112.204 86.8284 112.372 87.2313C112.478 87.4868 113.232 87.4239 113.607 87.3602C114.852 87.1499 115.335 86.3602 116.161 86.581C116.285 86.614 116.514 86.6753 116.534 86.8034C116.595 87.2015 114.581 87.9203 113.612 88.2298C114.425 88.0211 116 87.6923 116.743 87.9405C116.844 87.9743 117.143 88.0742 117.142 88.204C117.14 88.3192 116.902 88.4087 116.712 88.4667C115.616 88.8019 113.64 88.8664 113.626 88.9712C113.609 89.0953 116.316 89.3555 116.322 89.715C116.329 90.0268 114.304 90.3629 112.388 90.2283C112.078 90.2065 111.766 90.1832 111.469 90.1437C110.663 90.0381 109.857 90.3282 109.327 90.9479L109.299 90.9802L108.236 89.3193L109.698 88.3764C109.738 88.1871 109.796 88.0299 109.83 87.9421C110.568 86.0266 113.567 85.5253 113.699 85.7945L113.701 85.7961Z" fill="url(#paint46_linear_266_317)"/>
<path d="M67.5709 216.537C67.5709 216.537 75.5583 220.182 75.6891 220.764C75.8199 221.346 70.5522 220.569 68.4023 220.653C66.2523 220.737 64.4828 220.099 64.6778 219.184C64.8728 218.269 65.6248 215.969 65.6248 215.969L67.5709 216.536V216.537Z" fill="url(#paint47_linear_266_317)"/>
<path d="M67.8625 213.578L67.377 217.189C67.377 217.189 66.1122 217.641 65.2631 217.107L64.9004 213.146L67.8625 213.578Z" fill="url(#paint48_linear_266_317)"/>
<path d="M30.247 213.665L29.3177 215.163C29.0577 215.582 28.9807 216.086 29.105 216.563C29.4301 217.809 30.0785 220.237 30.3618 220.869C30.747 221.731 35.916 222.243 35.916 222.243C35.916 222.243 36.3766 221.592 35.3037 220.805C34.2307 220.018 33.5405 219.894 33.1618 218.734C32.783 217.572 32.5302 214.289 32.5302 214.289L30.2462 213.665H30.247Z" fill="url(#paint49_linear_266_317)"/>
<path d="M34.1137 209.858C33.7742 210.13 32.1146 215.19 32.1146 215.19C32.1146 215.19 31.577 215.88 30.5562 214.862C29.5354 213.843 30.0939 214.405 30.0939 214.405L30.2849 209.428L34.1129 209.858H34.1137Z" fill="url(#paint50_linear_266_317)"/>
<path d="M72.258 141.025C72.6793 151.797 72.6962 163.501 72.079 176.004C71.384 190.084 69.9877 203.097 68.2278 214.893C67.5737 214.914 66.8859 214.917 66.1677 214.897C65.683 214.883 65.2127 214.86 64.7585 214.828C63.8452 212.382 62.765 209.165 61.7988 205.323C60.782 201.283 60.1689 197.659 59.7323 194.194C58.1939 181.993 59.9972 180.928 58.7484 171.887C57.6434 163.878 56.0704 163.565 54.2255 152.195C52.2232 139.859 53.7135 138.007 54.4389 137.339C57.5254 134.493 64.7745 136.43 72.2588 141.025L72.258 141.025Z" fill="url(#paint51_linear_266_317)"/>
<path style="mix-blend-mode:multiply" opacity="0.3" d="M54.4389 137.339C57.3826 134.624 64.1141 136.268 71.2243 140.411C63.0451 149.285 62.1535 155.041 63.1342 158.776C64.2425 162.998 67.6114 164.213 67.5986 168.829C67.5825 174.502 62.4841 176.005 62.5925 182.007C62.6639 185.976 64.9045 185.935 65.4334 190.838C66.0594 196.639 63.1326 198.637 64.0804 202.929C64.488 204.775 65.6525 207.188 68.9677 209.673C68.7285 211.436 68.4838 213.18 68.2278 214.892C67.5737 214.913 66.886 214.916 66.1677 214.896C65.683 214.882 65.2127 214.859 64.7585 214.828C63.8452 212.382 62.765 209.165 61.7988 205.322C60.782 201.283 60.1689 197.659 59.7323 194.193C58.1939 181.991 59.9972 180.927 58.7484 171.885C57.6434 163.876 56.0704 163.564 54.2255 152.194C52.2232 139.857 53.7135 138.006 54.4389 137.338V137.339Z" fill="url(#paint52_linear_266_317)"/>
<path d="M67.1926 140.843C60.1497 151.191 52.5539 164.07 45.7598 179.484C40.6261 191.133 36.9024 202.071 34.1691 211.818C33.7991 211.99 32.9268 212.333 31.8113 212.185C30.2905 211.983 29.3788 211.009 29.1405 210.736C28.0282 203.749 28.1502 197.83 28.5282 193.559C28.7697 190.825 29.1975 186.27 30.9333 180.649C32.8778 174.351 34.214 173.997 36.7507 167.335C39.3838 160.419 38.7458 158.694 41.2673 150.04C42.3025 146.484 44.0368 141.194 46.8977 134.865C53.6621 136.858 60.4274 138.85 67.1918 140.843H67.1926Z" fill="url(#paint53_linear_266_317)"/>
<path d="M109.156 88.0154C109.396 89.4643 109.637 90.9141 109.877 92.363C106.405 96.219 100.536 101.675 91.8951 105.33C82.7368 109.205 65.6208 113.107 60.3844 105.764C57.1927 101.288 55.2547 90.968 59.24 88.7431C63.072 86.6035 70.9567 93.0359 77.7147 95.0296C84.3394 96.9846 94.3612 96.9531 109.156 88.0162L109.156 88.0154Z" fill="url(#paint54_linear_266_317)"/>
<path d="M113.701 85.7961C113.804 86.0072 112.204 86.8284 112.372 87.2313C112.478 87.4868 113.232 87.4239 113.607 87.3602C114.852 87.1499 115.335 86.3602 116.161 86.581C116.285 86.614 116.514 86.6753 116.534 86.8034C116.595 87.2015 114.581 87.9203 113.612 88.2298C114.425 88.0211 116 87.6923 116.743 87.9405C116.844 87.9743 117.143 88.0742 117.142 88.204C117.14 88.3192 116.902 88.4087 116.712 88.4667C115.616 88.8019 113.64 88.8664 113.626 88.9712C113.609 89.0953 116.316 89.3555 116.322 89.715C116.329 90.0268 114.304 90.3629 112.388 90.2283C112.078 90.2065 111.766 90.1832 111.469 90.1437C110.663 90.0381 109.857 90.3282 109.327 90.9479L109.299 90.9802L108.236 89.3193L109.698 88.3764C109.738 88.1871 109.796 88.0299 109.83 87.9421C110.568 86.0266 113.567 85.5253 113.699 85.7945L113.701 85.7961Z" fill="url(#paint55_linear_266_317)"/>
<path d="M109.156 88.0154C109.396 89.4643 109.637 90.9141 109.877 92.363C106.405 96.219 100.536 101.675 91.8951 105.33C82.7368 109.205 65.6208 113.107 60.3844 105.764C57.1927 101.288 55.2547 90.968 59.24 88.7431C63.072 86.6035 70.9567 93.0359 77.7147 95.0296C84.3394 96.9846 94.3612 96.9531 109.156 88.0162L109.156 88.0154Z" fill="url(#paint56_linear_266_317)"/>
<path d="M54.086 88.5986C60.9315 88.4737 66.2032 88.6978 69.1179 91.7528C72.1964 94.9794 68.939 98.4752 69.443 106.751C70.2142 119.421 78.1727 122.687 78.4985 135.531C78.6085 139.858 77.8028 143.376 77.1912 145.491C75.3824 147.655 72.4315 150.701 68.1204 153.207C61.8472 156.854 58.2711 156.116 49.3263 158.364C34.6957 162.043 33.2985 166.774 26.1128 165.404C18.8508 164.019 12.5904 157.719 13.4362 154.354C13.9426 152.339 16.8686 152.977 20.3186 149.961C24.7645 146.076 23.1659 142.238 26.5734 138.032C31.4679 131.99 38.0197 135.892 42.1928 130.655C46.414 125.356 45.0168 114.704 41.6824 108.84C39.5051 105.011 38.6336 100.56 36.7966 96.5541C36.6442 96.2212 36.47 95.6773 36.5663 95.0044C36.9347 92.4297 41.2498 91.1234 44.5176 90.1676C49.5013 88.709 53.5235 88.6083 54.086 88.5978V88.5986Z" fill="url(#paint57_linear_266_317)"/>
<path d="M60.7492 88.4601L59.409 88.0137C59.409 88.0137 59.0166 89.8398 54.6742 89.9743C52.2666 89.9219 50.7402 88.5335 50.7402 88.5335L49.8037 89.1878C49.8037 89.1878 51.7707 91.7682 54.988 91.7746C59.1402 91.7819 60.7484 88.4609 60.7484 88.4609L60.7492 88.4601Z" fill="url(#paint58_linear_266_317)"/>
<path d="M59.6499 82.564C60.0174 80.5663 58.9011 78.8498 58.6564 78.4799C57.63 76.9335 57.3844 76.732 56.9398 76.4879L56.3243 76.18C56.3243 76.18 56.289 76.1695 56.2528 76.1599C55.8668 76.0608 54.5892 76.1389 54.3356 76.2171C53.5267 76.4693 52.9561 79.9232 53.6399 84.6697C53.607 85.042 53.574 85.4151 53.5419 85.7874C51.7018 85.532 51.1689 85.7085 51.0742 85.9559C50.8696 86.4918 52.1512 89.6241 53.9047 90.2406C56.1036 91.0134 59.166 88.9972 59.3497 88.2679C59.4244 87.9729 59.4107 88.226 57.914 87.3557C57.776 86.9189 57.3483 85.7375 57.2102 85.3007C57.528 85.0968 59.3786 84.0331 59.6491 82.5616L59.6499 82.564Z" fill="url(#paint59_linear_266_317)"/>
<path d="M57.142 80.9571C56.7359 80.4921 56.1452 81.0184 56.1998 81.6622C56.2544 82.3061 56.9365 82.9186 57.528 82.7365C58.1194 82.5543 57.6885 81.5825 57.142 80.9571Z" fill="url(#paint60_linear_266_317)"/>
<path d="M3.38777 99.1856C7.63629 95.0234 13.3927 99.7392 20.0159 95.2305C27.192 90.3454 24.9449 81.7388 31.0842 79.9127C35.2805 78.6645 41.626 81.1078 44.9171 78.8417C45.45 78.4751 47.612 76.9125 50.7001 75.0582C52.0611 74.2411 53.3949 73.4925 55.008 73.7471C55.4181 73.8116 56.7839 74.0195 57.3722 75.138C57.8489 76.0446 57.6394 77.2856 57.1603 78.0738C56.873 78.5452 56.6973 78.5476 56.6122 78.8893C56.3746 79.8499 57.9484 80.8105 57.702 81.2537C57.5255 81.5704 56.678 81.1594 56.3891 81.5349C56.0721 81.9459 56.9188 82.6615 56.9621 83.967C57.5776 84.7479 57.6531 86.221 57.2614 88.0325C56.686 90.6959 55.7559 92.7097 54.7616 94.1329C50.3831 100.401 44.5319 103.05 41.5225 107.606C36.2492 115.59 43.6082 122.829 39.269 128.185C33.7277 135.027 13.4016 133.494 4.97916 121.458C0.208206 114.64 -1.25077 103.727 3.38697 99.184L3.38777 99.1856Z" fill="#26264F"/>
<g style="mix-blend-mode:multiply" opacity="0.3">
<path d="M31.2558 154.529C38.1398 149.936 44.3713 155.19 49.2377 151.144C53.2455 147.812 49.9592 143.466 54.2952 137.601C59.0501 131.17 65.6476 132.815 67.2197 128.008C68.8448 123.041 62.3252 119.67 62.1622 112.773C62.0788 109.253 63.6533 104.668 69.9402 99.1709C69.6008 101.177 69.2533 103.622 69.4443 106.752C70.2155 119.422 78.1748 122.688 78.4999 135.532C78.6098 139.859 77.8041 143.377 77.1926 145.492C75.3837 147.656 72.4328 150.702 68.1217 153.208C61.8485 156.854 58.2725 156.117 49.3276 158.365C34.697 162.044 33.2998 166.775 26.1141 165.405C24.0211 165.006 22.0132 164.197 20.2324 163.17C22.3254 162.842 23.8847 162.128 25.074 161.302C28.2175 159.116 27.6653 156.925 31.255 154.53L31.2558 154.529Z" fill="url(#paint61_linear_266_317)"/>
</g>
<path d="M209.236 130.398C209.236 130.398 211.862 135.395 209.236 140.814C206.61 146.234 207.194 131.914 207.194 131.914L209.236 130.398Z" fill="url(#paint62_linear_266_317)"/>
<path d="M206.319 132.857L210.403 131.914C210.403 131.914 222.072 105.299 206.319 75.4512L194.357 89.4078C194.357 89.4078 204.86 98.8267 206.319 132.856V132.857Z" fill="url(#paint63_linear_266_317)"/>
<path d="M161.01 76.4997C156.156 81.8619 144.537 94.6984 148.752 103.979C149.331 105.253 149.953 106.623 151.318 107.128C155.309 108.606 158.881 100.193 167.851 98.5407C172.436 97.6962 174.008 99.4594 175.548 97.9685C180.245 93.4211 171.622 73.319 165.001 73.6373C163.802 73.6953 162.899 74.4125 161.01 76.4997Z" fill="url(#paint64_linear_266_317)"/>
<path d="M189.698 199.433C190.123 199.826 190.149 200.741 190.167 201.34C190.175 201.607 190.179 201.741 190.144 201.833C189.886 202.505 188.558 202.495 186.47 202.582C183.17 202.717 182.178 202.916 181.951 202.41C181.738 201.936 182.367 201.22 182.436 201.141C182.816 200.717 183.258 200.582 184.111 200.356C185.69 199.939 186.752 199.724 187.074 199.658C189.083 199.249 189.419 199.175 189.698 199.432L189.698 199.433Z" fill="url(#paint65_linear_266_317)"/>
<path d="M187.383 196.128L187.254 199.9C187.357 200.077 188.497 200.561 189.355 200.048L190.003 196.312L187.384 196.128H187.383Z" fill="url(#paint66_linear_266_317)"/>
<path d="M161.9 198.907C162.467 199.473 162.647 200.56 162.209 201.124C161.779 201.678 161.07 201.317 159.12 201.481C157.031 201.656 156.511 202.181 155.069 201.863C154.486 201.734 153.451 201.402 153.448 200.988C153.447 200.698 153.955 200.521 155.65 199.848C158.055 198.894 158.041 198.849 158.556 198.735C159.851 198.448 161.151 198.16 161.9 198.907Z" fill="url(#paint67_linear_266_317)"/>
<path d="M160.378 195.552L159.515 199.113C159.604 199.297 160.704 199.867 161.599 199.421L162.977 195.936L160.378 195.552Z" fill="url(#paint68_linear_266_317)"/>
<path d="M165.633 118.288C166.107 130.076 166.008 143.363 164.85 157.855C163.706 172.178 161.726 185.171 159.424 196.627C160.782 196.917 162.14 197.207 163.498 197.497C166.726 194.135 170.746 188.899 172.438 181.714C173.489 177.255 172.941 175.021 173.469 169.576C174.31 160.908 176.696 156.262 179.042 149.182C181.15 142.82 183.547 133.521 184.445 121.214C178.175 120.239 171.905 119.263 165.634 118.288H165.633Z" fill="url(#paint69_linear_266_317)"/>
<path style="mix-blend-mode:multiply" opacity="0.3" d="M167.497 173.376C168.994 167.43 171.875 165.858 171.979 160.245C172.052 156.274 170.631 155.95 170.726 152.149C170.87 146.385 174.234 143.363 175.924 139.737C177.709 135.908 178.394 129.758 173.587 119.525C177.205 120.088 180.824 120.651 184.442 121.214C183.545 133.521 181.147 142.821 179.04 149.182C176.694 156.262 174.308 160.907 173.467 169.577C172.939 175.021 173.487 177.255 172.436 181.715C170.744 188.9 166.724 194.135 163.496 197.497C163.151 197.423 162.805 197.35 162.46 197.276C165.949 193.094 167.181 189.36 167.495 186.33C168.005 181.399 165.989 179.373 167.497 173.377V173.376Z" fill="url(#paint70_linear_266_317)"/>
<path d="M179.205 117.552C180.819 132.49 182.301 147.715 183.635 163.219C184.636 174.853 185.527 186.344 186.316 197.689C187.692 197.786 189.07 197.883 190.446 197.978C191.637 195.438 193.191 191.566 194.137 186.661C195.287 180.703 194.763 177.229 195.08 171.101C195.437 164.228 196.401 162.683 197.794 153.962C200.619 136.263 202.032 127.414 197.557 122.196C196.104 120.502 191.61 116.297 179.205 117.552Z" fill="url(#paint71_linear_266_317)"/>
<path d="M207.796 83.8515C209.587 79.0728 206.742 73.8065 201.766 72.7549C196.108 71.559 189.334 70.7515 181.719 71.065C174.918 71.3454 169.006 72.4559 164.21 73.7372C163.586 73.904 163.115 74.4181 163.001 75.0572C162.39 78.4837 161.779 81.9094 161.169 85.3359C161.014 89.1186 160.962 94.243 161.385 100.297C161.807 106.35 162.221 106.442 163.189 114.987C164.767 128.921 164.106 132.561 166.894 134.235C168.707 135.323 169.364 134.01 178.619 133.09C184.826 132.474 187.993 132.187 191.135 133.255C195.415 134.71 196.846 137.152 198.612 136.358C200.306 135.596 200.522 132.661 200.727 127.544C201.044 119.65 201.026 114.285 201.055 112.364C201.19 103.552 203.414 96.8242 206.261 88.208C206.769 86.6704 207.285 85.2158 207.796 83.8515Z" fill="url(#paint72_linear_266_317)"/>
<path d="M182.556 62.335C182.654 64.5503 182.994 66.2933 183.29 67.4844C183.629 68.8479 183.84 69.1944 184.101 69.47C184.494 69.885 185.072 70.2203 188.274 70.8384C190.017 71.1744 190.237 71.151 190.285 71.3203C190.514 72.1463 185.976 75.2464 181.094 74.8185C178.106 74.5566 175.319 73.0021 175.437 72.1011C175.556 71.1946 178.544 71.5177 179.341 69.8464C179.895 68.6835 179.122 67.1169 178.237 65.8316C178.947 64.3069 181.846 63.8596 182.556 62.335Z" fill="url(#paint73_linear_266_317)"/>
<path d="M177.097 63.5053C176.348 62.6092 176.219 60.9822 176.971 59.9088C177.617 58.9853 178.702 58.8007 179.352 58.6895C181.235 58.3688 183.668 59.0352 184.591 60.7412C185.139 61.7526 184.188 63.9655 184.041 64.3611C183.875 64.8092 183.541 64.9784 183.241 65.3265C182.826 65.8093 182.176 66.5772 181.12 67.8585C181.014 67.5024 180.857 67.0632 180.62 66.5909C180.53 66.4088 180.165 65.6989 179.641 65.1227C178.589 63.9663 177.807 64.3539 177.097 63.5053H177.097Z" fill="url(#paint74_linear_266_317)"/>
<path d="M182.667 66.7454C182.667 66.7454 181.53 68.8632 179.042 68.8342C176.814 68.8076 176.224 63.8258 177.586 62.6895C178.04 62.3099 178.98 62.1125 179.762 62.2882C180.223 62.3921 180.388 62.5734 181.145 62.7282C181.844 62.8708 182.035 62.7838 182.253 62.9482C182.525 63.1545 182.744 63.6831 182.387 65.1683C182.787 64.7154 183.287 64.5228 183.656 64.6743C183.715 64.6985 183.873 64.7944 183.968 64.9475C184.308 65.5019 183.827 66.2586 182.667 66.7454Z" fill="url(#paint75_linear_266_317)"/>
<path d="M182.338 62.6446C182.235 62.7308 182.584 63.1144 182.638 63.6801C182.744 64.7793 181.703 66.1613 180.577 66.3346C179.911 66.4369 179.704 66.0412 178.591 65.9824C177.902 65.9462 177.335 66.0646 176.981 66.1621C176.696 67.3894 177.088 68.5765 177.922 69.0922C178.82 69.6475 179.907 69.2236 180.362 69.0463C180.666 68.9278 181.64 68.5499 182.109 67.6086C182.599 66.6279 182.039 66.0831 182.624 65.4062C182.919 65.0653 183.322 64.9026 183.688 64.253C183.787 64.0766 183.852 63.9218 183.891 63.8179C183.286 63.2393 182.487 62.5196 182.338 62.6437V62.6446Z" fill="url(#paint76_linear_266_317)"/>
<path d="M177.808 66.5676C177.808 66.5676 178.301 66.7932 179.127 66.7021C179.167 66.6973 179.212 66.707 179.218 66.7279C179.241 66.8061 178.729 67.1881 178.232 67.076C177.879 66.9963 177.591 66.6804 177.633 66.5933C177.651 66.5571 177.73 66.5571 177.808 66.5667V66.5676Z" fill="url(#paint77_linear_266_317)"/>
<path style="mix-blend-mode:multiply" opacity="0.3" d="M170.493 129.66C175.045 127.711 175.019 123.675 179.271 121.99C185.339 119.587 192.041 125.173 193.087 123.625C194.176 122.015 186.172 117.071 187.238 112.198C188.085 108.325 193.673 109.013 196.667 103.713C199.507 98.6841 196.756 94.0343 199.27 92.2872C200.172 91.6603 201.763 91.4137 204.778 92.7466C202.673 99.3409 201.165 105.156 201.055 112.364C201.025 114.285 201.043 119.65 200.726 127.544C200.521 132.661 200.305 135.596 198.612 136.358C196.846 137.152 195.415 134.71 191.135 133.255C187.992 132.187 184.825 132.474 178.619 133.09C169.363 134.01 168.707 135.323 166.893 134.235C165.712 133.525 165.151 132.459 164.775 130.412C166.631 130.613 168.599 130.471 170.492 129.66H170.493Z" fill="url(#paint78_linear_266_317)"/>
<path d="M165.397 89.0952C157.081 92.5652 153.515 97.4624 152.009 100.065C151.047 101.725 149.478 104.51 150.521 106.333C151.502 108.047 154.336 108.115 155.728 107.9C162.803 106.802 165.85 93.1946 166.14 91.8375L165.396 89.0952H165.397Z" fill="url(#paint79_linear_266_317)"/>
<path d="M171.23 81.9489C173.639 81.9489 175.592 81.5622 175.592 81.0851C175.592 80.608 173.639 80.2212 171.23 80.2212C168.82 80.2212 166.867 80.608 166.867 81.0851C166.867 81.5622 168.82 81.9489 171.23 81.9489Z" fill="url(#paint80_linear_266_317)"/>
<path d="M166.872 81.085C166.872 81.085 166.669 82.0141 166.669 82.0222C166.669 82.0302 175.766 82.0222 175.766 82.0222L175.596 81.085H166.872Z" fill="url(#paint81_linear_266_317)"/>
<path d="M175.766 82.0264C175.766 82.5236 173.73 82.9265 171.218 82.9265C168.706 82.9265 166.671 82.5236 166.671 82.0264C166.671 81.5292 168.707 81.1262 171.218 81.1262C173.729 81.1262 175.766 81.5292 175.766 82.0264Z" fill="url(#paint82_linear_266_317)"/>
<path d="M174.258 91.9103C174.258 92.4107 172.897 92.8168 171.218 92.8168C169.539 92.8168 168.178 92.4107 168.178 91.9103C168.178 91.4098 169.539 91.0037 171.218 91.0037C172.897 91.0037 174.258 91.4098 174.258 91.9103Z" fill="url(#paint83_linear_266_317)"/>
<path d="M174.257 91.1389H168.178V91.8795H174.257V91.1389Z" fill="url(#paint84_linear_266_317)"/>
<path d="M171.219 92.1888C173.029 92.1888 174.497 91.7508 174.497 91.2105C174.497 90.6702 173.029 90.2322 171.219 90.2322C169.408 90.2322 167.94 90.6702 167.94 91.2105C167.94 91.7508 169.408 92.1888 171.219 92.1888Z" fill="white"/>
<path d="M175.331 81.9536C175.331 82.3767 173.49 82.72 171.219 82.72C168.947 82.72 167.106 82.3767 167.106 81.9536C167.106 81.5306 168.947 81.1873 171.219 81.1873C173.49 81.1873 175.331 81.5306 175.331 81.9536Z" fill="white"/>
<path d="M167.104 81.9539L167.94 91.0528H174.497L175.333 81.9539H167.104Z" fill="white"/>
<path d="M167.796 89.3492C169.522 89.4999 172.9 89.5007 174.642 89.3517C174.685 89.3484 174.718 89.3146 174.722 89.2719L175.189 84.1039C175.193 84.0556 175.158 84.0137 175.11 84.0088C173.448 83.8485 168.962 83.8493 167.329 84.0113C167.281 84.0161 167.246 84.0588 167.25 84.1063L167.717 89.2703C167.721 89.3122 167.753 89.346 167.796 89.3501V89.3492Z" fill="url(#paint85_linear_266_317)"/>
<path d="M174.705 84.0538C174.584 85.7864 174.463 87.519 174.342 89.2516C174.336 89.3418 174.413 89.4168 174.504 89.4095C174.506 89.4095 174.507 89.4095 174.509 89.4095C174.583 89.4039 174.642 89.3459 174.647 89.2725C174.78 87.5415 174.913 85.8098 175.045 84.0788C175.052 83.9974 174.99 83.9265 174.907 83.9192C174.894 83.9184 174.88 83.9168 174.866 83.916C174.783 83.9095 174.71 83.9716 174.704 84.0538H174.705Z" fill="url(#paint86_linear_266_317)"/>
<path d="M174.144 84.02C174.042 85.7759 173.939 87.5311 173.836 89.2871C173.831 89.3757 173.905 89.449 173.995 89.4442C173.997 89.4442 173.998 89.4442 173.999 89.4442C174.075 89.4402 174.136 89.3805 174.14 89.3056C174.255 87.5504 174.37 85.7961 174.485 84.0409C174.49 83.9587 174.426 83.8878 174.343 83.883C174.329 83.883 174.316 83.8814 174.302 83.8806C174.22 83.8765 174.149 83.9386 174.144 84.0208V84.02Z" fill="url(#paint87_linear_266_317)"/>
<path d="M173.583 83.9976C173.5 85.7697 173.416 87.5417 173.332 89.3138C173.328 89.4009 173.4 89.4726 173.489 89.4694C173.491 89.4694 173.492 89.4694 173.493 89.4694C173.571 89.4661 173.633 89.4057 173.638 89.3291L173.925 84.0145C173.93 83.9315 173.864 83.8614 173.781 83.8582C173.767 83.8582 173.754 83.8574 173.741 83.8566C173.658 83.8533 173.588 83.917 173.584 83.9984L173.583 83.9976Z" fill="url(#paint88_linear_266_317)"/>
<path d="M173.019 83.9814C172.955 85.7656 172.89 87.5489 172.826 89.3331C172.823 89.4193 172.894 89.4894 172.982 89.487C172.983 89.487 172.984 89.487 172.985 89.487C173.064 89.4846 173.128 89.4225 173.131 89.3444C173.207 87.561 173.284 85.7776 173.36 83.9935C173.363 83.9105 173.297 83.8412 173.213 83.8388C173.199 83.8388 173.187 83.8388 173.173 83.838C173.09 83.8355 173.021 83.9 173.018 83.9814H173.019Z" fill="url(#paint89_linear_266_317)"/>
<path d="M172.457 83.9717L172.323 89.3476C172.321 89.4322 172.392 89.5015 172.477 89.4999C172.478 89.4999 172.48 89.4999 172.481 89.4999C172.561 89.4983 172.626 89.4346 172.628 89.3557C172.684 87.5634 172.741 85.772 172.798 83.9798C172.8 83.8968 172.733 83.8283 172.65 83.8267C172.636 83.8267 172.623 83.8267 172.61 83.8267C172.527 83.8251 172.459 83.8904 172.457 83.9717Z" fill="url(#paint90_linear_266_317)"/>
<path d="M171.894 83.9662C171.87 85.7632 171.846 87.5603 171.822 89.3582C171.821 89.442 171.89 89.5097 171.975 89.5089C171.976 89.5089 171.977 89.5089 171.978 89.5089C172.059 89.508 172.125 89.4436 172.126 89.363C172.163 87.5659 172.199 85.7689 172.236 83.9718C172.237 83.8888 172.171 83.8211 172.086 83.8203C172.073 83.8203 172.06 83.8203 172.046 83.8203C171.964 83.8203 171.895 83.8848 171.894 83.967L171.894 83.9662Z" fill="url(#paint91_linear_266_317)"/>
<path d="M171.331 83.9637C171.327 85.7632 171.323 87.5635 171.319 89.3629C171.319 89.4451 171.387 89.512 171.47 89.512H171.473C171.556 89.512 171.623 89.446 171.623 89.3646C171.64 87.5651 171.656 85.7656 171.672 83.9653C171.672 83.8831 171.606 83.8154 171.522 83.8154C171.509 83.8154 171.496 83.8154 171.482 83.8154C171.399 83.8154 171.331 83.8815 171.331 83.9637Z" fill="url(#paint92_linear_266_317)"/>
<path d="M170.769 83.9653C170.785 85.7648 170.801 87.5643 170.818 89.3646C170.818 89.446 170.885 89.5112 170.968 89.512C170.968 89.512 170.97 89.512 170.971 89.512C171.054 89.512 171.122 89.4451 171.122 89.3629C171.118 87.5635 171.114 85.764 171.11 83.9637C171.11 83.8815 171.041 83.8154 170.959 83.8154C170.945 83.8154 170.932 83.8154 170.919 83.8154C170.835 83.8154 170.768 83.8831 170.769 83.9653Z" fill="url(#paint93_linear_266_317)"/>
<path d="M170.208 83.9708C170.244 85.7679 170.281 87.565 170.317 89.362C170.319 89.4418 170.384 89.5063 170.465 89.5079C170.466 89.5079 170.467 89.5079 170.469 89.5079C170.554 89.5087 170.623 89.441 170.621 89.3572C170.597 87.5601 170.573 85.7631 170.549 83.966C170.548 83.8838 170.48 83.8185 170.396 83.8193H170.356C170.273 83.821 170.205 83.8886 170.207 83.9717L170.208 83.9708Z" fill="url(#paint94_linear_266_317)"/>
<path d="M169.645 83.9806C169.701 85.772 169.758 87.5634 169.814 89.3549C169.816 89.4338 169.881 89.4975 169.962 89.4991C169.962 89.4991 169.964 89.4991 169.965 89.4991C170.051 89.5007 170.12 89.4314 170.119 89.3468C170.075 87.5554 170.031 85.7632 169.986 83.9717C169.984 83.8904 169.915 83.8251 169.832 83.8267C169.819 83.8267 169.806 83.8267 169.792 83.8267C169.708 83.8283 169.642 83.8968 169.645 83.9798V83.9806Z" fill="url(#paint95_linear_266_317)"/>
<path d="M169.081 83.9952C169.157 85.7785 169.233 87.5611 169.31 89.3444C169.313 89.4218 169.376 89.4847 169.456 89.4871C169.457 89.4871 169.458 89.4871 169.459 89.4871C169.546 89.4895 169.618 89.4194 169.615 89.3332C169.55 87.5498 169.486 85.7664 169.422 83.9831C169.419 83.9017 169.35 83.838 169.267 83.8396C169.254 83.8396 169.241 83.8396 169.227 83.8404C169.143 83.8429 169.077 83.9122 169.08 83.9952H169.081Z" fill="url(#paint96_linear_266_317)"/>
<path d="M168.52 84.0145C168.615 85.7858 168.712 87.5563 168.807 89.3276C168.811 89.4041 168.874 89.4645 168.951 89.4678C168.952 89.4678 168.953 89.4678 168.955 89.4678C169.043 89.4718 169.116 89.3993 169.112 89.3122C169.029 87.541 168.944 85.7689 168.861 83.9976C168.857 83.9162 168.787 83.8534 168.704 83.8558C168.691 83.8558 168.677 83.8566 168.664 83.8574C168.58 83.8606 168.515 83.9307 168.52 84.0137V84.0145Z" fill="url(#paint97_linear_266_317)"/>
<path d="M167.957 84.0417C168.072 85.7961 168.187 87.5496 168.302 89.304C168.306 89.3789 168.367 89.4385 168.443 89.4426C168.444 89.4426 168.446 89.4426 168.447 89.4426C168.537 89.4482 168.611 89.3749 168.607 89.2854C168.504 87.5303 168.401 85.7759 168.298 84.0208C168.294 83.9394 168.223 83.8765 168.14 83.8806C168.126 83.8806 168.112 83.8822 168.099 83.883C168.016 83.8878 167.952 83.9587 167.957 84.0409V84.0417Z" fill="url(#paint98_linear_266_317)"/>
<path d="M167.395 84.0807C167.527 85.8109 167.661 87.5403 167.793 89.2704C167.799 89.343 167.857 89.401 167.931 89.4074C167.933 89.4074 167.934 89.4074 167.936 89.4074C168.027 89.4147 168.104 89.3398 168.099 89.2495C167.978 87.5185 167.857 85.7875 167.736 84.0557C167.73 83.9735 167.657 83.9115 167.573 83.9179C167.56 83.9187 167.546 83.9204 167.532 83.9212C167.45 83.9276 167.389 83.9993 167.395 84.0807Z" fill="url(#paint99_linear_266_317)"/>
<g style="mix-blend-mode:soft-light" opacity="0.3">
<path d="M170.966 89.5118C170.966 89.5118 170.968 89.5118 170.969 89.5118C171.013 89.5118 171.053 89.4932 171.081 89.4626C171.173 89.4626 171.265 89.4626 171.356 89.4626C171.384 89.4924 171.424 89.5118 171.469 89.5118H171.472C171.516 89.5118 171.556 89.4924 171.584 89.4618C171.676 89.4618 171.767 89.461 171.86 89.4594C171.888 89.4892 171.928 89.5077 171.972 89.5077C171.973 89.5077 171.974 89.5077 171.975 89.5077C171.998 89.5077 172.019 89.5021 172.038 89.4932C172.451 88.1603 172.335 87.2143 172.035 86.5244C171.536 85.3785 170.429 84.7105 169.682 83.8756C169.674 83.8836 169.667 83.8925 169.662 83.9022C169.572 83.9038 169.485 83.9054 169.398 83.9078C169.37 83.8643 169.321 83.8361 169.266 83.8377C169.252 83.8377 169.239 83.8377 169.226 83.8385C169.17 83.8401 169.123 83.8707 169.098 83.9151C169.008 83.9175 168.921 83.9207 168.834 83.9231C168.806 83.8804 168.757 83.853 168.702 83.8546C168.688 83.8546 168.674 83.8554 168.662 83.8562C168.606 83.8587 168.56 83.8893 168.535 83.9336C168.444 83.9376 168.356 83.9409 168.27 83.9449C168.241 83.903 168.192 83.8764 168.137 83.8788C168.123 83.8788 168.109 83.8804 168.097 83.8812C168.042 83.8845 167.996 83.9159 167.971 83.9602C167.878 83.9658 167.789 83.9715 167.705 83.9771C167.675 83.936 167.625 83.911 167.57 83.9159C167.557 83.9167 167.543 83.9183 167.529 83.9191C167.475 83.9239 167.43 83.9562 167.407 84.0013C167.38 84.0037 167.353 84.0061 167.327 84.0086C167.279 84.0134 167.244 84.0561 167.248 84.1036L167.715 89.2676C167.719 89.3095 167.752 89.3433 167.794 89.3474C167.803 89.3474 167.813 89.349 167.821 89.3498C167.846 89.3812 167.884 89.4022 167.926 89.4054C167.928 89.4054 167.93 89.4054 167.931 89.4054C167.975 89.4086 168.016 89.3933 168.045 89.3667C168.137 89.3731 168.232 89.3796 168.33 89.386C168.356 89.4175 168.394 89.4376 168.438 89.44C168.439 89.44 168.441 89.44 168.442 89.44C168.486 89.4425 168.526 89.4263 168.556 89.3981C168.647 89.403 168.741 89.4078 168.837 89.4118C168.864 89.4424 168.902 89.4634 168.946 89.465C168.948 89.465 168.949 89.465 168.95 89.465C168.995 89.4666 169.036 89.4497 169.064 89.4215C169.155 89.4247 169.248 89.4279 169.342 89.4312C169.369 89.4618 169.408 89.4819 169.452 89.4835C169.453 89.4835 169.454 89.4835 169.455 89.4835C169.499 89.4852 169.54 89.4674 169.568 89.4384C169.66 89.4408 169.752 89.4433 169.846 89.4457C169.873 89.4763 169.913 89.4964 169.957 89.4972C169.958 89.4972 169.959 89.4972 169.96 89.4972C170.005 89.4981 170.045 89.4795 170.073 89.4505C170.165 89.4521 170.257 89.4537 170.349 89.4553C170.377 89.486 170.416 89.5053 170.461 89.5061C170.462 89.5061 170.462 89.5061 170.464 89.5061C170.509 89.5061 170.548 89.4876 170.576 89.4578C170.668 89.4586 170.76 89.4594 170.852 89.4602C170.88 89.4908 170.92 89.5101 170.964 89.5101L170.966 89.5118Z" fill="white"/>
</g>
<path d="M165 89.3812C165 89.3812 166.14 85.9458 168.135 85.3736C170.13 84.8015 172.128 85.0876 172.554 85.6597C172.981 86.2319 172.016 87.2287 170.076 87.8758C168.135 88.5229 167.564 90.8124 166.139 91.0985C164.714 91.3845 164.999 89.3812 164.999 89.3812H165Z" fill="url(#paint100_linear_266_317)"/>
<defs>
<linearGradient id="paint0_linear_266_317" x1="112.15" y1="25.4624" x2="61.8722" y2="25.4624" gradientUnits="userSpaceOnUse">
<stop stop-color="#E38DDD"/>
<stop offset="1" stop-color="#9571F6"/>
</linearGradient>
<linearGradient id="paint1_linear_266_317" x1="105.513" y1="12.1816" x2="61.6521" y2="69.7046" gradientUnits="userSpaceOnUse">
<stop stop-color="#E38DDD"/>
<stop offset="1" stop-color="#9571F6"/>
</linearGradient>
<linearGradient id="paint2_linear_266_317" x1="95.8807" y1="30.7955" x2="174.917" y2="30.7955" gradientUnits="userSpaceOnUse">
<stop stop-color="#FF9085"/>
<stop offset="1" stop-color="#FB6FBB"/>
</linearGradient>
<linearGradient id="paint3_linear_266_317" x1="106.313" y1="9.9181" x2="175.262" y2="100.345" gradientUnits="userSpaceOnUse">
<stop stop-color="#FF9085"/>
<stop offset="1" stop-color="#FB6FBB"/>
</linearGradient>
<linearGradient id="paint4_linear_266_317" x1="84.4274" y1="51.7059" x2="83.072" y2="70.5154" gradientUnits="userSpaceOnUse">
<stop stop-color="#FFC444"/>
<stop offset="0.3" stop-color="#FBAB49"/>
<stop offset="1" stop-color="#F36F56"/>
</linearGradient>
<linearGradient id="paint5_linear_266_317" x1="99.9241" y1="77.6528" x2="95.6523" y2="104.239" gradientUnits="userSpaceOnUse">
<stop stop-color="#E38DDD"/>
<stop offset="1" stop-color="#9571F6"/>
</linearGradient>
<linearGradient id="paint6_linear_266_317" x1="99.9462" y1="77.6562" x2="95.6745" y2="104.242" gradientUnits="userSpaceOnUse">
<stop stop-color="#AA80F9"/>
<stop offset="1" stop-color="#6165D7"/>
</linearGradient>
<linearGradient id="paint7_linear_266_317" x1="118.087" y1="188.06" x2="119.786" y2="218.506" gradientUnits="userSpaceOnUse">
<stop stop-color="#444B8C"/>
<stop offset="1" stop-color="#26264F"/>
</linearGradient>
<linearGradient id="paint8_linear_266_317" x1="121.268" y1="203.064" x2="120.366" y2="161.958" gradientUnits="userSpaceOnUse">
<stop stop-color="#FFC444"/>
<stop offset="1" stop-color="#F36F56"/>
</linearGradient>
<linearGradient id="paint9_linear_266_317" x1="148.572" y1="186.36" x2="150.271" y2="216.804" gradientUnits="userSpaceOnUse">
<stop stop-color="#444B8C"/>
<stop offset="1" stop-color="#26264F"/>
</linearGradient>
<linearGradient id="paint10_linear_266_317" x1="148.111" y1="202.475" x2="147.208" y2="161.369" gradientUnits="userSpaceOnUse">
<stop stop-color="#FFC444"/>
<stop offset="1" stop-color="#F36F56"/>
</linearGradient>
<linearGradient id="paint11_linear_266_317" x1="108.272" y1="176.347" x2="125.363" y2="153.503" gradientUnits="userSpaceOnUse">
<stop stop-color="#AA80F9"/>
<stop offset="1" stop-color="#6165D7"/>
</linearGradient>
<linearGradient id="paint12_linear_266_317" x1="120.902" y1="179.191" x2="160.873" y2="142.069" gradientUnits="userSpaceOnUse">
<stop stop-color="#AA80F9"/>
<stop offset="1" stop-color="#6165D7"/>
</linearGradient>
<linearGradient id="paint13_linear_266_317" x1="142.127" y1="76.1021" x2="142.881" y2="100.319" gradientUnits="userSpaceOnUse">
<stop stop-color="#444B8C"/>
<stop offset="1" stop-color="#26264F"/>
</linearGradient>
<linearGradient id="paint14_linear_266_317" x1="110.439" y1="177.97" x2="127.531" y2="155.126" gradientUnits="userSpaceOnUse">
<stop stop-color="#AA80F9"/>
<stop offset="1" stop-color="#6165D7"/>
</linearGradient>
<linearGradient id="paint15_linear_266_317" x1="103.49" y1="114.124" x2="167.299" y2="114.124" gradientUnits="userSpaceOnUse">
<stop stop-color="#E38DDD"/>
<stop offset="1" stop-color="#9571F6"/>
</linearGradient>
<linearGradient id="paint16_linear_266_317" x1="135.998" y1="76.9042" x2="145.809" y2="136.654" gradientUnits="userSpaceOnUse">
<stop stop-color="#AA80F9"/>
<stop offset="1" stop-color="#6165D7"/>
</linearGradient>
<linearGradient id="paint17_linear_266_317" x1="125.304" y1="95.6084" x2="150.756" y2="95.75" gradientUnits="userSpaceOnUse">
<stop stop-color="#E38DDD"/>
<stop offset="1" stop-color="#9571F6"/>
</linearGradient>
<linearGradient id="paint18_linear_266_317" x1="119.819" y1="79.0445" x2="130.279" y2="63.9229" gradientUnits="userSpaceOnUse">
<stop stop-color="#FFC444"/>
<stop offset="1" stop-color="#F36F56"/>
</linearGradient>
<linearGradient id="paint19_linear_266_317" x1="118.88" y1="71.3543" x2="135.358" y2="61.4746" gradientUnits="userSpaceOnUse">
<stop stop-color="#FFC444"/>
<stop offset="1" stop-color="#F36F56"/>
</linearGradient>
<linearGradient id="paint20_linear_266_317" x1="120.721" y1="91.7545" x2="121.055" y2="89.3591" gradientUnits="userSpaceOnUse">
<stop stop-color="#AB316D"/>
<stop offset="1" stop-color="#792D3D"/>
</linearGradient>
<linearGradient id="paint21_linear_266_317" x1="120.817" y1="91.7675" x2="121.151" y2="89.3721" gradientUnits="userSpaceOnUse">
<stop stop-color="#AB316D"/>
<stop offset="1" stop-color="#792D3D"/>
</linearGradient>
<linearGradient id="paint22_linear_266_317" x1="120.662" y1="93.5333" x2="120.718" y2="92.6888" gradientUnits="userSpaceOnUse">
<stop stop-color="#AB316D"/>
<stop offset="1" stop-color="#792D3D"/>
</linearGradient>
<linearGradient id="paint23_linear_266_317" x1="121.042" y1="99.9798" x2="120.014" y2="102.098" gradientUnits="userSpaceOnUse">
<stop stop-color="#AB316D"/>
<stop offset="1" stop-color="#792D3D"/>
</linearGradient>
<linearGradient id="paint24_linear_266_317" x1="120.91" y1="99.9163" x2="119.883" y2="102.035" gradientUnits="userSpaceOnUse">
<stop stop-color="#AB316D"/>
<stop offset="1" stop-color="#792D3D"/>
</linearGradient>
<linearGradient id="paint25_linear_266_317" x1="127.463" y1="90.2066" x2="117.477" y2="104.66" gradientUnits="userSpaceOnUse">
<stop stop-color="#D8DEE8"/>
<stop offset="1" stop-color="white"/>
</linearGradient>
<linearGradient id="paint26_linear_266_317" x1="123.854" y1="87.7125" x2="113.868" y2="102.165" gradientUnits="userSpaceOnUse">
<stop stop-color="#D8DEE8"/>
<stop offset="1" stop-color="white"/>
</linearGradient>
<linearGradient id="paint27_linear_266_317" x1="125.421" y1="88.7948" x2="115.434" y2="103.249" gradientUnits="userSpaceOnUse">
<stop stop-color="#D8DEE8"/>
<stop offset="1" stop-color="white"/>
</linearGradient>
<linearGradient id="paint28_linear_266_317" x1="124.886" y1="91.9388" x2="118.125" y2="98.5461" gradientUnits="userSpaceOnUse">
<stop stop-color="#AB316D"/>
<stop offset="1" stop-color="#792D3D"/>
</linearGradient>
<linearGradient id="paint29_linear_266_317" x1="124.818" y1="95.5613" x2="123.317" y2="96.37" gradientUnits="userSpaceOnUse">
<stop stop-color="#AB316D"/>
<stop offset="1" stop-color="#792D3D"/>
</linearGradient>
<linearGradient id="paint30_linear_266_317" x1="124.363" y1="95.5639" x2="122.886" y2="96.3606" gradientUnits="userSpaceOnUse">
<stop stop-color="#AB316D"/>
<stop offset="1" stop-color="#792D3D"/>
</linearGradient>
<linearGradient id="paint31_linear_266_317" x1="123.908" y1="95.5678" x2="122.454" y2="96.3525" gradientUnits="userSpaceOnUse">
<stop stop-color="#AB316D"/>
<stop offset="1" stop-color="#792D3D"/>
</linearGradient>
<linearGradient id="paint32_linear_266_317" x1="123.451" y1="95.5735" x2="122.02" y2="96.3454" gradientUnits="userSpaceOnUse">
<stop stop-color="#AB316D"/>
<stop offset="1" stop-color="#792D3D"/>
</linearGradient>
<linearGradient id="paint33_linear_266_317" x1="122.989" y1="95.5808" x2="121.582" y2="96.3399" gradientUnits="userSpaceOnUse">
<stop stop-color="#AB316D"/>
<stop offset="1" stop-color="#792D3D"/>
</linearGradient>
<linearGradient id="paint34_linear_266_317" x1="122.529" y1="95.5895" x2="121.147" y2="96.3349" gradientUnits="userSpaceOnUse">
<stop stop-color="#AB316D"/>
<stop offset="1" stop-color="#792D3D"/>
</linearGradient>
<linearGradient id="paint35_linear_266_317" x1="122.066" y1="95.6001" x2="120.707" y2="96.3319" gradientUnits="userSpaceOnUse">
<stop stop-color="#AB316D"/>
<stop offset="1" stop-color="#792D3D"/>
</linearGradient>
<linearGradient id="paint36_linear_266_317" x1="121.597" y1="95.6105" x2="120.264" y2="96.3295" gradientUnits="userSpaceOnUse">
<stop stop-color="#AB316D"/>
<stop offset="1" stop-color="#792D3D"/>
</linearGradient>
<linearGradient id="paint37_linear_266_317" x1="121.129" y1="95.6228" x2="119.82" y2="96.329" gradientUnits="userSpaceOnUse">
<stop stop-color="#AB316D"/>
<stop offset="1" stop-color="#792D3D"/>
</linearGradient>
<linearGradient id="paint38_linear_266_317" x1="120.659" y1="95.6364" x2="119.376" y2="96.3282" gradientUnits="userSpaceOnUse">
<stop stop-color="#AB316D"/>
<stop offset="1" stop-color="#792D3D"/>
</linearGradient>
<linearGradient id="paint39_linear_266_317" x1="120.186" y1="95.6509" x2="118.928" y2="96.3291" gradientUnits="userSpaceOnUse">
<stop stop-color="#AB316D"/>
<stop offset="1" stop-color="#792D3D"/>
</linearGradient>
<linearGradient id="paint40_linear_266_317" x1="119.709" y1="95.6662" x2="118.476" y2="96.3308" gradientUnits="userSpaceOnUse">
<stop stop-color="#AB316D"/>
<stop offset="1" stop-color="#792D3D"/>
</linearGradient>
<linearGradient id="paint41_linear_266_317" x1="119.232" y1="95.6831" x2="118.025" y2="96.3333" gradientUnits="userSpaceOnUse">
<stop stop-color="#AB316D"/>
<stop offset="1" stop-color="#792D3D"/>
</linearGradient>
<linearGradient id="paint42_linear_266_317" x1="118.75" y1="95.7016" x2="117.57" y2="96.3374" gradientUnits="userSpaceOnUse">
<stop stop-color="#AB316D"/>
<stop offset="1" stop-color="#792D3D"/>
</linearGradient>
<linearGradient id="paint43_linear_266_317" x1="118.122" y1="96.8495" x2="126.899" y2="96.8495" gradientUnits="userSpaceOnUse">
<stop stop-color="#FFC444"/>
<stop offset="1" stop-color="#F36F56"/>
</linearGradient>
<linearGradient id="paint44_linear_266_317" x1="54.0433" y1="48.9742" x2="47.9972" y2="66.8298" gradientUnits="userSpaceOnUse">
<stop stop-color="#AB316D"/>
<stop offset="1" stop-color="#792D3D"/>
</linearGradient>
<linearGradient id="paint45_linear_266_317" x1="46.5027" y1="79.5562" x2="63.363" y2="149.174" gradientUnits="userSpaceOnUse">
<stop stop-color="#FFC444"/>
<stop offset="1" stop-color="#F36F56"/>
</linearGradient>
<linearGradient id="paint46_linear_266_317" x1="115.87" y1="86.4998" x2="100.79" y2="97.7403" gradientUnits="userSpaceOnUse">
<stop stop-color="#AB316D"/>
<stop offset="1" stop-color="#792D3D"/>
</linearGradient>
<linearGradient id="paint47_linear_266_317" x1="71.4414" y1="203.889" x2="69.4411" y2="229.248" gradientUnits="userSpaceOnUse">
<stop stop-color="#26264F"/>
<stop offset="1" stop-color="#444B8C"/>
</linearGradient>
<linearGradient id="paint48_linear_266_317" x1="66.3184" y1="218.007" x2="66.6818" y2="191.743" gradientUnits="userSpaceOnUse">
<stop stop-color="#AB316D"/>
<stop offset="1" stop-color="#792D3D"/>
</linearGradient>
<linearGradient id="paint49_linear_266_317" x1="33.9434" y1="200.931" x2="31.9423" y2="226.289" gradientUnits="userSpaceOnUse">
<stop stop-color="#26264F"/>
<stop offset="1" stop-color="#444B8C"/>
</linearGradient>
<linearGradient id="paint50_linear_266_317" x1="31.9525" y1="217.532" x2="32.3167" y2="191.266" gradientUnits="userSpaceOnUse">
<stop stop-color="#AB316D"/>
<stop offset="1" stop-color="#792D3D"/>
</linearGradient>
<linearGradient id="paint51_linear_266_317" x1="72.5605" y1="175.458" x2="53.2207" y2="175.458" gradientUnits="userSpaceOnUse">
<stop stop-color="#311944"/>
<stop offset="1" stop-color="#6B3976"/>
</linearGradient>
<linearGradient id="paint52_linear_266_317" x1="71.2235" y1="175.459" x2="53.2215" y2="175.459" gradientUnits="userSpaceOnUse">
<stop stop-color="#26264F"/>
<stop offset="1" stop-color="#444B8C"/>
</linearGradient>
<linearGradient id="paint53_linear_266_317" x1="67.1918" y1="173.544" x2="28.2601" y2="173.544" gradientUnits="userSpaceOnUse">
<stop stop-color="#311944"/>
<stop offset="1" stop-color="#6B3976"/>
</linearGradient>
<linearGradient id="paint54_linear_266_317" x1="80.8863" y1="94.2968" x2="26.6214" y2="150.413" gradientUnits="userSpaceOnUse">
<stop stop-color="#AA80F9"/>
<stop offset="1" stop-color="#6165D7"/>
</linearGradient>
<linearGradient id="paint55_linear_266_317" x1="115.87" y1="86.4998" x2="100.79" y2="97.7403" gradientUnits="userSpaceOnUse">
<stop stop-color="#AB316D"/>
<stop offset="1" stop-color="#792D3D"/>
</linearGradient>
<linearGradient id="paint56_linear_266_317" x1="80.8863" y1="94.2968" x2="26.6214" y2="150.413" gradientUnits="userSpaceOnUse">
<stop stop-color="#FFC444"/>
<stop offset="1" stop-color="#F36F56"/>
</linearGradient>
<linearGradient id="paint57_linear_266_317" x1="63.5287" y1="80.7381" x2="43.4632" y2="156.313" gradientUnits="userSpaceOnUse">
<stop stop-color="#FFC444"/>
<stop offset="1" stop-color="#F36F56"/>
</linearGradient>
<linearGradient id="paint58_linear_266_317" x1="56.9357" y1="84.4566" x2="46.6218" y2="111.374" gradientUnits="userSpaceOnUse">
<stop stop-color="#FFC444"/>
<stop offset="1" stop-color="#F36F56"/>
</linearGradient>
<linearGradient id="paint59_linear_266_317" x1="54.3473" y1="79.5015" x2="57.5449" y2="92.3835" gradientUnits="userSpaceOnUse">
<stop stop-color="#AB316D"/>
<stop offset="1" stop-color="#792D3D"/>
</linearGradient>
<linearGradient id="paint60_linear_266_317" x1="56.9972" y1="78.6667" x2="57.0442" y2="90.7298" gradientUnits="userSpaceOnUse">
<stop stop-color="#AB316D"/>
<stop offset="1" stop-color="#792D3D"/>
</linearGradient>
<linearGradient id="paint61_linear_266_317" x1="67.7903" y1="81.8698" x2="47.7248" y2="157.445" gradientUnits="userSpaceOnUse">
<stop stop-color="#FFC444"/>
<stop offset="1" stop-color="#F36F56"/>
</linearGradient>
<linearGradient id="paint62_linear_266_317" x1="209.524" y1="144.282" x2="207.758" y2="125.827" gradientUnits="userSpaceOnUse">
<stop stop-color="#FFC444"/>
<stop offset="1" stop-color="#F36F56"/>
</linearGradient>
<linearGradient id="paint63_linear_266_317" x1="190.732" y1="141.952" x2="216.299" y2="73.9092" gradientUnits="userSpaceOnUse">
<stop stop-color="#FFC444"/>
<stop offset="1" stop-color="#F36F56"/>
</linearGradient>
<linearGradient id="paint64_linear_266_317" x1="152.134" y1="74.4415" x2="158.881" y2="88.1818" gradientUnits="userSpaceOnUse">
<stop stop-color="#FFC444"/>
<stop offset="1" stop-color="#F36F56"/>
</linearGradient>
<linearGradient id="paint65_linear_266_317" x1="182.029" y1="200.643" x2="190.182" y2="201.376" gradientUnits="userSpaceOnUse">
<stop stop-color="#444B8C"/>
<stop offset="1" stop-color="#26264F"/>
</linearGradient>
<linearGradient id="paint66_linear_266_317" x1="186.719" y1="200.976" x2="190.846" y2="193.794" gradientUnits="userSpaceOnUse">
<stop stop-color="#FFC444"/>
<stop offset="1" stop-color="#F36F56"/>
</linearGradient>
<linearGradient id="paint67_linear_266_317" x1="153.807" y1="199.232" x2="162.307" y2="201.082" gradientUnits="userSpaceOnUse">
<stop stop-color="#444B8C"/>
<stop offset="1" stop-color="#26264F"/>
</linearGradient>
<linearGradient id="paint68_linear_266_317" x1="159.066" y1="200.302" x2="163.826" y2="193.315" gradientUnits="userSpaceOnUse">
<stop stop-color="#FFC444"/>
<stop offset="1" stop-color="#F36F56"/>
</linearGradient>
<linearGradient id="paint69_linear_266_317" x1="155.911" y1="184.886" x2="176.453" y2="131.266" gradientUnits="userSpaceOnUse">
<stop stop-color="#311944"/>
<stop offset="1" stop-color="#893976"/>
</linearGradient>
<linearGradient id="paint70_linear_266_317" x1="159.587" y1="186.293" x2="180.128" y2="132.674" gradientUnits="userSpaceOnUse">
<stop stop-color="#311944"/>
<stop offset="1" stop-color="#893976"/>
</linearGradient>
<linearGradient id="paint71_linear_266_317" x1="168.983" y1="187.798" x2="195.939" y2="137.124" gradientUnits="userSpaceOnUse">
<stop stop-color="#311944"/>
<stop offset="1" stop-color="#893976"/>
</linearGradient>
<linearGradient id="paint72_linear_266_317" x1="170.474" y1="134.34" x2="196.041" y2="66.2972" gradientUnits="userSpaceOnUse">
<stop stop-color="#FFC444"/>
<stop offset="1" stop-color="#F36F56"/>
</linearGradient>
<linearGradient id="paint73_linear_266_317" x1="187.008" y1="79.413" x2="176.334" y2="59.998" gradientUnits="userSpaceOnUse">
<stop stop-color="#FFC444"/>
<stop offset="1" stop-color="#F36F56"/>
</linearGradient>
<linearGradient id="paint74_linear_266_317" x1="185.891" y1="73.4479" x2="179.532" y2="59.4372" gradientUnits="userSpaceOnUse">
<stop stop-color="#311944"/>
<stop offset="1" stop-color="#6B3976"/>
</linearGradient>
<linearGradient id="paint75_linear_266_317" x1="180.464" y1="63.3704" x2="180.475" y2="84.2727" gradientUnits="userSpaceOnUse">
<stop stop-color="#FFC444"/>
<stop offset="1" stop-color="#F36F56"/>
</linearGradient>
<linearGradient id="paint76_linear_266_317" x1="184.212" y1="74.2178" x2="177.847" y2="60.1921" gradientUnits="userSpaceOnUse">
<stop stop-color="#311944"/>
<stop offset="1" stop-color="#6B3976"/>
</linearGradient>
<linearGradient id="paint77_linear_266_317" x1="178.289" y1="65.8601" x2="178.713" y2="68.4601" gradientUnits="userSpaceOnUse">
<stop stop-color="#FFC444"/>
<stop offset="1" stop-color="#F36F56"/>
</linearGradient>
<linearGradient id="paint78_linear_266_317" x1="192.099" y1="128.924" x2="159.701" y2="54.3388" gradientUnits="userSpaceOnUse">
<stop stop-color="#FFC444"/>
<stop offset="1" stop-color="#F36F56"/>
</linearGradient>
<linearGradient id="paint79_linear_266_317" x1="162.483" y1="94.0214" x2="151.312" y2="108.885" gradientUnits="userSpaceOnUse">
<stop stop-color="#FFC444"/>
<stop offset="1" stop-color="#F36F56"/>
</linearGradient>
<linearGradient id="paint80_linear_266_317" x1="171.192" y1="81.3599" x2="171.59" y2="78.5028" gradientUnits="userSpaceOnUse">
<stop stop-color="#AB316D"/>
<stop offset="1" stop-color="#792D3D"/>
</linearGradient>
<linearGradient id="paint81_linear_266_317" x1="171.307" y1="81.3759" x2="171.706" y2="78.5188" gradientUnits="userSpaceOnUse">
<stop stop-color="#AB316D"/>
<stop offset="1" stop-color="#792D3D"/>
</linearGradient>
<linearGradient id="paint82_linear_266_317" x1="171.123" y1="83.4817" x2="171.19" y2="82.4736" gradientUnits="userSpaceOnUse">
<stop stop-color="#AB316D"/>
<stop offset="1" stop-color="#792D3D"/>
</linearGradient>
<linearGradient id="paint83_linear_266_317" x1="171.573" y1="91.1705" x2="170.348" y2="93.6969" gradientUnits="userSpaceOnUse">
<stop stop-color="#AB316D"/>
<stop offset="1" stop-color="#792D3D"/>
</linearGradient>
<linearGradient id="paint84_linear_266_317" x1="171.417" y1="91.0946" x2="170.191" y2="93.621" gradientUnits="userSpaceOnUse">
<stop stop-color="#AB316D"/>
<stop offset="1" stop-color="#792D3D"/>
</linearGradient>
<linearGradient id="paint85_linear_266_317" x1="176.161" y1="81.58" x2="168.099" y2="89.4608" gradientUnits="userSpaceOnUse">
<stop stop-color="#AB316D"/>
<stop offset="1" stop-color="#792D3D"/>
</linearGradient>
<linearGradient id="paint86_linear_266_317" x1="176.078" y1="85.9008" x2="174.288" y2="86.8656" gradientUnits="userSpaceOnUse">
<stop stop-color="#AB316D"/>
<stop offset="1" stop-color="#792D3D"/>
</linearGradient>
<linearGradient id="paint87_linear_266_317" x1="175.538" y1="85.9033" x2="173.776" y2="86.8537" gradientUnits="userSpaceOnUse">
<stop stop-color="#AB316D"/>
<stop offset="1" stop-color="#792D3D"/>
</linearGradient>
<linearGradient id="paint88_linear_266_317" x1="174.997" y1="85.9083" x2="173.262" y2="86.8443" gradientUnits="userSpaceOnUse">
<stop stop-color="#AB316D"/>
<stop offset="1" stop-color="#792D3D"/>
</linearGradient>
<linearGradient id="paint89_linear_266_317" x1="174.45" y1="85.9155" x2="172.743" y2="86.8354" gradientUnits="userSpaceOnUse">
<stop stop-color="#AB316D"/>
<stop offset="1" stop-color="#792D3D"/>
</linearGradient>
<linearGradient id="paint90_linear_266_317" x1="173.902" y1="85.9243" x2="172.223" y2="86.8291" gradientUnits="userSpaceOnUse">
<stop stop-color="#AB316D"/>
<stop offset="1" stop-color="#792D3D"/>
</linearGradient>
<linearGradient id="paint91_linear_266_317" x1="173.351" y1="85.9349" x2="171.702" y2="86.8236" gradientUnits="userSpaceOnUse">
<stop stop-color="#AB316D"/>
<stop offset="1" stop-color="#792D3D"/>
</linearGradient>
<linearGradient id="paint92_linear_266_317" x1="172.797" y1="85.9461" x2="171.177" y2="86.8196" gradientUnits="userSpaceOnUse">
<stop stop-color="#AB316D"/>
<stop offset="1" stop-color="#792D3D"/>
</linearGradient>
<linearGradient id="paint93_linear_266_317" x1="172.24" y1="85.9598" x2="170.65" y2="86.8174" gradientUnits="userSpaceOnUse">
<stop stop-color="#AB316D"/>
<stop offset="1" stop-color="#792D3D"/>
</linearGradient>
<linearGradient id="paint94_linear_266_317" x1="171.683" y1="85.9742" x2="170.122" y2="86.8158" gradientUnits="userSpaceOnUse">
<stop stop-color="#AB316D"/>
<stop offset="1" stop-color="#792D3D"/>
</linearGradient>
<linearGradient id="paint95_linear_266_317" x1="171.12" y1="85.9904" x2="169.59" y2="86.8152" gradientUnits="userSpaceOnUse">
<stop stop-color="#AB316D"/>
<stop offset="1" stop-color="#792D3D"/>
</linearGradient>
<linearGradient id="paint96_linear_266_317" x1="170.554" y1="86.0074" x2="169.054" y2="86.8161" gradientUnits="userSpaceOnUse">
<stop stop-color="#AB316D"/>
<stop offset="1" stop-color="#792D3D"/>
</linearGradient>
<linearGradient id="paint97_linear_266_317" x1="169.988" y1="86.026" x2="168.519" y2="86.8187" gradientUnits="userSpaceOnUse">
<stop stop-color="#AB316D"/>
<stop offset="1" stop-color="#792D3D"/>
</linearGradient>
<linearGradient id="paint98_linear_266_317" x1="169.418" y1="86.0459" x2="167.979" y2="86.8209" gradientUnits="userSpaceOnUse">
<stop stop-color="#AB316D"/>
<stop offset="1" stop-color="#792D3D"/>
</linearGradient>
<linearGradient id="paint99_linear_266_317" x1="168.843" y1="86.068" x2="167.436" y2="86.827" gradientUnits="userSpaceOnUse">
<stop stop-color="#AB316D"/>
<stop offset="1" stop-color="#792D3D"/>
</linearGradient>
<linearGradient id="paint100_linear_266_317" x1="169.946" y1="84.289" x2="166.283" y2="95.4209" gradientUnits="userSpaceOnUse">
<stop stop-color="#FFC444"/>
<stop offset="1" stop-color="#F36F56"/>
</linearGradient>
</defs>
</svg>
